<?xml version="1.0" encoding="utf-8"?>
<!-- Generator: Adobe Illustrator 21.0.2, SVG Export Plug-In . SVG Version: 6.00 Build 0)  -->
<svg version="1.1" id="Layer_1" xmlns="http://www.w3.org/2000/svg" xmlns:xlink="http://www.w3.org/1999/xlink" x="0px" y="0px"
	 viewBox="0 0 100 100" style="enable-background:new 0 0 100 100;" xml:space="preserve">
<style type="text/css">
	.st0{fill:#F37778;}
	.st1{fill:#FFFFFF;}
</style>
<rect x="0" class="st0" width="100" height="100"/>
<g>
	<path class="st1" d="M81.7,68.3c0-2-0.5-3.9-1.2-5.7c-0.6-1.4-1.2-2.8-1.8-4.1c-5-10.8-10.2-21.5-15.6-32.1c-0.8-1.5-1.5-3-2.3-4.4
		c-0.8-1.4-1.7-2.8-2.9-3.9c-1.9-1.8-4.5-2.9-7.1-3.1h-1.2c-2.7,0.1-5.4,1.3-7.3,3.2c-1.2,1.1-2,2.4-2.8,3.8
		c-0.8,1.4-1.5,2.9-2.3,4.4c-3.7,7.1-7.2,14.3-10.7,21.5c-2.1,4.3-4.1,8.6-6,13c-0.8,1.8-1.5,3.7-1.8,5.7c-0.5,3.3,0.2,6.9,2,9.7
		c1.5,2.5,3.9,4.5,6.5,5.7c2.1,0.9,4.4,1.3,6.7,1.2c3.1-0.2,6-1.3,8.6-2.9c2.9-1.8,5.4-4.1,7.7-6.6c2.1,2.3,4.4,4.5,7.1,6.2
		c2.6,1.7,5.5,2.9,8.5,3.2c3.3,0.3,6.8-0.5,9.6-2.3c2.5-1.6,4.4-4,5.5-6.7C81.3,72.1,81.7,70.2,81.7,68.3L81.7,68.3z M50,67
		c-0.8-1-1.6-2-2.3-3.1c-1.2-1.8-2.4-3.7-3.3-5.7c-0.7-1.7-1.3-3.4-1.6-5.2c-0.2-1.4-0.1-3,0.4-4.3c0.5-1.3,1.4-2.4,2.5-3.1
		c2.8-1.8,6.7-1.6,9.2,0.6c1.3,1.1,2,2.7,2.2,4.3c0.2,2.2-0.2,4.4-1,6.4C54.7,60.5,52.5,63.9,50,67L50,67z M77,71.6
		c-0.7,2.5-2.5,4.8-4.8,6c-2.1,1.1-4.5,1.5-6.8,1.2c-2.9-0.5-5.6-2-7.9-3.9c-1.7-1.4-3.2-2.9-4.6-4.5c2.3-2.9,4.5-5.9,6.1-9.2
		c1.4-2.9,2.5-6,2.6-9.3c0.1-2.1-0.3-4.2-1.3-6c-1.3-2.5-3.5-4.4-6.1-5.3c-2.4-0.9-5.1-0.9-7.6-0.2c-2.3,0.7-4.5,2.1-5.9,4
		c-1.3,1.7-2,3.8-2.2,5.9c-0.3,3,0.5,6.1,1.7,8.9c1.7,4.1,4.2,7.8,7,11.2c-1.3,1.5-2.6,2.8-4.1,4.1c-2.3,1.9-4.9,3.6-7.8,4.2
		c-2.4,0.5-4.9,0.3-7.1-0.8c-2.5-1.3-4.5-3.7-5.2-6.4c-0.6-2-0.4-4.2,0.2-6.2c0.6-1.6,1.3-3.2,2-4.8c4.9-10.7,10.1-21.3,15.5-31.8
		c0.8-1.6,1.6-3.1,2.4-4.7c0.7-1.2,1.5-2.4,2.6-3.3c1.2-1,2.8-1.5,4.3-1.4c1.6,0,3.2,0.6,4.4,1.6c1.2,1,2,2.4,2.8,3.8
		c1.7,3.1,3.3,6.3,4.9,9.5c4.6,9,9,18.2,13.2,27.4c0.6,1.4,1.3,2.9,1.7,4.4C77.6,67.8,77.6,69.8,77,71.6L77,71.6z"/>
</g>
</svg>
