<?xml version="1.0" encoding="utf-8"?>
<!-- Generator: Adobe Illustrator 21.0.2, SVG Export Plug-In . SVG Version: 6.00 Build 0)  -->
<svg version="1.1" id="Layer_1" xmlns="http://www.w3.org/2000/svg" xmlns:xlink="http://www.w3.org/1999/xlink" x="0px" y="0px"
	 viewBox="0 0 85 85" style="enable-background:new 0 0 85 85;" xml:space="preserve">
<style type="text/css">
	.st0{fill:#035A9C;}
	.st1{fill:#184781;}
	.st2{fill:#669AD2;}
	.st3{fill:#FFFFFF;}
</style>
<g>
	<path class="st0" d="M72.5,59.8c0.5-0.8,0.8-1.8,0.8-2.6V27.8c0-0.8-0.3-1.8-0.8-2.6l-30,17.3L72.5,59.8z"/>
	<path class="st1" d="M45.2,76.5l25.5-14.7c0.7-0.4,1.4-1.2,1.9-2l-30-17.3l-30,17.3c0.5,0.8,1.1,1.6,1.9,2l25.5,14.7
		C41.3,77.4,43.7,77.4,45.2,76.5z"/>
	<path class="st2" d="M72.5,25.2c-0.5-0.8-1.2-1.6-1.9-2L45.2,8.5c-1.5-0.8-3.9-0.8-5.3,0L14.4,23.2c-1.5,0.8-2.7,2.9-2.7,4.6v29.4
		c0,0.8,0.3,1.8,0.8,2.6l30-17.3L72.5,25.2z"/>
	<g>
		<path class="st3" d="M42.5,63C31.2,63,22,53.8,22,42.5S31.2,22,42.5,22c7.3,0,14.1,3.9,17.8,10.3l-8.9,5.1
			c-1.8-3.2-5.2-5.1-8.9-5.1c-5.7,0-10.3,4.6-10.3,10.3c0,5.7,4.6,10.3,10.3,10.3c3.7,0,7.1-2,8.9-5.1l8.9,5.1
			C56.6,59.1,49.8,63,42.5,63z"/>
	</g>
	<g>
		<polygon class="st3" points="63,41.4 60.7,41.4 60.7,39.1 58.5,39.1 58.5,41.4 56.2,41.4 56.2,43.6 58.5,43.6 58.5,45.9 
			60.7,45.9 60.7,43.6 63,43.6 		"/>
	</g>
	<g>
		<polygon class="st3" points="71.6,41.4 69.3,41.4 69.3,39.1 67,39.1 67,41.4 64.7,41.4 64.7,43.6 67,43.6 67,45.9 69.3,45.9 
			69.3,43.6 71.6,43.6 		"/>
	</g>
</g>
</svg>
