<?xml version="1.0" encoding="utf-8"?>
<!-- Generator: Adobe Illustrator 24.1.1, SVG Export Plug-In . SVG Version: 6.00 Build 0)  -->
<svg version="1.1" id="Layer_1" xmlns="http://www.w3.org/2000/svg" xmlns:xlink="http://www.w3.org/1999/xlink" x="0px" y="0px"
	 viewBox="0 0 100 100" style="enable-background:new 0 0 100 100;" xml:space="preserve">
<style type="text/css">
	.st0{fill:#7AC3FF;}
</style>
<g>
	<g>
		<path class="st0" d="M86.6,55.8c5.3,0,9.6-4.3,9.6-9.6V15.3c0-5.3-4.3-9.6-9.6-9.6H75c-2.2,0-4.2,0.7-5.8,1.9v48.1h17.4V55.8z"/>
	</g>
</g>
<g>
	<g>
		<path class="st0" d="M3.8,41.3c0,2.3,0.9,4.5,2.5,6.1c-1.8,2-2.7,4.6-2.5,7.3c0.5,4.9,4.9,8.7,10,8.7h23.8
			c-1.2,3.6-3.1,10.1-3.1,15.4c0,8.4,7.1,15.4,11.6,15.4c4,0,6.9-2.3,7-2.3c0.5-0.4,0.7-0.9,0.7-1.5v-13l11.1-24l0.5-0.2V11.8
			c-3.1-1.5-7.1-2.3-9.6-2.3H20.4c-4.2,0-7.9,2.8-8.7,6.7c-0.4,2-0.2,4,0.7,5.8c-2.8,1.4-4.8,4.4-4.8,7.7c0,1.4,0.3,2.7,0.9,3.9
			C5.7,35.1,3.8,38,3.8,41.3z"/>
	</g>
</g>
</svg>
