<?xml version="1.0" encoding="utf-8"?>
<!-- Generator: Adobe Illustrator 24.1.1, SVG Export Plug-In . SVG Version: 6.00 Build 0)  -->
<svg version="1.1" id="Layer_1" xmlns="http://www.w3.org/2000/svg" xmlns:xlink="http://www.w3.org/1999/xlink" x="0px" y="0px"
	 viewBox="0 0 100 100" style="enable-background:new 0 0 100 100;" xml:space="preserve">
<style type="text/css">
	.st0{fill:#4C4C4C;stroke:#4C4C4C;stroke-width:2;stroke-miterlimit:10;}
</style>
<g>
	<g>
		<g>
			<path class="st0" d="M4.3,41.4c0,2.3,0.9,4.4,2.5,6C5,49.3,4.1,52,4.4,54.7c0.4,4.8,4.8,8.6,9.9,8.6h23.5c-1.2,3.5-3,10-3,15.2
				c0,8.3,7,15.2,11.4,15.2c3.9,0,6.8-2.2,6.9-2.3c0.5-0.4,0.7-0.9,0.7-1.5V77l11-23.7l0.5-0.2v0.7c0,1.1,0.9,1.9,1.9,1.9h19
				c5.2,0,9.5-4.3,9.5-9.5V15.8c0-5.2-4.3-9.5-9.5-9.5H74.8c-4.1,0-7.6,2.6-9,6.3c-3.2-1.6-7.4-2.5-10.1-2.5H20.8
				c-4.1,0-7.8,2.8-8.6,6.6c-0.4,2-0.2,4,0.7,5.7c-2.8,1.4-4.7,4.3-4.7,7.6c0,1.3,0.3,2.6,0.9,3.8C6.2,35.2,4.3,38.1,4.3,41.4z
				 M12.4,36.7c0.7-0.1,1.4-0.6,1.6-1.3c0.2-0.7,0-1.5-0.5-2c-1-0.9-1.5-2.1-1.5-3.4c0-2.4,1.8-4.4,4.2-4.7c0.7-0.1,1.4-0.6,1.6-1.3
				c0.2-0.7,0-1.5-0.5-2c-1.3-1.2-1.8-2.8-1.4-4.5c0.5-2.1,2.5-3.7,4.9-3.7h34.9c3.1,0,8.3,1.4,10.1,3.2c0.5,0.5,1.4,0.7,2.1,0.4
				c0.7-0.3,1.2-1,1.2-1.8c0-3.1,2.6-5.7,5.7-5.7h11.3c3.1,0,5.7,2.6,5.7,5.7v30.6c0,3.1-2.6,5.7-5.7,5.7H69V50
				c0-0.7-0.3-1.3-0.9-1.6c-0.6-0.3-1.3-0.4-1.8-0.1l-3.8,1.9c-0.4,0.2-0.7,0.5-0.9,0.9L50.2,75.8c-0.1,0.3-0.2,0.5-0.2,0.8v12.3
				c-0.8,0.4-2.2,1-3.8,1c-2.1,0-7.6-5.2-7.6-11.4c0-6.7,3.6-16.3,3.7-16.4c0.2-0.6,0.1-1.2-0.2-1.8c-0.4-0.5-0.9-0.8-1.6-0.8H14.3
				c-3.2,0-5.9-2.3-6.1-5.2C8,52.1,9,50.1,10.9,48.9c0.6-0.4,0.9-1,0.9-1.7s-0.4-1.3-1-1.6c-1.6-0.8-2.6-2.4-2.6-4.2
				C8.1,39,10,37,12.4,36.7z"/>
		</g>
	</g>
	<g>
		<g>
			<path class="st0" d="M67.1,51.9c1.1,0,1.9-0.9,1.9-1.9V15.8c0-1.1-0.9-1.9-1.9-1.9c-1,0-1.9,0.9-1.9,1.9V50
				C65.2,51.1,66.1,51.9,67.1,51.9z"/>
		</g>
	</g>
</g>
</svg>
