<?xml version="1.0" encoding="utf-8"?>
<!-- Generator: Adobe Illustrator 21.0.2, SVG Export Plug-In . SVG Version: 6.00 Build 0)  -->
<svg version="1.1" id="Layer_1" xmlns="http://www.w3.org/2000/svg" xmlns:xlink="http://www.w3.org/1999/xlink" x="0px" y="0px"
	 viewBox="0 0 75 75" style="enable-background:new 0 0 75 75;" xml:space="preserve">
<style type="text/css">
	.st0{fill:#606161;}
	.st1{fill:#4481C2;}
</style>
<g>
	<g>
		<path class="st0" d="M68.1,4.4H6.9c-2.6,0-4.7,2.1-4.7,4.7v38.8c0,0.6,0.5,1.2,1.2,1.2h68.3c0.6,0,1.2-0.5,1.2-1.2V9.1
			C72.8,6.5,70.7,4.4,68.1,4.4z M70.5,46.7H4.5V9.1c0-1.3,1.1-2.4,2.4-2.4h61.2c1.3,0,2.4,1.1,2.4,2.4V46.7z"/>
	</g>
</g>
<g>
	<g>
		<path class="st0" d="M71.6,46.7H3.4c-0.6,0-1.2,0.5-1.2,1.2v5.9c0,2.6,2.1,4.7,4.7,4.7h61.2c2.6,0,4.7-2.1,4.7-4.7v-5.9
			C72.8,47.3,72.3,46.7,71.6,46.7z M70.5,53.8c0,1.3-1.1,2.4-2.4,2.4H6.9c-1.3,0-2.4-1.1-2.4-2.4v-4.7h65.9L70.5,53.8L70.5,53.8z"/>
	</g>
</g>
<g>
	<g>
		<path class="st0" d="M41,51.4H34c-0.6,0-1.2,0.5-1.2,1.2s0.5,1.2,1.2,1.2H41c0.6,0,1.2-0.5,1.2-1.2S41.7,51.4,41,51.4z"/>
	</g>
</g>
<g>
	<g>
		<path class="st0" d="M66.9,9.1H8.1c-0.6,0-1.2,0.5-1.2,1.2v37.7c0,0.6,0.5,1.2,1.2,1.2h58.9c0.6,0,1.2-0.5,1.2-1.2V10.3
			C68.1,9.6,67.6,9.1,66.9,9.1z M65.7,46.7H9.3V11.4h56.5L65.7,46.7L65.7,46.7z"/>
	</g>
</g>
<g>
	<g>
		<path class="st0" d="M52.8,65.6H22.2c-1.9,0-3.5,1.6-3.5,3.5c0,1.9,1.6,3.5,3.5,3.5h30.6c1.9,0,3.5-1.6,3.5-3.5
			C56.3,67.2,54.7,65.6,52.8,65.6z M52.8,70.3H22.2c-0.6,0-1.2-0.5-1.2-1.2c0-0.6,0.5-1.2,1.2-1.2h30.6c0.6,0,1.2,0.5,1.2,1.2
			C54,69.8,53.5,70.3,52.8,70.3z"/>
	</g>
</g>
<g>
	<g>
		<path class="st0" d="M50.4,65.6c-3.9,0-5.9-2.8-5.9-8.2c0-0.6-0.5-1.2-1.2-1.2H31.6c-0.6,0-1.2,0.5-1.2,1.2c0,5.5-2,8.2-5.9,8.2
			c-0.6,0-1.2,0.5-1.2,1.2s0.5,1.2,1.2,1.2h25.9c0.6,0,1.2-0.5,1.2-1.2S51.1,65.6,50.4,65.6z M30.3,65.6c1.4-1.6,2.3-4,2.5-7.1h9.5
			c0.2,3.1,1,5.5,2.5,7.1H30.3z"/>
	</g>
</g>
<g>
	<g>
		<path class="st1" d="M58.4,39l-2.8-2.8l1.6-1.6c0.3-0.3,0.4-0.7,0.3-1.1c-0.1-0.4-0.4-0.7-0.8-0.8l-11.8-3.5
			c-0.4-0.1-0.9,0-1.2,0.3c-0.3,0.3-0.4,0.8-0.3,1.2L47,42.4c0.1,0.4,0.4,0.7,0.8,0.8c0.4,0.1,0.8,0,1.1-0.3l1.7-1.7l2.8,2.8
			c0.2,0.2,0.5,0.3,0.8,0.3s0.6-0.1,0.8-0.3l3.3-3.3C58.9,40.3,58.9,39.5,58.4,39z M54.3,41.5L51.7,39c-0.3-0.3-0.7-0.4-1.1-0.4
			c-0.4,0-0.8,0.2-1.1,0.4l-0.8,0.8L46.3,32l7.8,2.3l-0.9,0.9c-0.3,0.3-0.4,0.6-0.4,0.9c0,0.4,0.1,0.7,0.4,0.9l2.7,2.7L54.3,41.5z"
			/>
	</g>
</g>
<g>
	<g>
		<path class="st1" d="M51.6,13.8h-33c-0.6,0-1.2,0.5-1.2,1.2v5.9c0,0.6,0.5,1.2,1.2,1.2h33c0.6,0,1.2-0.5,1.2-1.2V15
			C52.8,14.3,52.3,13.8,51.6,13.8z M50.4,19.7H19.8v-3.5h30.6V19.7z"/>
	</g>
</g>
<g>
	<g>
		<path class="st1" d="M32.8,26.7h-9.4c-0.6,0-1.2,0.5-1.2,1.2v4.7c0,0.6,0.5,1.2,1.2,1.2h9.4c0.6,0,1.2-0.5,1.2-1.2v-4.7
			C34,27.3,33.4,26.7,32.8,26.7z M31.6,31.4h-7.1v-2.4h7.1V31.4z"/>
	</g>
</g>
<g>
	<g>
		<path class="st1" d="M51.6,13.8h-33c-0.6,0-1.2,0.5-1.2,1.2v22.4c0,0.6,0.5,1.2,1.2,1.2h28c0.4,0,0.7-0.2,0.9-0.5
			c0.2-0.3,0.3-0.7,0.2-1l-1.5-5l5,1.5c0.4,0.1,0.7,0,1-0.2c0.3-0.2,0.5-0.6,0.5-0.9V15C52.8,14.3,52.3,13.8,51.6,13.8z M50.4,30.8
			l-5.5-1.7c-0.4-0.1-0.9,0-1.2,0.3c-0.3,0.3-0.4,0.8-0.3,1.2l1.7,5.5H19.8v-20h30.6V30.8z"/>
	</g>
</g>
</svg>
