<?xml version="1.0" encoding="utf-8"?>
<!-- Generator: Adobe Illustrator 21.0.2, SVG Export Plug-In . SVG Version: 6.00 Build 0)  -->
<svg version="1.1" id="Layer_1" xmlns="http://www.w3.org/2000/svg" xmlns:xlink="http://www.w3.org/1999/xlink" x="0px" y="0px"
	 viewBox="0 0 85 85" style="enable-background:new 0 0 85 85;" xml:space="preserve">
<style type="text/css">
	.st0{fill:#00ACD7;}
</style>
<g>
	<g>
		<g>
			<g>
				<path class="st0" d="M11.2,37c-0.1,0-0.2-0.1-0.1-0.2l0.8-1c0.1-0.1,0.3-0.2,0.4-0.2l12.9,0c0.1,0,0.2,0.1,0.1,0.2l-0.6,0.9
					c-0.1,0.1-0.2,0.2-0.4,0.2L11.2,37z"/>
			</g>
		</g>
	</g>
	<g>
		<g>
			<g>
				<path class="st0" d="M5.7,40.3c-0.1,0-0.2-0.1-0.1-0.2l0.8-1C6.5,39.1,6.7,39,6.8,39l16.4,0c0.1,0,0.2,0.1,0.2,0.2l-0.3,0.9
					c0,0.1-0.2,0.2-0.3,0.2L5.7,40.3z"/>
			</g>
		</g>
	</g>
	<g>
		<g>
			<g>
				<path class="st0" d="M14.5,43.6c-0.1,0-0.2-0.1-0.1-0.2l0.5-0.9c0.1-0.1,0.2-0.2,0.4-0.2l7.2,0c0.1,0,0.2,0.1,0.2,0.2l-0.1,0.9
					c0,0.1-0.1,0.2-0.3,0.2L14.5,43.6z"/>
			</g>
		</g>
	</g>
	<g>
		<g id="CXHf1q_3_">
			<g>
				<g>
					<path class="st0" d="M51.8,36.4c-2.3,0.6-3.8,1-6,1.6c-0.5,0.1-0.6,0.2-1.1-0.3c-0.5-0.6-0.9-1-1.7-1.4
						c-2.3-1.1-4.5-0.8-6.5,0.5c-2.4,1.6-3.7,3.9-3.7,6.9c0,2.9,2,5.3,4.9,5.7c2.4,0.3,4.5-0.5,6.1-2.4c0.3-0.4,0.6-0.8,1-1.3
						c-1.3,0-2.9,0-6.9,0c-0.8,0-0.9-0.5-0.7-1.1c0.5-1.1,1.3-3,1.8-3.9c0.1-0.2,0.4-0.6,0.9-0.6c1.8,0,8.6,0,13.1,0
						c-0.1,1-0.1,2-0.2,2.9c-0.4,2.6-1.4,5-3,7.1c-2.6,3.4-6,5.5-10.2,6.1c-3.5,0.5-6.8-0.2-9.7-2.4c-2.6-2-4.2-4.7-4.6-8
						c-0.5-3.9,0.7-7.4,3-10.5c2.6-3.3,5.9-5.5,10.1-6.2c3.4-0.6,6.6-0.2,9.5,1.8c1.9,1.3,3.3,3,4.2,5.1
						C52.4,36.1,52.2,36.3,51.8,36.4z"/>
				</g>
				<g>
					<path class="st0" d="M63.7,56.3c-3.3-0.1-6.3-1-8.8-3.2c-2.1-1.8-3.4-4.2-3.9-6.9c-0.6-4.1,0.5-7.7,2.9-10.9
						c2.6-3.4,5.8-5.3,10.1-6c3.7-0.7,7.1-0.3,10.2,1.9c2.9,1.9,4.6,4.6,5.1,8C80,44,78.6,48,75.2,51.4c-2.4,2.4-5.3,3.9-8.6,4.6
						C65.6,56.1,64.7,56.2,63.7,56.3z M72.3,41.7c0-0.5,0-0.8-0.1-1.2c-0.6-3.6-3.9-5.6-7.3-4.8c-3.4,0.7-5.5,2.9-6.3,6.3
						c-0.6,2.8,0.7,5.6,3.3,6.8c2,0.9,4,0.7,5.9-0.2C70.5,47.1,72.1,44.8,72.3,41.7z"/>
				</g>
			</g>
		</g>
	</g>
</g>
</svg>
