<?xml version="1.0" encoding="utf-8"?>
<!-- Generator: Adobe Illustrator 21.0.2, SVG Export Plug-In . SVG Version: 6.00 Build 0)  -->
<svg version="1.1" id="Layer_1" xmlns="http://www.w3.org/2000/svg" xmlns:xlink="http://www.w3.org/1999/xlink" x="0px" y="0px"
	 viewBox="0 0 100 100" style="enable-background:new 0 0 100 100;" xml:space="preserve">
<style type="text/css">
	.st0{fill:#FFFFFF;stroke:#D1D3D4;stroke-width:0.9937;stroke-miterlimit:10;}
	.st1{fill:#557EBF;}
	.st2{fill:#36A852;}
	.st3{fill:#F9BC15;}
	.st4{fill:#EA4535;}
</style>
<rect x="0.3" y="0.3" class="st0" width="99.4" height="99.4"/>
<g>
	<path class="st1" d="M89.6,50.9c0-2.7-0.2-5.5-0.7-8.2H50.8v15.5h21.8c-0.9,5-3.8,9.5-8.1,12.3v10.1h13
		C85.2,73.6,89.6,63.2,89.6,50.9z"/>
	<path class="st2" d="M50.8,90.4c10.9,0,20.1-3.6,26.8-9.7l-13-10.1c-3.6,2.5-8.3,3.9-13.7,3.9c-10.5,0-19.5-7.1-22.7-16.7H14.7
		v10.4C21.6,81.8,35.5,90.4,50.8,90.4z"/>
	<path class="st3" d="M28.1,57.7c-1.7-5-1.7-10.4,0-15.5V31.9H14.7C9,43.3,9,56.7,14.7,68.1L28.1,57.7z"/>
	<path class="st4" d="M50.8,25.6c5.8-0.1,11.3,2.1,15.5,6.1l0,0l11.5-11.5c-7.3-6.9-17-10.6-27-10.5c-15.3,0-29.2,8.6-36.1,22.3
		l13.4,10.4C31.3,32.7,40.3,25.6,50.8,25.6z"/>
</g>
</svg>
