<?xml version="1.0" encoding="utf-8"?>
<!-- Generator: Adobe Illustrator 21.0.2, SVG Export Plug-In . SVG Version: 6.00 Build 0)  -->
<svg version="1.1" id="Layer_1" xmlns="http://www.w3.org/2000/svg" xmlns:xlink="http://www.w3.org/1999/xlink" x="0px" y="0px"
	 viewBox="0 0 85 85" style="enable-background:new 0 0 85 85;" xml:space="preserve">
<style type="text/css">
	.st0{fill:#507997;}
	.st1{fill:#F58220;}
</style>
<g>
	<path class="st0" d="M35.2,45.4c0,0-2,1.2,1.4,1.6c4.1,0.5,6.3,0.4,10.8-0.4c0,0,1.2,0.8,2.9,1.4C40.1,52.3,27.2,47.6,35.2,45.4z
		 M33.9,39.7c0,0-2.2,1.7,1.2,2c4.4,0.4,7.9,0.5,14-0.7c0,0,0.8,0.9,2.1,1.3C38.9,46,25.1,42.7,33.9,39.7L33.9,39.7z M58,49.6
		c0,0,1.5,1.2-1.7,2.2c-5.8,1.7-24.5,2.3-29.7,0c-1.8-0.8,1.7-1.9,2.8-2.1c1.1-0.3,1.7-0.3,1.7-0.3c-2-1.4-13.3,2.9-5.8,4.1
		C46.2,57,63.4,52.1,58,49.6L58,49.6z M36.1,33.8c0,0-9.5,2.3-3.4,3.1c2.6,0.3,7.8,0.3,12.6-0.1c3.9-0.3,7.9-1,7.9-1
		s-1.4,0.6-2.4,1.2c-9.7,2.5-28.3,1.4-22.9-1.2C32.4,33.5,36.1,33.8,36.1,33.8z M53.2,43.3c9.8-5.1,5.2-9.9,2.1-9.3
		c-0.8,0.2-1.1,0.3-1.1,0.3s0.3-0.5,0.9-0.7c6.2-2.2,11.1,6.5-2,9.9C53,43.5,53.1,43.5,53.2,43.3L53.2,43.3z M37.1,57.1
		c9.4,0.6,23.8-0.3,24.2-4.8c0,0-0.7,1.7-7.8,3.1c-8,1.5-18,1.3-23.8,0.3C29.7,55.7,30.9,56.7,37.1,57.1L37.1,57.1z"/>
	<path class="st1" d="M47.2,5c0,0,5.4,5.5-5.1,13.8c-8.5,6.7-1.9,10.6,0,14.9c-5-4.4-8.5-8.4-6.1-12C39.5,16.2,49.4,13.6,47.2,5z
		 M44.4,30c2.5,2.9-0.7,5.5-0.7,5.5s6.5-3.3,3.5-7.4c-2.7-3.9-4.8-5.8,6.5-12.4C53.8,15.7,35.9,20.2,44.4,30L44.4,30z"/>
	<path class="st0" d="M39.9,75.7v-8.5c0-2.2-1.2-3.7-4.3-3.7c-1.7,0-3.2,0.4-4.5,1l0.4,1.6c1-0.3,2.2-0.7,3.5-0.7
		c1.7,0,2.4,0.7,2.4,2.1v1.1h-0.9c-4.2,0-6.1,1.6-6.1,4.1c0,2.1,1.3,3.3,3.7,3.3c1.5,0,2.6-0.7,3.7-1.6l0.2,1.3L39.9,75.7L39.9,75.7
		z M37.5,72.9c-0.9,0.8-1.8,1.2-2.7,1.2c-1.1,0-1.8-0.7-1.8-1.9s0.7-2.1,3.5-2.1h1V72.9L37.5,72.9z M48.1,75.7h-3.1l-3.7-11.9H44
		l2.3,7.3l0.5,2.2c1.1-3.1,2-6.4,2.4-9.5h2.6C51.1,67.7,49.9,72,48.1,75.7L48.1,75.7z M62.3,75.7v-8.5c0-2.2-1.2-3.7-4.3-3.7
		c-1.7,0-3.2,0.4-4.5,1l0.3,1.6c1-0.3,2.3-0.7,3.6-0.7c1.7,0,2.4,0.7,2.4,2.1v1.1h-0.9c-4.2,0-6.1,1.6-6.1,4.1
		c0,2.1,1.2,3.3,3.6,3.3c1.6,0,2.7-0.7,3.8-1.6l0.2,1.3L62.3,75.7L62.3,75.7z M59.8,72.9c-0.9,0.8-1.8,1.2-2.7,1.2
		c-1.1,0-1.8-0.7-1.8-1.9s0.7-2.1,3.5-2.1h1L59.8,72.9L59.8,72.9z M27.8,77.7c-0.7,1-1.7,1.8-3.1,2.3l-1.1-1.4
		c0.9-0.5,1.7-1.3,2.1-2c0.3-0.6,0.4-1.5,0.4-3.5V59.5h2.6v13.4C28.8,75.6,28.5,76.7,27.8,77.7L27.8,77.7z"/>
</g>
</svg>
