<?xml version="1.0" encoding="utf-8"?>
<!-- Generator: Adobe Illustrator 21.0.2, SVG Export Plug-In . SVG Version: 6.00 Build 0)  -->
<svg version="1.1" id="Layer_1" xmlns="http://www.w3.org/2000/svg" xmlns:xlink="http://www.w3.org/1999/xlink" x="0px" y="0px"
	 viewBox="0 0 85 85" style="enable-background:new 0 0 85 85;" xml:space="preserve">
<style type="text/css">
	.st0{fill:#1B1918;}
	.st1{fill:#22619C;}
</style>
<g>
	<path class="st0" d="M76.1,53.8l3.9,0c0,0-7.3,9.9-7.9,10.7c-0.2,0.3-0.5,0.5-0.6,0.9c-0.4,0.9-0.8,2.8-0.8,2.8l-3.6,0
		c0,0,0.6-2,0.5-3.1c0-0.9-0.5-1.9-0.8-2.8c-0.3-0.9-0.6-2.8-0.6-2.8H70l0.5,2L76.1,53.8"/>
	<path class="st0" d="M68.7,55.9c0.7,0.4,1.2,2.8,1.2,2.8S66,58.8,64,58.8h-1.8L60,68.3h-3.3c0,0,2.1-10.3,2.5-12.1
		c0.2-0.6,1.1-0.5,2.6-0.5h2.5C66,55.6,67.9,55.4,68.7,55.9 M53.2,60.5c0,0,0.1-0.6-0.4-1.3c-0.4-0.6-0.7-0.7-1.8-0.8
		c-2.9-0.1-2.8,2-2.8,2L53.2,60.5z M56.4,58.1c0.4,1.5-0.4,5.1-0.4,5.1s-4.2-0.1-6.5,0c-0.7,0-1.6-0.1-1.8,0.3
		c-0.3,0.5,0.1,1.2,0.5,1.5c0.4,0.3,1.2,0.4,1.5,0.4c1.9,0.2,5.8,0.1,5.8,0.1l-0.7,3c0,0-5.5,0.3-8.3-0.4c-0.5-0.1-1.1-0.4-1.4-0.8
		c-0.1-0.1-0.2-0.2-0.3-0.4c-0.1-0.1-0.3-0.4-0.4-0.7c-0.6-1.7,0.1-4.9,0.8-6.6c0.1-0.2,0.2-0.5,0.3-0.7c0.1-0.3,0.2-0.6,0.4-0.7
		c0.1-0.1,0.2-0.2,0.2-0.3c0.1-0.1,0.2-0.2,0.3-0.4c0.3-0.3,0.5-0.5,0.9-0.8c1.2-0.9,3.2-1.5,5.7-1.3c0.9,0.1,2.4,0.4,3.1,1.4
		C56.2,57.2,56.3,57.7,56.4,58.1L56.4,58.1z M41.2,55.6l3.2,0c0,0-1.8,8.5-2.7,12.6H38c-2.6,0-4.9,0.3-5.9-1.5
		c-0.9-1.8,0-4.7,0.4-6.8c0.3-1.4,0.9-4.3,0.9-4.3l3.3,0c0,0-0.9,4.5-1.3,6.8c-0.1,0.8-0.4,1.6-0.1,2.2c0.3,0.6,0.7,0.6,1.9,0.6
		c0.4,0,1.7,0,1.7,0L41.2,55.6 M26.1,61.8c0.3-1.2,0.8-2.5,0.8-3.6c-0.1-1.2-1-2.2-1.7-2.4c-1.9-0.7-3.6,0.3-4.3,1
		c-0.9,1-1.2,2.1-1.5,3.7c-0.2,1.2-0.4,2.4,0,3.3c0.8,1.6,3.2,1.3,5.7,1.3C25.5,64,25.8,62.9,26.1,61.8L26.1,61.8z M30.6,57
		c0.4,2.7-1,5.6-2,8.2c1,0.1,1.9,0,1.9,0.1c0.1,0.1-0.7,3.1-0.9,3.1c-0.8,0-3.4,0-4.5,0c-3.5,0-6.9,0.2-8.5-1.5
		c-0.7-0.7-1.2-1.9-1.3-2.8c-0.2-1.4,0-3,0.4-4.3c0.3-1.2,0.7-2.3,1.3-3.3c1.5-2.6,4.1-4.5,8.4-4.1c0.8,0.1,2,0.5,2.8,0.9
		c0.1,0,0.2,0.2,0.3,0.2C29.5,54.1,30.4,55.6,30.6,57L30.6,57z M14.9,55.6c-0.2,1-0.4,2.1-0.7,3h-3.6c0.3-1.1,0.5-2.1,0.8-3.1
		C12.6,55.6,13.7,55.6,14.9,55.6 M10.6,59.6H14c-0.5,2.5-1.3,6.5-2,9.3c-0.4,1.8-0.7,3-1.9,4c-0.1,0.1-0.2,0-0.3,0.1
		c-0.2,0.2-1.2,0.4-1.8,0.5c-0.9,0.1-1.9,0-3,0c0.3-1.1,0.6-2.3,0.9-3.3c2.7,0.3,2.8-2.2,3.3-4.7C9.5,64,10.4,60.2,10.6,59.6"/>
	<g>
		<path class="st1" d="M61,39l-0.2,0.4c-2.9,5.6-7.9,9-15.1,9.1c-3.4,0.1-6.6-0.8-8.7-1.7c-4.5-2-8.3-5.8-10.4-9.8
			c-3-5.8-3.5-13.8,2.7-19.8c0.1,0-0.8,1.3-0.7,1.3L28.4,19C24,33,37.7,45,51.1,43.6C54.4,43.3,58.5,41.5,61,39"/>
		<path class="st1" d="M52.9,33.2c3.4,0,6.9-1.6,9-3.8c-1.8,4.6-7.1,7.6-14.2,6.7c-5.9-0.8-11.6-6.8-12.2-12.7
			c-0.4-4.4,1.1-6.9,3.6-10.1c-0.9,1.6-1.2,2.9-1.3,3.7C36.9,26.4,45.3,33.2,52.9,33.2"/>
		<path class="st1" d="M61.5,21.5C61,22.7,58,25,56.6,25.3c-5.3,1.1-8.7-1.4-10.4-4.2c-0.3-0.4-0.7-1.6-0.8-1.9
			c-0.7-2.3-0.4-5.9,1.7-7.7c-0.6,1.7-0.7,3.8-0.4,5.1c0.2,0.8,0.8,2.2,1.4,3c1.1,1.6,1.8,2,3.2,2.8c0.6,0.4,1.3,0.7,1.6,0.8
			C54.2,23.6,57,24.6,61.5,21.5"/>
	</g>
</g>
</svg>
