<?xml version="1.0" encoding="utf-8"?>
<!-- Generator: Adobe Illustrator 21.0.2, SVG Export Plug-In . SVG Version: 6.00 Build 0)  -->
<svg version="1.1" id="Layer_1" xmlns="http://www.w3.org/2000/svg" xmlns:xlink="http://www.w3.org/1999/xlink" x="0px" y="0px"
	 viewBox="0 0 85 85" style="enable-background:new 0 0 85 85;" xml:space="preserve">
<style type="text/css">
	.st0{fill:none;stroke:#414141;stroke-width:1.3672;stroke-miterlimit:10;}
	.st1{fill:#414141;}
</style>
<g>
	<path class="st0" d="M7.5,7.5h70v70h-70V7.5z"/>
	<path class="st1" d="M25.9,66l5.4-3.2c1,1.8,2,3.4,4.2,3.4c2.2,0,3.5-0.8,3.5-4.1V39.6h6.6v22.5c0,6.8-4,9.9-9.8,9.9
		C30.5,72,27.5,69.3,25.9,66"/>
	<path class="st1" d="M49.2,65.3l5.4-3.1c1.4,2.3,3.2,4,6.5,4c2.7,0,4.5-1.4,4.5-3.2c0-2.3-1.8-3.1-4.8-4.4L59,57.9
		c-4.7-2-7.9-4.6-7.9-9.9c0-4.9,3.8-8.7,9.6-8.7c4.2,0,7.2,1.5,9.4,5.3L65,47.8c-1.1-2-2.3-2.8-4.2-2.8c-1.9,0-3.1,1.2-3.1,2.8
		c0,2,1.2,2.8,4,4l1.6,0.7c5.6,2.4,8.7,4.8,8.7,10.3c0,5.9-4.7,9.2-10.9,9.2C55,72,51.1,69.1,49.2,65.3"/>
</g>
</svg>
