<?xml version="1.0" encoding="utf-8"?>
<!-- Generator: Adobe Illustrator 21.0.2, SVG Export Plug-In . SVG Version: 6.00 Build 0)  -->
<svg version="1.1" id="Layer_1" xmlns="http://www.w3.org/2000/svg" xmlns:xlink="http://www.w3.org/1999/xlink" x="0px" y="0px"
	 viewBox="0 0 85 85" style="enable-background:new 0 0 85 85;" xml:space="preserve">
<style type="text/css">
	.st0{fill:#61975A;}
	.st1{fill:#A8D381;}
	.st2{fill:#99B09A;}
	.st3{fill:#DAE7A0;}
	.st4{fill:#010101;}
	.st5{fill:#749F73;}
	.st6{fill:#709E61;}
</style>
<g>
	<path class="st0" d="M4.8,44.9c0-1.9,0-3.9,0-5.8c0-0.3,0-0.5,0-0.8c0-0.1,0.1-0.1,0.2-0.2c1.4-0.7,2.8-1.4,4.1-2
		C9.2,36,9.3,36,9.4,36c0.3,0,0.5,0.1,0.7,0.2c1.6,0.8,3.3,1.5,4.9,2.3c0.2,0.1,0.4,0.2,0.6,0.3c0.1,0.1,0.3,0.1,0.4,0
		c1.6-0.8,3.2-1.5,4.7-2.2c0.4-0.2,0.8-0.4,1.2-0.5c0.1,0,0.2-0.1,0.3-0.1c0.1,0,0.3,0.1,0.4,0.2c1,0.5,1.9,1,2.9,1.4
		c0.4,0.2,0.8,0.3,1.1,0.5c0.1,0,0.2,0.1,0.2,0.2c0,1.3,0,2.6,0,3.9c0,0.9,0,1.8,0,2.7c0,0.1-0.1,0.1-0.2,0.2
		c-0.7,0.4-1.5,0.7-2.2,1.1c-2.7,1.4-5.5,2.8-8.2,4.1c-0.2,0.1-0.4,0.1-0.7,0c-1.2-0.6-2.4-1.2-3.6-1.8c-2.3-1.2-4.6-2.3-6.8-3.4
		C4.9,45,4.8,45,4.8,44.9z"/>
	<path class="st1" d="M4.8,44.9c2.2,1.1,4.4,2.2,6.5,3.3c1.4,0.7,2.8,1.4,4.3,2.2c0.1,0.1,0.2,0.1,0.4,0c3.6-1.8,7.2-3.6,10.8-5.4
		c0,1.5,0,3,0,4.4c0,0.1-0.1,0.1-0.2,0.2c-3.5,1.8-7,3.5-10.5,5.3c-0.2,0.1-0.3,0.1-0.5,0c-2.8-1.4-5.5-2.8-8.3-4.2
		c-0.7-0.4-1.5-0.7-2.2-1.1c-0.1,0-0.2-0.1-0.2-0.2C4.8,47.8,4.8,46.4,4.8,44.9z"/>
	<path class="st2" d="M4.8,33.8c1.1-0.6,2.3-1.1,3.4-1.7c2.5-1.2,4.9-2.4,7.4-3.7c0.1-0.1,0.3-0.1,0.4,0c2.7,1.3,5.4,2.7,8.2,4
		c0.9,0.4,1.8,0.9,2.6,1.3c-0.7,0.3-1.4,0.7-2.1,1c-0.7,0.3-1.3,0.6-2,0.9c-0.2,0.1-0.3,0.2-0.5,0.2c-0.1,0-0.3,0-0.4-0.1
		c-0.1-0.1-0.2-0.1-0.4-0.2c-1.8-0.9-3.6-1.8-5.4-2.7c-0.2-0.1-0.3-0.1-0.5,0c-1.9,1-3.8,1.9-5.7,2.8C9.6,35.9,9.5,36,9.4,36
		c-0.4-0.1-0.8-0.3-1.1-0.5C7.1,35,5.9,34.4,4.8,33.8C4.8,33.9,4.8,33.9,4.8,33.8z"/>
	<path class="st3" d="M4.8,49.3c0.7,0.3,1.3,0.7,2,1c2.9,1.5,5.8,2.9,8.8,4.4c0.2,0.1,0.3,0.1,0.5,0c2.7-1.4,5.5-2.8,8.3-4.1
		c0.8-0.4,1.7-0.8,2.5-1.3c0,0.5,0,1,0,1.5c0,0.2-0.1,0.2-0.2,0.3c-2.1,1-4.2,2.1-6.3,3.2c-1.4,0.7-2.9,1.4-4.3,2.2
		c-0.1,0.1-0.2,0.1-0.4,0c-3-1.5-6-3-9-4.5c-0.5-0.3-1.1-0.6-1.6-0.8c-0.1-0.1-0.2-0.1-0.2-0.3C4.8,50.4,4.8,49.8,4.8,49.3z"/>
	<path class="st4" d="M40.2,42.3c0-1.2,0-2.3,0-3.5c0-0.2,0-0.2,0.2-0.2c1.7,0,3.3,0,5,0c0.2,0,0.2,0.1,0.2,0.2c0,0.3,0,0.6,0,0.9
		c0,0.2-0.1,0.2-0.2,0.2c-1.1,0-2.3,0-3.4,0c-0.2,0-0.3,0.1-0.3,0.3c0,0.4,0,0.7,0,1.1c0,0.2,0,0.2,0.2,0.2c1.1,0,2.1,0,3.2,0
		c0.2,0,0.2,0.1,0.2,0.2c0,0.3,0,0.6,0,0.9c0,0.2,0,0.2-0.2,0.2c-1,0-2.1,0-3.1,0c-0.2,0-0.3,0.1-0.3,0.3c0,0.4,0,0.9,0,1.4
		c0,0.2,0.1,0.2,0.2,0.2c1.2,0,2.4,0,3.6,0c0.2,0,0.3,0.1,0.2,0.3c0,0.3,0,0.6,0,0.9c0,0.1,0,0.2-0.2,0.2c-1.7,0-3.5,0-5.2,0
		c-0.2,0-0.2-0.1-0.2-0.2C40.2,44.6,40.2,43.5,40.2,42.3z"/>
	<path class="st4" d="M53.8,42.3c0-1.2,0-2.3,0-3.5c0-0.1,0-0.2,0.2-0.2c1.7,0,3.4,0,5,0c0.2,0,0.2,0,0.2,0.2c0,0.3,0,0.6,0,0.9
		c0,0.2-0.1,0.2-0.2,0.2c-1.1,0-2.3,0-3.4,0c-0.3,0-0.3,0-0.3,0.3c0,0.3,0,0.7,0,1c0,0.2,0,0.2,0.2,0.2c1,0,2.1,0,3.1,0
		c0.2,0,0.3,0,0.2,0.2c0,0.3,0,0.6,0,0.9c0,0.2-0.1,0.2-0.2,0.2c-1,0-2.1,0-3.1,0c-0.2,0-0.3,0-0.3,0.3c0,0.4,0,0.9,0,1.3
		c0,0.2,0.1,0.2,0.3,0.2c1.2,0,2.4,0,3.6,0c0.2,0,0.3,0.1,0.3,0.3c0,0.3,0,0.6,0,0.9c0,0.1,0,0.2-0.2,0.2c-1.7,0-3.5,0-5.2,0
		c-0.1,0-0.2,0-0.2-0.2C53.8,44.6,53.8,43.5,53.8,42.3z"/>
	<path class="st4" d="M49.6,44.1c0.5-1.8,1-3.5,1.5-5.3c0-0.1,0.1-0.2,0.2-0.2c0.4,0,0.8,0,1.2,0c0.2,0,0.2,0,0.2,0.2
		c-0.4,1.3-0.9,2.6-1.3,3.8c-0.4,1-0.7,2.1-1.1,3.1c-0.1,0.2-0.1,0.2-0.3,0.2c-0.4,0-0.7,0-1.1,0c-0.1,0-0.2,0-0.2-0.1
		c-0.7-2.2-1.5-4.4-2.3-6.7c0-0.1-0.1-0.2-0.1-0.4c-0.1-0.2,0-0.2,0.2-0.2c0.4,0,0.9,0,1.3,0c0.1,0,0.2,0,0.2,0.2
		c0.4,1.5,0.9,3.1,1.3,4.6C49.5,43.6,49.5,43.8,49.6,44.1z"/>
	<path class="st4" d="M33.9,42.3c0-1.2,0-2.3,0-3.5c0-0.2,0-0.2,0.2-0.2c0.4,0,0.8,0,1.2,0c0.2,0,0.2,0.1,0.2,0.2c0,1.9,0,3.7,0,5.6
		c0,0.2,0.1,0.2,0.2,0.2c1,0,2.1,0,3.1,0c0.2,0,0.3,0,0.3,0.2c0,0.3,0,0.6,0,1c0,0.1,0,0.2-0.2,0.2c-1.6,0-3.2,0-4.9,0
		c-0.2,0-0.2-0.1-0.2-0.2C33.9,44.6,33.9,43.5,33.9,42.3z"/>
	<path class="st4" d="M60.5,42.3c0-1.2,0-2.3,0-3.5c0-0.2,0-0.2,0.2-0.2c0.4,0,0.8,0,1.2,0c0.2,0,0.2,0.1,0.2,0.2c0,1.9,0,3.7,0,5.6
		c0,0.2,0,0.3,0.3,0.3c1,0,2.1,0,3.1,0c0.2,0,0.3,0.1,0.2,0.3c0,0.3,0,0.6,0,0.9c0,0.1,0,0.2-0.2,0.2c-1.6,0-3.2,0-4.9,0
		c-0.2,0-0.2-0.1-0.2-0.2C60.5,44.6,60.5,43.5,60.5,42.3z"/>
	<path class="st5" d="M4.8,33.8c0.3,0,0.5,0.2,0.8,0.3c1.2,0.6,2.5,1.2,3.7,1.7c0,0,0.1,0.1,0.1,0.1c0,0,0,0,0,0c0,0,0,0,0,0
		c-1,0.4-1.9,1-2.9,1.4c-0.6,0.3-1.1,0.6-1.7,0.8C4.8,36.8,4.8,35.3,4.8,33.8z"/>
	<path class="st5" d="M22.1,36c0.3-0.1,0.5-0.3,0.8-0.4c0.9-0.4,1.9-0.9,2.8-1.3c0.3-0.1,0.5-0.2,0.8-0.4c0.1,0,0.1-0.1,0.2,0
		c0,1.5,0,3,0,4.4c-1.5-0.7-2.9-1.4-4.4-2.2C22.3,36.1,22.2,36,22.1,36C22.1,36,22.1,36,22.1,36C22.1,36,22.1,36,22.1,36z"/>
	<path class="st6" d="M22.1,36C22.1,36,22.1,36,22.1,36c-0.3,0.1-0.5,0.2-0.8,0.4c-1.4,0.6-2.7,1.3-4.1,1.9
		c-0.5,0.2-0.9,0.4-1.4,0.6c-0.1,0.1-0.2,0.1-0.4,0c-1.4-0.6-2.7-1.3-4.1-1.9c-0.6-0.3-1.3-0.6-1.9-0.9c-0.1,0-0.2-0.1-0.2,0
		c0,0,0,0,0,0c0.1,0,0.2-0.1,0.3-0.1c1.9-1,3.9-1.9,5.8-2.9c0.1-0.1,0.3-0.1,0.4,0c1.9,1,3.9,1.9,5.8,2.9C21.9,35.9,22,36,22.1,36z"
		/>
	<path class="st4" d="M79.3,42.1c-0.1,0-0.1-0.1,0-0.1c0.7-0.4,0.8-1.3,0.6-2c-0.2-0.9-0.9-1.3-1.8-1.3c-1.2-0.1-2.5,0-3.7,0
		c-0.2,0-0.3,0-0.3,0.2c0,1.1,0,2.3,0,3.4c0,1.2,0,2.3,0,3.5c0,0.2,0,0.2,0.2,0.2c1,0,2,0,3,0c0.3,0,0.6,0,0.9-0.1
		c0.7-0.1,1.2-0.4,1.6-1C80.5,44.2,80.4,42.6,79.3,42.1z M75.8,39.9c0.3,0,0.6,0,0.9,0c0.4,0,0.8,0,1.2,0.1c0.4,0.1,0.6,0.4,0.5,0.8
		c0,0.5-0.3,0.7-0.9,0.7c-0.6,0-1.2,0-1.7,0c-0.1,0-0.2,0-0.2-0.2c0-0.4,0-0.8,0-1.3C75.7,40,75.7,39.9,75.8,39.9z M78.2,44.5
		c-0.2,0.1-0.3,0.1-0.5,0.1c-0.3,0-0.6,0-0.9,0c0,0,0,0,0,0c-0.3,0-0.6,0-1,0c-0.1,0-0.2,0-0.2-0.1c0-0.5,0-1.1,0-1.6
		c0-0.1,0-0.2,0.2-0.2c0.6,0,1.2,0,1.8,0c0.3,0,0.6,0.1,0.9,0.3C78.8,43.5,78.7,44.3,78.2,44.5z"/>
	<path class="st4" d="M72.8,40.7c-0.3-1.2-1.2-2.1-2.7-2.1c-1,0-2.1,0-3.1,0c-0.2,0-0.2,0.1-0.2,0.2c0,1.2,0,2.3,0,3.5
		c0,1.2,0,2.3,0,3.5c0,0.2,0,0.2,0.2,0.2c1,0,2,0,3.1,0c1.1,0,2-0.5,2.5-1.5C73.1,43.3,73.2,42,72.8,40.7z M71.2,43.7
		c-0.2,0.6-0.8,1-1.5,1c-0.4,0-0.8,0-1.2,0c-0.1,0-0.2,0-0.2-0.2c0-0.7,0-1.5,0-2.2c0-0.7,0-1.4,0-2.1c0-0.2,0.1-0.2,0.2-0.2
		c0.4,0,0.8,0,1.1,0c1,0,1.4,0.3,1.7,1.3C71.5,42,71.5,42.9,71.2,43.7z"/>
</g>
</svg>
