<?xml version="1.0" encoding="utf-8"?>
<!-- Generator: Adobe Illustrator 24.1.1, SVG Export Plug-In . SVG Version: 6.00 Build 0)  -->
<svg version="1.1" id="Layer_1" xmlns="http://www.w3.org/2000/svg" xmlns:xlink="http://www.w3.org/1999/xlink" x="0px" y="0px"
	 viewBox="0 0 512 512" style="enable-background:new 0 0 512 512;" xml:space="preserve">
<style type="text/css">
	.st0{fill:#FFFFFF;}
	.st1{fill:url(#SVGID_1_);}
	.st2{fill:url(#SVGID_2_);}
</style>
<rect class="st0" width="512" height="512"/>
<g>
	
		<linearGradient id="SVGID_1_" gradientUnits="userSpaceOnUse" x1="191.4046" y1="459.1292" x2="54.3911" y2="663.9128" gradientTransform="matrix(1 0 0 1 0 -354)">
		<stop  offset="0" style="stop-color:#1486E9"/>
		<stop  offset="1" style="stop-color:#06CFF1"/>
	</linearGradient>
	<path class="st1" d="M66,47.8h308.1c4.7,0,7.8,5.5,5.5,9.3l-188,297.7c-1.3,1.8-3.1,2.9-5.5,2.9h-60.2c-4.7,0-7.8-5.5-5.5-9.3
		l152-236.3c2.4-4.2-0.4-9.3-5.5-9.3H40.3c-4.7,0-7.8-5.1-5.5-9.3l25.7-42.5C61.8,48.9,63.8,47.8,66,47.8z"/>
	
		<linearGradient id="SVGID_2_" gradientUnits="userSpaceOnUse" x1="231.7149" y1="760.8382" x2="496.8351" y2="605.6081" gradientTransform="matrix(1 0 0 1 0 -354)">
		<stop  offset="3.968250e-02" style="stop-color:#1486E9"/>
		<stop  offset="1" style="stop-color:#06CFF1"/>
	</linearGradient>
	<path class="st2" d="M446,464.2H177c-4.7,0-7.8-5.1-5.5-9.3l196.7-311c1.3-2,3.1-2.9,5.5-2.9l60.4,0.9c4.7,0.2,7.7,5.5,5.1,9.3
		l-161,248.9c-2.4,4.2,0.5,9.3,5.5,9.3h188c4.7,0,7.8,5.1,5.5,9.3l-25.7,42.5C450.2,463,448.2,464.2,446,464.2z"/>
</g>
</svg>
