<?xml version="1.0" encoding="utf-8"?>
<!-- Generator: Adobe Illustrator 21.0.2, SVG Export Plug-In . SVG Version: 6.00 Build 0)  -->
<svg version="1.1" id="Layer_1" xmlns="http://www.w3.org/2000/svg" xmlns:xlink="http://www.w3.org/1999/xlink" x="0px" y="0px"
	 viewBox="0 0 85 85" style="enable-background:new 0 0 85 85;" xml:space="preserve">
<style type="text/css">
	.st0{fill:#01628B;}
	.st1{fill:#E38F25;}
</style>
<g>
	<path class="st0" d="M4.6,56.6h2.5v-9.9l3.9,8.6c0.5,1,1.1,1.4,2.3,1.4s1.8-0.4,2.3-1.4l3.9-8.6v9.9h2.5v-9.9c0-1-0.4-1.4-1.2-1.7
		c-1.9-0.6-3.2-0.1-3.7,1.2l-3.8,8.5l-3.7-8.5c-0.6-1.3-1.9-1.8-3.7-1.2c-0.8,0.2-1.2,0.7-1.2,1.7V56.6z M24,48.6h2.5V54
		c0,0.3,0.1,1,1.5,1c0.7,0,5.4,0,5.4,0v-6.5h2.5c0,0,0,8.8,0,8.9c0,2.2-2.7,2.7-4,2.7H24v-1.7l7.9,0c1.6-0.2,1.4-1,1.4-1.2v-0.7H28
		c-2.5,0-4-1.1-4.1-2.3C24,54.1,24,48.6,24,48.6L24,48.6z"/>
	<path class="st1" d="M37.8,56.6H45c0.8,0,1.7-0.2,2.3-0.5c1.1-0.5,1.6-1.2,1.6-2.1v-1.8c0-0.7-0.6-1.4-1.8-1.8
		C46.5,50.2,45.7,50,45,50h-3c-1,0-1.5-0.3-1.6-1c0-0.1,0-0.1,0-0.2v-1.1c0-0.1,0-0.1,0-0.2c0.1-0.5,0.4-0.7,1.3-0.7
		c0.1,0,0.2,0,0.2,0H49v-1.7h-7c-1,0-1.5,0.1-2,0.2c-1.5,0.5-2.1,1.2-2.1,2.5v1.5c0,1.1,1.3,2.1,3.4,2.3c0.2,0,0.5,0,0.7,0h2.6
		c0.1,0,0.2,0,0.3,0c0.8,0.1,1.1,0.2,1.4,0.5c0.1,0.1,0.2,0.3,0.2,0.4V54c0,0.2-0.1,0.4-0.4,0.6c-0.2,0.2-0.6,0.3-1.1,0.4
		c-0.1,0-0.2,0-0.3,0h-6.9L37.8,56.6L37.8,56.6z M64.5,53.7c0,1.7,1.3,2.7,3.8,2.9c0.2,0,0.5,0,0.7,0h6.5v-1.7H69
		c-1.5,0-2-0.4-2-1.2v-8.6h-2.5L64.5,53.7L64.5,53.7z M50.5,53.8v-5.9c0-1.5,1.1-2.4,3.2-2.7c0.2,0,0.4,0,0.7,0h4.7
		c0.2,0,0.5,0,0.7,0c2.1,0.3,3.2,1.2,3.2,2.7v5.9c0,1.2-0.5,1.9-1.5,2.3l2.5,2.2H61l-2-1.8l-2,0.1h-2.7c-0.5,0-0.9-0.1-1.5-0.2
		C51.3,56,50.5,55.2,50.5,53.8L50.5,53.8z M53.2,53.6c0,0.1,0,0.2,0,0.3C53.4,54.6,54,55,55,55h2.3l-2.1-1.9h2.9l1.8,1.6
		c0.3-0.2,0.6-0.5,0.6-0.8c0-0.1,0-0.2,0-0.2V48c0-0.1,0-0.1,0-0.2c-0.1-0.6-0.8-1-1.8-1H55c-1.1,0-1.8,0.5-1.8,1.2L53.2,53.6
		L53.2,53.6z"/>
	<g>
		<path class="st0" d="M77.8,42.3c-1.5,0-2.7,0.1-3.7,0.5c-0.3,0.1-0.7,0.1-0.8,0.5c0.2,0.2,0.2,0.4,0.3,0.6c0.2,0.4,0.6,0.9,1,1.2
			c0.4,0.3,0.8,0.6,1.2,0.9c0.8,0.5,1.6,0.7,2.3,1.2c0.4,0.3,0.9,0.6,1.3,0.9c0.2,0.2,0.3,0.4,0.6,0.5v0c-0.1-0.2-0.2-0.4-0.3-0.6
			l-0.6-0.6c-0.6-0.7-1.3-1.4-2-1.9c-0.6-0.4-1.9-1-2.2-1.7l0,0c0.4,0,0.9-0.2,1.3-0.3c0.7-0.2,1.2-0.1,1.9-0.3l0.9-0.3v-0.2
			c-0.3-0.4-0.6-0.8-1-1.1c-1-0.8-2-1.7-3.1-2.4c-0.6-0.4-1.4-0.6-2-1c-0.2-0.1-0.6-0.2-0.7-0.3c-0.3-0.4-0.5-1-0.8-1.5
			c-0.5-1.1-1.1-2.2-1.6-3.3c-0.3-0.8-0.5-1.5-1-2.2c-2-3.3-4.1-5.2-7.4-7.2c-0.7-0.4-1.6-0.6-2.4-0.8l-1.4-0.1
			c-0.3-0.1-0.6-0.5-0.9-0.7c-1.1-0.7-3.9-2.2-4.7-0.2c-0.5,1.2,0.8,2.5,1.2,3.1c0.3,0.4,0.7,0.9,1,1.4c0.2,0.3,0.2,0.7,0.3,1
			c0.3,0.9,0.6,1.8,1,2.6c0.2,0.4,0.4,0.8,0.7,1.2c0.2,0.2,0.4,0.3,0.5,0.7c-0.3,0.4-0.3,1-0.4,1.4c-0.7,2.2-0.4,4.8,0.6,6.4
			c0.3,0.5,1,1.5,2,1.1c0.9-0.4,0.7-1.4,0.9-2.4c0.1-0.2,0-0.4,0.1-0.5v0l0.8,1.6c0.6,0.9,1.6,1.9,2.5,2.6c0.5,0.3,0.8,0.9,1.4,1.1
			v0h0C64.3,43,64.2,43,64,42.8c-0.3-0.3-0.7-0.8-1-1.1c-0.8-1.1-1.5-2.3-2.1-3.5c-0.3-0.6-0.6-1.2-0.8-1.8
			c-0.1-0.2-0.1-0.6-0.3-0.7c-0.3,0.4-0.7,0.8-0.9,1.3c-0.3,0.8-0.4,1.8-0.5,2.9c-0.1,0,0,0-0.1,0c-0.6-0.1-0.8-0.8-1-1.3
			c-0.6-1.4-0.7-3.5-0.2-5.1c0.1-0.4,0.7-1.7,0.5-2.1c-0.1-0.4-0.5-0.6-0.7-0.9c-0.3-0.4-0.5-0.8-0.7-1.2c-0.5-1.1-0.7-2.2-1.2-3.3
			c-0.2-0.5-0.6-1-1-1.5c-0.4-0.5-0.8-0.9-1-1.5c-0.1-0.2-0.2-0.6-0.1-0.8c0-0.1,0.1-0.2,0.3-0.3c0.3-0.2,1,0.1,1.2,0.2
			c0.7,0.3,1.3,0.6,1.9,1c0.3,0.2,0.6,0.6,0.9,0.7h0.4c0.6,0.1,1.3,0,1.9,0.2c1,0.3,1.9,0.8,2.8,1.3c2.5,1.6,4.6,3.9,6,6.6
			c0.2,0.4,0.3,0.8,0.5,1.3c0.4,0.9,0.9,1.9,1.3,2.8c0.4,0.9,0.8,1.8,1.4,2.6c0.3,0.4,1.4,0.6,2,0.8c0.4,0.2,1,0.3,1.3,0.5
			c0.7,0.4,1.3,0.9,1.9,1.3C76.8,41.4,77.7,41.9,77.8,42.3L77.8,42.3z"/>
		<path class="st0" d="M58.2,25.7c-0.3,0-0.5,0-0.8,0.1v0h0c0.2,0.3,0.4,0.5,0.6,0.8l0.4,0.9l0,0c0.3-0.2,0.4-0.5,0.4-1
			c-0.1-0.1-0.1-0.3-0.2-0.4C58.6,25.9,58.4,25.8,58.2,25.7L58.2,25.7z"/>
	</g>
	<path class="st1" d="M76.7,54.9c0,1.1,0.9,1.8,1.8,1.8c1,0,1.8-0.7,1.8-1.8S79.6,53,78.6,53C77.6,53,76.7,53.8,76.7,54.9z M80,54.9
		c0,0.8-0.6,1.5-1.4,1.5c-0.8,0-1.4-0.6-1.4-1.5s0.6-1.5,1.4-1.5C79.4,53.4,80,54,80,54.9z M79.1,55.9h0.4L78.9,55
		c0.3,0,0.6-0.2,0.6-0.6c0-0.4-0.3-0.6-0.8-0.6h-0.8v2.1h0.4V55h0.3L79.1,55.9L79.1,55.9z M78.2,54.7v-0.6h0.4c0.2,0,0.5,0,0.5,0.3
		c0,0.3-0.2,0.3-0.5,0.3L78.2,54.7L78.2,54.7z"/>
</g>
</svg>
