<?xml version="1.0" encoding="utf-8"?>
<!-- Generator: Adobe Illustrator 21.0.2, SVG Export Plug-In . SVG Version: 6.00 Build 0)  -->
<svg version="1.1" id="Layer_1" xmlns="http://www.w3.org/2000/svg" xmlns:xlink="http://www.w3.org/1999/xlink" x="0px" y="0px"
	 viewBox="0 0 85 85" style="enable-background:new 0 0 85 85;" xml:space="preserve">
<style type="text/css">
	.st0{fill:#119A48;}
</style>
<g>
	<path class="st0" d="M18,50.7c-0.4,0-0.9-0.2-1.2-0.5L6.7,40.1V49c0,0.9-0.8,1.7-1.7,1.7c-0.9,0-1.7-0.8-1.7-1.7V36
		c0-0.7,0.4-1.3,1.1-1.6c0.6-0.3,1.4-0.1,1.9,0.4l10.1,10.1V36c0-0.9,0.8-1.7,1.7-1.7s1.7,0.8,1.7,1.7v13c0,0.7-0.4,1.3-1.1,1.6
		C18.4,50.6,18.2,50.7,18,50.7"/>
	<path class="st0" d="M25.9,34.3l-0.5,0.9l-3.6,6.6l-0.5,0.8l0.5,0.8l3.6,6.4l0.5,0.9h9.5l0.5-1l2.7-5.5l1.2-2.5H37l-6.9,0
		c-0.9,0-1.7,0.8-1.7,1.7s0.8,1.7,1.7,1.7l4.2,0l-1,2.1h-5.4l-2.7-4.7l2.7-4.9h5.7l1.3,2.7h3.4l-2.2-5.2l-0.5-1H25.9"/>
	<path class="st0" d="M43.1,34.3c-0.9,0-1.7,0.8-1.7,1.7v4.4h3.4V36C44.9,35.1,44,34.3,43.1,34.3"/>
	<path class="st0" d="M48.6,50.7c-0.2,0-0.4,0-0.7-0.1c-0.6-0.3-1.1-0.9-1.1-1.6V36c0-0.9,0.8-1.7,1.7-1.7s1.7,0.8,1.7,1.7v8.9
		l10.1-10.1c0.5-0.5,1.2-0.6,1.9-0.4c0.6,0.3,1.1,0.9,1.1,1.6v13c0,0.9-0.8,1.7-1.7,1.7c-0.9,0-1.7-0.8-1.7-1.7v-8.9L49.8,50.2
		C49.5,50.5,49,50.7,48.6,50.7"/>
	<path class="st0" d="M75.9,42.5l5.3-5.3c0.7-0.7,0.7-1.7,0-2.4c-0.7-0.7-1.7-0.7-2.4,0l-5.3,5.3l-5.3-5.3c-0.7-0.7-1.7-0.7-2.4,0
		c-0.7,0.7-0.7,1.7,0,2.4l5.3,5.3l-5.3,5.3c-0.7,0.7-0.7,1.7,0,2.4c0.3,0.3,0.8,0.5,1.2,0.5c0.4,0,0.9-0.2,1.2-0.5l5.3-5.3l5.3,5.3
		c0.3,0.3,0.8,0.5,1.2,0.5c0.4,0,0.9-0.2,1.2-0.5c0.7-0.7,0.7-1.7,0-2.4L75.9,42.5"/>
	<path class="st0" d="M43.1,50.7c-0.9,0-1.7-0.8-1.7-1.7v-7.1h3.4v7.1C44.9,49.9,44,50.7,43.1,50.7"/>
</g>
</svg>
