<?xml version="1.0" encoding="utf-8"?>
<!-- Generator: Adobe Illustrator 21.0.2, SVG Export Plug-In . SVG Version: 6.00 Build 0)  -->
<svg version="1.1" id="Layer_1" xmlns="http://www.w3.org/2000/svg" xmlns:xlink="http://www.w3.org/1999/xlink" x="0px" y="0px"
	 viewBox="0 0 85 85" style="enable-background:new 0 0 85 85;" xml:space="preserve">
<style type="text/css">
	.st0{clip-path:url(#SVGID_2_);}
	.st1{fill:url(#SVGID_3_);}
	.st2{clip-path:url(#SVGID_5_);}
	.st3{fill:url(#SVGID_6_);}
	.st4{clip-path:url(#SVGID_8_);}
	.st5{fill:url(#SVGID_9_);}
	.st6{fill:#689F63;}
	.st7{fill:#333333;}
	.st8{fill:url(#SVGID_10_);}
	.st9{fill:url(#SVGID_11_);}
	.st10{fill:url(#SVGID_12_);}
	.st11{fill:url(#SVGID_13_);}
	.st12{fill:url(#SVGID_14_);}
	.st13{fill:url(#SVGID_15_);}
	.st14{fill:url(#SVGID_16_);}
	.st15{fill:url(#SVGID_17_);}
	.st16{fill:url(#SVGID_18_);}
	.st17{fill:url(#SVGID_19_);}
	.st18{fill:url(#SVGID_20_);}
	.st19{fill:url(#SVGID_21_);}
	.st20{fill:url(#SVGID_22_);}
	.st21{fill:url(#SVGID_23_);}
	.st22{fill:url(#SVGID_24_);}
	.st23{fill:url(#SVGID_25_);}
	.st24{fill:url(#SVGID_26_);}
</style>
<g>
	<g>
		<g>
			<defs>
				<path id="SVGID_1_" d="M-124.9-298.4l-7.3,4.2c-0.3,0.2-0.4,0.5-0.4,0.8v8.5c0,0.3,0.2,0.6,0.4,0.8l7.3,4.2
					c0.3,0.2,0.6,0.2,0.9,0l7.3-4.2c0.3-0.2,0.4-0.5,0.4-0.8v-8.5c0-0.3-0.2-0.6-0.4-0.8l-7.3-4.2c-0.1-0.1-0.3-0.1-0.4-0.1
					S-124.8-298.5-124.9-298.4"/>
			</defs>
			<clipPath id="SVGID_2_">
				<use xlink:href="#SVGID_1_"  style="overflow:visible;"/>
			</clipPath>
			<g transform="translate(-78.306 -164.016)" class="st0">
				
					<linearGradient id="SVGID_3_" gradientUnits="userSpaceOnUse" x1="-455.5651" y1="562.2321" x2="-455.3557" y2="562.2321" gradientTransform="matrix(-50.7531 103.536 103.536 50.7531 -81216.8281 18824.4492)">
					<stop  offset="0.3" style="stop-color:#3F873F"/>
					<stop  offset="0.5" style="stop-color:#55934F"/>
					<stop  offset="0.8" style="stop-color:#5BAD46"/>
				</linearGradient>
				<path class="st1" d="M126.1,197.2L105.4,187l-10.6,21.7l20.7,10.2L126.1,197.2z"/>
			</g>
		</g>
	</g>
</g>
<g>
	<g>
		<g>
			<defs>
				<path id="SVGID_4_" d="M-132.5-284.3c0.1,0.1,0.2,0.2,0.3,0.2l6.3,3.6l1.1,0.6c0.2,0.1,0.3,0.1,0.5,0.1c0.1,0,0.1,0,0.2,0
					l7.6-14.2c-0.1-0.1-0.1-0.1-0.2-0.2l-4.8-2.8l-2.5-1.5c-0.1,0-0.2-0.1-0.2-0.1L-132.5-284.3z"/>
			</defs>
			<clipPath id="SVGID_5_">
				<use xlink:href="#SVGID_4_"  style="overflow:visible;"/>
			</clipPath>
			<g transform="translate(-78.306 -164.016)" class="st2">
				
					<linearGradient id="SVGID_6_" gradientUnits="userSpaceOnUse" x1="-453.9807" y1="554.8953" x2="-453.8449" y2="554.8953" gradientTransform="matrix(142.4074 -105.2221 -105.2221 -142.4074 123138.2188 31462.4336)">
					<stop  offset="0.57" style="stop-color:#3F873F"/>
					<stop  offset="0.72" style="stop-color:#609857"/>
					<stop  offset="1" style="stop-color:#76AC64"/>
				</linearGradient>
				<path class="st3" d="M93.4,200.2L108,220l19.3-14.3l-14.6-19.8L93.4,200.2z"/>
			</g>
		</g>
	</g>
</g>
<g>
	<g>
		<g>
			<defs>
				<path id="SVGID_7_" d="M-124.5-298.5c-0.1,0-0.2,0.1-0.4,0.1l-7.3,4.2l7.9,14.4c0.1,0,0.2-0.1,0.3-0.1l7.3-4.2
					c0.2-0.1,0.4-0.4,0.4-0.6L-124.5-298.5C-124.3-298.5-124.4-298.5-124.5-298.5L-124.5-298.5"/>
			</defs>
			<clipPath id="SVGID_8_">
				<use xlink:href="#SVGID_7_"  style="overflow:visible;"/>
			</clipPath>
			<g transform="translate(-78.306 -164.016)" class="st4">
				
					<linearGradient id="SVGID_9_" gradientUnits="userSpaceOnUse" x1="-451.2542" y1="555.9366" x2="-451.131" y2="555.9366" gradientTransform="matrix(129.8891 0 0 -129.8891 58715.6836 72412.9531)">
					<stop  offset="0.16" style="stop-color:#6DBE47"/>
					<stop  offset="0.38" style="stop-color:#78B461"/>
					<stop  offset="0.47" style="stop-color:#75AD65"/>
					<stop  offset="0.7" style="stop-color:#669E5A"/>
					<stop  offset="0.9" style="stop-color:#3F873F"/>
				</linearGradient>
				<path class="st5" d="M102.7,193.5v18.7h16v-18.7H102.7z"/>
			</g>
		</g>
	</g>
</g>
<g>
	<path class="st6" d="M42.1,66c-0.3,0-0.5-0.1-0.7-0.2L39,64.5c-0.3-0.2-0.2-0.3-0.1-0.3c0.5-0.2,0.6-0.2,1-0.5c0.1,0,0.1,0,0.2,0
		l1.8,1.1c0.1,0,0.2,0,0.2,0l6.9-4c0.1,0,0.1-0.1,0.1-0.2v-8c0-0.1,0-0.2-0.1-0.2l-6.9-4c-0.1,0-0.1,0-0.2,0l-6.9,4
		c-0.1,0-0.1,0.1-0.1,0.2v8c0,0.1,0,0.1,0.1,0.2l1.9,1.1c1,0.5,1.7-0.1,1.7-0.7v-7.9c0-0.1,0.1-0.2,0.2-0.2h0.9
		c0.1,0,0.2,0.1,0.2,0.2v7.9c0,1.4-0.8,2.2-2.1,2.2c-0.4,0-0.7,0-1.6-0.4l-1.8-1c-0.5-0.3-0.7-0.7-0.7-1.3v-8c0-0.5,0.3-1,0.7-1.3
		l6.9-4c0.4-0.2,1-0.2,1.5,0l6.9,4c0.4,0.3,0.7,0.7,0.7,1.3v8c0,0.5-0.3,1-0.7,1.3l-6.9,4C42.6,66,42.3,66,42.1,66"/>
	<path class="st6" d="M44.2,60.5c-3,0-3.7-1.4-3.7-2.6c0-0.1,0.1-0.2,0.2-0.2h0.9c0.1,0,0.2,0.1,0.2,0.2c0.1,0.9,0.5,1.4,2.4,1.4
		c1.5,0,2.1-0.3,2.1-1.1c0-0.4-0.2-0.8-2.4-1c-1.9-0.2-3.1-0.6-3.1-2.1c0-1.4,1.2-2.2,3.2-2.2c2.2,0,3.3,0.8,3.5,2.4
		c0,0.1,0,0.1-0.1,0.2c0,0-0.1,0.1-0.1,0.1h-0.9c-0.1,0-0.2-0.1-0.2-0.2c-0.2-1-0.7-1.3-2.2-1.3c-1.6,0-1.8,0.6-1.8,1
		c0,0.5,0.2,0.7,2.4,0.9c2.1,0.3,3.1,0.7,3.1,2.2C47.7,59.7,46.4,60.5,44.2,60.5 M52.6,52h0.2c0.2,0,0.2-0.1,0.2-0.2
		c0-0.2-0.1-0.2-0.2-0.2h-0.2L52.6,52z M52.4,51.4h0.5c0.2,0,0.5,0,0.5,0.4c0,0.3-0.2,0.3-0.3,0.4c0.2,0,0.2,0.1,0.2,0.3
		c0,0.1,0,0.3,0.1,0.4h-0.3c0-0.1-0.1-0.5-0.1-0.5c0-0.1-0.1-0.1-0.2-0.1h-0.3v0.6h-0.3V51.4z M51.7,52.1c0,0.6,0.5,1.1,1.1,1.1
		c0.6,0,1.1-0.5,1.1-1.1c0-0.6-0.5-1.1-1.1-1.1C52.3,51,51.7,51.5,51.7,52.1 M54.2,52.1c0,0.7-0.6,1.3-1.3,1.3
		c-0.7,0-1.3-0.6-1.3-1.3c0-0.8,0.6-1.3,1.3-1.3C53.6,50.8,54.2,51.4,54.2,52.1"/>
	<path class="st7" d="M20.6,34.7c0-0.3-0.2-0.6-0.4-0.8l-7.4-4.2c-0.1-0.1-0.3-0.1-0.4-0.1h-0.1c-0.1,0-0.3,0-0.4,0.1l-7.4,4.2
		c-0.3,0.2-0.4,0.5-0.4,0.8l0,11.4c0,0.2,0.1,0.3,0.2,0.4c0.1,0.1,0.3,0.1,0.4,0L9.1,44c0.3-0.2,0.4-0.5,0.4-0.8v-5.3
		c0-0.3,0.2-0.6,0.4-0.8l1.9-1.1c0.1-0.1,0.3-0.1,0.4-0.1c0.2,0,0.3,0,0.4,0.1l1.9,1.1c0.3,0.2,0.4,0.5,0.4,0.8v5.3
		c0,0.3,0.2,0.6,0.4,0.8l4.4,2.5c0.1,0.1,0.3,0.1,0.4,0c0.1-0.1,0.2-0.2,0.2-0.4L20.6,34.7z M55.3,40.6c0,0.1,0,0.2-0.1,0.2
		l-2.5,1.5c-0.1,0-0.2,0-0.2,0l-2.5-1.5c-0.1,0-0.1-0.1-0.1-0.2v-2.9c0-0.1,0-0.2,0.1-0.2l2.5-1.5c0.1,0,0.2,0,0.2,0l2.5,1.5
		c0.1,0,0.1,0.1,0.1,0.2L55.3,40.6z M56,19c-0.1-0.1-0.3-0.1-0.4,0c-0.1,0.1-0.2,0.2-0.2,0.4v11.3c0,0.1-0.1,0.2-0.2,0.3
		c-0.1,0.1-0.2,0.1-0.3,0L53,29.9c-0.3-0.2-0.6-0.2-0.9,0l-7.4,4.2c-0.3,0.2-0.4,0.5-0.4,0.8v8.5c0,0.3,0.2,0.6,0.4,0.8l7.4,4.3
		c0.3,0.2,0.6,0.2,0.9,0l7.4-4.3c0.3-0.2,0.4-0.5,0.4-0.8V22.2c0-0.3-0.2-0.6-0.5-0.8L56,19z M80.5,37.6c0.3-0.2,0.4-0.5,0.4-0.8
		v-2.1c0-0.3-0.2-0.6-0.4-0.8l-7.3-4.2c-0.3-0.2-0.6-0.2-0.9,0L64.9,34c-0.3,0.2-0.4,0.5-0.4,0.8v8.5c0,0.3,0.2,0.6,0.4,0.8l7.3,4.2
		c0.3,0.2,0.6,0.2,0.9,0l4.4-2.5c0.1-0.1,0.2-0.2,0.2-0.4c0-0.2-0.1-0.3-0.2-0.4l-7.4-4.3c-0.1-0.1-0.2-0.2-0.2-0.4v-2.7
		c0-0.2,0.1-0.3,0.2-0.4l2.3-1.3c0.1-0.1,0.3-0.1,0.4,0l2.3,1.3c0.1,0.1,0.2,0.2,0.2,0.4v2.1c0,0.2,0.1,0.3,0.2,0.4
		c0.1,0.1,0.3,0.1,0.4,0L80.5,37.6z"/>
	<path class="st6" d="M72.6,37.2c0.1,0,0.1,0,0.2,0l1.4,0.8c0.1,0,0.1,0.1,0.1,0.1v1.6c0,0.1,0,0.1-0.1,0.1l-1.4,0.8
		c-0.1,0-0.1,0-0.2,0L71.2,40c-0.1,0-0.1-0.1-0.1-0.1v-1.6c0-0.1,0-0.1,0.1-0.1L72.6,37.2z"/>
	<g>
		
			<linearGradient id="SVGID_10_" gradientUnits="userSpaceOnUse" x1="-677.0361" y1="397.562" x2="-676.8276" y2="397.562" gradientTransform="matrix(-50.7531 103.536 103.536 50.7531 -75485.9609 49948.3711)">
			<stop  offset="0.3" style="stop-color:#3E863D"/>
			<stop  offset="0.5" style="stop-color:#55934F"/>
			<stop  offset="0.8" style="stop-color:#5AAD45"/>
		</linearGradient>
		<path class="st8" d="M40.2,34.1l-7.3-4.2c-0.1-0.1-0.3-0.1-0.4-0.1s-0.3,0-0.4,0.1h0l-7.3,4.2c-0.3,0.2-0.4,0.5-0.4,0.8v8.5
			c0,0.3,0.2,0.6,0.4,0.8l7.3,4.2c0.3,0.2,0.6,0.2,0.9,0l7.3-4.2c0.3-0.2,0.4-0.5,0.4-0.8v-8.5C40.6,34.5,40.5,34.2,40.2,34.1z
			 M40.6,43.4c0,0.2-0.2,0.5-0.4,0.6L33,48.1c-0.1,0-0.1,0-0.2,0.1l0,0c0,0-0.1,0-0.1,0c0,0,0,0,0,0l0,0c0,0,0,0-0.1,0
			c-0.2,0-0.3,0-0.5-0.1l-1-0.6L25,44c-0.1-0.1-0.2-0.1-0.3-0.2l2.9-4.9L25,34.1l7.2-4.1c0.1-0.1,0.2-0.1,0.3-0.1l0,0c0,0,0,0,0.1,0
			c0,0,0,0,0,0h0c0.1,0,0.1,0,0.2,0l0,0l0,0c0.1,0,0.2,0,0.2,0.1l2.5,1.4l4.7,2.7c0.1,0,0.1,0.1,0.2,0.2L38,38.8L40.6,43.4
			L40.6,43.4C40.6,43.4,40.6,43.4,40.6,43.4z"/>
		
			<linearGradient id="SVGID_11_" gradientUnits="userSpaceOnUse" x1="-677.0361" y1="397.6422" x2="-676.8276" y2="397.6422" gradientTransform="matrix(-50.7531 103.536 103.536 50.7531 -75485.9609 49948.3711)">
			<stop  offset="0.3" style="stop-color:#3E863D"/>
			<stop  offset="0.5" style="stop-color:#55934F"/>
			<stop  offset="0.8" style="stop-color:#5AAD45"/>
		</linearGradient>
		<polygon class="st9" points="40.6,43.4 40.6,43.4 40.6,43.4 		"/>
		
			<linearGradient id="SVGID_12_" gradientUnits="userSpaceOnUse" x1="-677.0361" y1="397.5678" x2="-676.8276" y2="397.5678" gradientTransform="matrix(-50.7531 103.536 103.536 50.7531 -75485.9609 49948.3711)">
			<stop  offset="0.3" style="stop-color:#3E863D"/>
			<stop  offset="0.5" style="stop-color:#55934F"/>
			<stop  offset="0.8" style="stop-color:#5AAD45"/>
		</linearGradient>
		<path class="st10" d="M40.4,34.3c-0.1-0.1-0.1-0.1-0.2-0.2l-4.7-2.7L33,30c-0.1,0-0.1-0.1-0.2-0.1l0,0l5.2,8.9L40.4,34.3z"/>
		
			<linearGradient id="SVGID_13_" gradientUnits="userSpaceOnUse" x1="-675.4119" y1="390.4958" x2="-675.2791" y2="390.4958" gradientTransform="matrix(142.4074 -105.2221 -105.2221 -142.4074 137294.25 -15414.4404)">
			<stop  offset="0.57" style="stop-color:#3E863D"/>
			<stop  offset="0.72" style="stop-color:#619857"/>
			<stop  offset="1" style="stop-color:#76AC64"/>
		</linearGradient>
		<path class="st11" d="M40.4,34.3c-0.1-0.1-0.1-0.1-0.2-0.2l-4.7-2.7L33,30c-0.1,0-0.1-0.1-0.2-0.1l0,0l5.2,8.9L40.4,34.3z"/>
		
			<linearGradient id="SVGID_14_" gradientUnits="userSpaceOnUse" x1="-677.0361" y1="397.5593" x2="-676.8276" y2="397.5593" gradientTransform="matrix(-50.7531 103.536 103.536 50.7531 -75485.9609 49948.3711)">
			<stop  offset="0.3" style="stop-color:#3E863D"/>
			<stop  offset="0.5" style="stop-color:#55934F"/>
			<stop  offset="0.8" style="stop-color:#5AAD45"/>
		</linearGradient>
		<path class="st12" d="M24.7,43.7c0.1,0.1,0.2,0.2,0.3,0.2l6.2,3.6l1,0.6c0.2,0.1,0.3,0.1,0.5,0.1c0,0,0,0,0.1,0l-5.1-9.4
			L24.7,43.7z"/>
		
			<linearGradient id="SVGID_15_" gradientUnits="userSpaceOnUse" x1="-675.4119" y1="390.4716" x2="-675.2791" y2="390.4716" gradientTransform="matrix(142.4074 -105.2221 -105.2221 -142.4074 137294.25 -15414.4404)">
			<stop  offset="0.57" style="stop-color:#3E863D"/>
			<stop  offset="0.72" style="stop-color:#619857"/>
			<stop  offset="1" style="stop-color:#76AC64"/>
		</linearGradient>
		<path class="st13" d="M24.7,43.7c0.1,0.1,0.2,0.2,0.3,0.2l6.2,3.6l1,0.6c0.2,0.1,0.3,0.1,0.5,0.1c0,0,0,0,0.1,0l-5.1-9.4
			L24.7,43.7z"/>
		
			<linearGradient id="SVGID_16_" gradientUnits="userSpaceOnUse" x1="-677.0361" y1="397.5995" x2="-676.8276" y2="397.5995" gradientTransform="matrix(-50.7531 103.536 103.536 50.7531 -75485.9609 49948.3711)">
			<stop  offset="0.3" style="stop-color:#3E863D"/>
			<stop  offset="0.5" style="stop-color:#55934F"/>
			<stop  offset="0.8" style="stop-color:#5AAD45"/>
		</linearGradient>
		<path class="st14" d="M32.8,48.2L32.8,48.2C32.8,48.2,32.8,48.2,32.8,48.2C32.8,48.2,32.8,48.2,32.8,48.2z"/>
		
			<linearGradient id="SVGID_17_" gradientUnits="userSpaceOnUse" x1="-675.4119" y1="390.4416" x2="-675.2791" y2="390.4416" gradientTransform="matrix(142.4074 -105.2221 -105.2221 -142.4074 137294.25 -15414.4404)">
			<stop  offset="0.57" style="stop-color:#3E863D"/>
			<stop  offset="0.72" style="stop-color:#619857"/>
			<stop  offset="1" style="stop-color:#76AC64"/>
		</linearGradient>
		<path class="st15" d="M32.8,48.2L32.8,48.2C32.8,48.2,32.8,48.2,32.8,48.2C32.8,48.2,32.8,48.2,32.8,48.2z"/>
		
			<linearGradient id="SVGID_18_" gradientUnits="userSpaceOnUse" x1="-677.0361" y1="397.5074" x2="-676.8276" y2="397.5074" gradientTransform="matrix(-50.7531 103.536 103.536 50.7531 -75485.9609 49948.3711)">
			<stop  offset="0.3" style="stop-color:#3E863D"/>
			<stop  offset="0.5" style="stop-color:#55934F"/>
			<stop  offset="0.8" style="stop-color:#5AAD45"/>
		</linearGradient>
		<path class="st16" d="M32.7,29.9c-0.1,0-0.1,0-0.2,0h0c0,0,0,0,0,0c0,0,0,0-0.1,0l0,0c-0.1,0-0.2,0-0.3,0.1L25,34.1l2.6,4.7
			L32.7,29.9L32.7,29.9z"/>
		
			<linearGradient id="SVGID_19_" gradientUnits="userSpaceOnUse" x1="-672.7715" y1="391.5589" x2="-672.651" y2="391.5589" gradientTransform="matrix(129.8891 0 0 -129.8891 87410.6641 50893.5977)">
			<stop  offset="0.16" style="stop-color:#6BBF47"/>
			<stop  offset="0.38" style="stop-color:#79B461"/>
			<stop  offset="0.47" style="stop-color:#75AC64"/>
			<stop  offset="0.7" style="stop-color:#659E5A"/>
			<stop  offset="0.9" style="stop-color:#3E863D"/>
		</linearGradient>
		<path class="st17" d="M32.7,29.9c-0.1,0-0.1,0-0.2,0h0c0,0,0,0,0,0c0,0,0,0-0.1,0l0,0c-0.1,0-0.2,0-0.3,0.1L25,34.1l2.6,4.7
			L32.7,29.9L32.7,29.9z"/>
		
			<linearGradient id="SVGID_20_" gradientUnits="userSpaceOnUse" x1="-677.0361" y1="397.6212" x2="-676.8276" y2="397.6212" gradientTransform="matrix(-50.7531 103.536 103.536 50.7531 -75485.9609 49948.3711)">
			<stop  offset="0.3" style="stop-color:#3E863D"/>
			<stop  offset="0.5" style="stop-color:#55934F"/>
			<stop  offset="0.8" style="stop-color:#5AAD45"/>
		</linearGradient>
		<path class="st18" d="M38,38.8l-5.1,9.4c0.1,0,0.1,0,0.2-0.1l7.2-4.2c0.2-0.1,0.4-0.3,0.4-0.6v0L38,38.8z"/>
		
			<linearGradient id="SVGID_21_" gradientUnits="userSpaceOnUse" x1="-672.7715" y1="391.4886" x2="-672.651" y2="391.4886" gradientTransform="matrix(129.8891 0 0 -129.8891 87410.6641 50893.5977)">
			<stop  offset="0.16" style="stop-color:#6BBF47"/>
			<stop  offset="0.38" style="stop-color:#79B461"/>
			<stop  offset="0.47" style="stop-color:#75AC64"/>
			<stop  offset="0.7" style="stop-color:#659E5A"/>
			<stop  offset="0.9" style="stop-color:#3E863D"/>
		</linearGradient>
		<path class="st19" d="M38,38.8l-5.1,9.4c0.1,0,0.1,0,0.2-0.1l7.2-4.2c0.2-0.1,0.4-0.3,0.4-0.6v0L38,38.8z"/>
		
			<linearGradient id="SVGID_22_" gradientUnits="userSpaceOnUse" x1="-677.0361" y1="397.5992" x2="-676.8276" y2="397.5992" gradientTransform="matrix(-50.7531 103.536 103.536 50.7531 -75485.9609 49948.3711)">
			<stop  offset="0.3" style="stop-color:#3E863D"/>
			<stop  offset="0.5" style="stop-color:#55934F"/>
			<stop  offset="0.8" style="stop-color:#5AAD45"/>
		</linearGradient>
		<path class="st20" d="M32.7,48.2C32.7,48.2,32.7,48.2,32.7,48.2C32.7,48.2,32.7,48.2,32.7,48.2L32.7,48.2z"/>
		
			<linearGradient id="SVGID_23_" gradientUnits="userSpaceOnUse" x1="-672.7715" y1="391.4522" x2="-672.651" y2="391.4522" gradientTransform="matrix(129.8891 0 0 -129.8891 87410.6641 50893.5977)">
			<stop  offset="0.16" style="stop-color:#6BBF47"/>
			<stop  offset="0.38" style="stop-color:#79B461"/>
			<stop  offset="0.47" style="stop-color:#75AC64"/>
			<stop  offset="0.7" style="stop-color:#659E5A"/>
			<stop  offset="0.9" style="stop-color:#3E863D"/>
		</linearGradient>
		<path class="st21" d="M32.7,48.2C32.7,48.2,32.7,48.2,32.7,48.2C32.7,48.2,32.7,48.2,32.7,48.2L32.7,48.2z"/>
		
			<linearGradient id="SVGID_24_" gradientUnits="userSpaceOnUse" x1="-677.0361" y1="397.5636" x2="-676.8276" y2="397.5636" gradientTransform="matrix(-50.7531 103.536 103.536 50.7531 -75485.9609 49948.3711)">
			<stop  offset="0.3" style="stop-color:#3E863D"/>
			<stop  offset="0.5" style="stop-color:#55934F"/>
			<stop  offset="0.8" style="stop-color:#5AAD45"/>
		</linearGradient>
		<path class="st22" d="M32.8,29.9l-5.2,8.9l5.1,9.4c0,0,0,0,0,0c0,0,0.1,0,0.1,0l5.1-9.4L32.8,29.9z"/>
		
			<linearGradient id="SVGID_25_" gradientUnits="userSpaceOnUse" x1="-675.4119" y1="390.483" x2="-675.2791" y2="390.483" gradientTransform="matrix(142.4074 -105.2221 -105.2221 -142.4074 137294.25 -15414.4404)">
			<stop  offset="0.57" style="stop-color:#3E863D"/>
			<stop  offset="0.72" style="stop-color:#619857"/>
			<stop  offset="1" style="stop-color:#76AC64"/>
		</linearGradient>
		<path class="st23" d="M32.8,29.9l-5.2,8.9l5.1,9.4c0,0,0,0,0,0c0,0,0.1,0,0.1,0l5.1-9.4L32.8,29.9z"/>
		
			<linearGradient id="SVGID_26_" gradientUnits="userSpaceOnUse" x1="-672.7715" y1="391.5226" x2="-672.651" y2="391.5226" gradientTransform="matrix(129.8891 0 0 -129.8891 87410.6641 50893.5977)">
			<stop  offset="0.16" style="stop-color:#6BBF47"/>
			<stop  offset="0.38" style="stop-color:#79B461"/>
			<stop  offset="0.47" style="stop-color:#75AC64"/>
			<stop  offset="0.7" style="stop-color:#659E5A"/>
			<stop  offset="0.9" style="stop-color:#3E863D"/>
		</linearGradient>
		<path class="st24" d="M32.8,29.9l-5.2,8.9l5.1,9.4c0,0,0,0,0,0c0,0,0.1,0,0.1,0l5.1-9.4L32.8,29.9z"/>
	</g>
</g>
</svg>
