<?xml version="1.0" encoding="utf-8"?>
<!-- Generator: Adobe Illustrator 21.0.2, SVG Export Plug-In . SVG Version: 6.00 Build 0)  -->
<svg version="1.1" id="Layer_1" xmlns="http://www.w3.org/2000/svg" xmlns:xlink="http://www.w3.org/1999/xlink" x="0px" y="0px"
	 viewBox="0 0 85 85" style="enable-background:new 0 0 85 85;" xml:space="preserve">
<style type="text/css">
	.st0{fill:#333333;}
</style>
<path class="st0" d="M5,56.6V28.4h6.9v2.5H8.2v23.2h3.6v2.5L5,56.6z M28.3,42.2c0,5.1-3.1,8.1-7.4,8.1s-7.1-3.3-7.1-7.8
	c0-4.7,3-8,7.3-8S28.3,37.9,28.3,42.2L28.3,42.2z M16.9,42.5c0,3.1,1.6,5.6,4.3,5.6s4.2-2.5,4.2-5.7c0-2.9-1.4-5.6-4.2-5.6
	S16.8,39.4,16.9,42.5L16.9,42.5z M30.7,35c1.3-0.2,2.7-0.3,4.1-0.3c1.5-0.2,3.1,0.2,4.4,1c1,0.6,1.6,1.7,1.6,2.9
	c0,1.5-1.1,2.9-2.5,3.3c1.8,0.4,3.1,2,3.1,3.8c0,1.2-0.5,2.4-1.5,3.2c-1.1,1-2.9,1.4-5.7,1.4c-1.2,0-2.3-0.1-3.4-0.2L30.7,35z
	 M33.5,41h1.4c1.9,0,3-0.9,3-2.2s-1.1-2.1-2.9-2.1c-0.5,0-1.1,0-1.6,0.1L33.5,41z M33.5,48.1c0.5,0.1,1,0.1,1.5,0.1
	c1.8,0,3.4-0.7,3.4-2.5c0-1.8-1.5-2.5-3.5-2.5h-1.4L33.5,48.1z M46.9,34.8h2.8v10c0,4.2-2.1,5.7-5.1,5.7c-0.8,0-1.6-0.1-2.4-0.4
	l0.3-2.3c0.6,0.2,1.1,0.3,1.7,0.3c1.6,0,2.5-0.7,2.5-3.4L46.9,34.8z M57.6,43.1V45h-5.8v-1.9L57.6,43.1z M71.2,49.7
	c-1.3,0.5-2.6,0.7-4,0.7c-4.9,0-7.8-3.1-7.8-7.7c-0.2-4.3,3-7.9,7.3-8.1c0.3,0,0.6,0,0.9,0c1.3-0.1,2.6,0.2,3.8,0.7l-0.6,2.2
	c-1-0.4-2-0.6-3-0.6c-3.1,0-5.4,2-5.4,5.7c0,3.4,2,5.5,5.4,5.5c1,0,2.1-0.2,3.1-0.6L71.2,49.7z M80,28.3v28.3h-6.9v-2.5h3.6V30.9
	h-3.6v-2.5L80,28.3z"/>
</svg>
