<?xml version="1.0" encoding="utf-8"?>
<!-- Generator: Adobe Illustrator 21.0.2, SVG Export Plug-In . SVG Version: 6.00 Build 0)  -->
<svg version="1.1" id="Layer_1" xmlns="http://www.w3.org/2000/svg" xmlns:xlink="http://www.w3.org/1999/xlink" x="0px" y="0px"
	 viewBox="0 0 85 85" style="enable-background:new 0 0 85 85;" xml:space="preserve">
<style type="text/css">
	.st0{fill:#666666;}
	.st1{fill:url(#SVGID_1_);}
	.st2{fill:url(#SVGID_2_);}
	.st3{opacity:0.444;fill:url(#SVGID_3_);enable-background:new    ;}
</style>
<g>
	<path class="st0" d="M21,67.4c0-2.8-0.8-4.2-2.4-4.2c-0.6,0-1.2,0.1-1.8,0.3c-0.5,0.1-0.8,0.3-0.9,0.5v6.5c1,0.6,1.9,0.9,2.7,0.9
		C20.2,71.2,21,69.9,21,67.4z M22.9,67.5c0,1.4-0.3,2.5-1,3.5c-0.7,1-1.7,1.6-3.1,1.6c-1,0-2-0.3-3-0.9v6L14.2,77V63.7
		c0.3-0.3,0.6-0.6,1-0.9c1-0.6,2.2-0.9,3.6-0.9c1.3,0,2.3,0.5,3,1.6C22.6,64.7,22.9,65.9,22.9,67.5L22.9,67.5z M33.2,71.4
		c0,1.9-0.2,3.2-0.5,3.9c-0.4,0.7-1.1,1.3-2.1,1.7c-0.9,0.3-1.8,0.5-2.8,0.5l-0.3-1c1-0.1,1.7-0.3,2.1-0.4c0.8-0.3,1.4-0.7,1.7-1.3
		c0.2-0.4,0.3-1.3,0.3-2.6v-0.4c-1.1,0.5-2.4,0.8-3.6,0.8c-0.8,0-1.6-0.2-2.2-0.8c-0.7-0.5-1-1.3-1-2.2v-7l1.7-0.6v7
		c0,0.7,0.2,1.3,0.7,1.7c0.5,0.4,1.1,0.6,1.9,0.6s1.6-0.3,2.5-0.9v-8.2h1.7L33.2,71.4z M39.7,72.5h-0.5c-0.9,0-1.7-0.2-2.2-0.7
		c-0.5-0.4-0.8-1.1-0.8-1.9v-6.6H35v-1h1.1v-2.8l1.7-0.6v3.4h1.9v1h-1.9v6.5c0,0.6,0.1,1.1,0.5,1.3c0.3,0.2,0.7,0.3,1.4,0.4
		L39.7,72.5z M50,72.3h-1.7v-6.5c0-0.6-0.1-1.2-0.4-1.7c-0.3-0.5-0.8-0.8-1.5-0.8c-0.8,0-1.7,0.4-2.9,1.2v7.8h-1.7V56.9l1.7-0.5v7
		c1.1-0.8,2.2-1.2,3.5-1.2c0.9,0,1.6,0.3,2.2,0.9c0.5,0.6,0.8,1.3,0.8,2.2L50,72.3z M58.9,67.1c0-1-0.2-1.9-0.6-2.6
		c-0.5-0.8-1.2-1.3-2.2-1.3c-1.8,0.1-2.8,1.4-2.8,4c0,1.2,0.2,2.1,0.6,2.9c0.5,1,1.2,1.5,2.2,1.5C57.9,71.4,58.9,70,58.9,67.1z
		 M60.7,67.1c0,1.5-0.4,2.8-1.1,3.8c-0.8,1.1-2,1.7-3.5,1.7c-1.5,0-2.6-0.5-3.5-1.7c-0.7-1-1.1-2.2-1.1-3.8c0-1.4,0.4-2.6,1.2-3.6
		c0.9-1,2-1.5,3.4-1.5s2.5,0.5,3.4,1.5C60.3,64.5,60.7,65.7,60.7,67.1z M70.4,72.3h-1.7v-6.8c0-0.7-0.2-1.3-0.7-1.7
		c-0.4-0.4-1-0.6-1.8-0.6c-0.8,0-1.6,0.3-2.3,0.8v8.5h-1.7v-8.7c0.9-0.7,1.8-1.2,2.7-1.4c0.8-0.2,1.4-0.3,2-0.3c0.4,0,0.8,0,1.1,0.1
		c0.6,0.1,1.2,0.4,1.6,0.8c0.4,0.4,0.7,1,0.7,1.7L70.4,72.3z"/>
	
		<linearGradient id="SVGID_1_" gradientUnits="userSpaceOnUse" x1="9461.6289" y1="28956.5332" x2="9463.9316" y2="28958.5137" gradientTransform="matrix(9.2563 0 0 9.3468 -87558.2344 -270642.375)">
		<stop  offset="0" style="stop-color:#5EA0D4"/>
		<stop  offset="1" style="stop-color:#326B9A"/>
	</linearGradient>
	<path class="st1" d="M41.5,7.5c-1.6,0-3.1,0.1-4.5,0.4c-4,0.7-4.7,2.1-4.7,4.9v3.6h9.3v1.2H28.9c-2.7,0-5.1,1.6-5.8,4.7
		c-0.8,3.6-0.9,5.8,0,9.5c0.6,2.8,2.2,4.7,5,4.7h3.2v-4.3c0-3.1,2.7-5.8,5.8-5.8h9.3c2.6,0,4.7-2.1,4.7-4.8v-8.9
		c0-2.5-2.1-4.4-4.7-4.9C44.8,7.6,43.1,7.4,41.5,7.5z M36.5,10.3c0.9,0,1.7,0.8,1.7,1.8s-0.8,1.8-1.7,1.8s-1.7-0.8-1.7-1.8
		S35.5,10.3,36.5,10.3z"/>
	
		<linearGradient id="SVGID_2_" gradientUnits="userSpaceOnUse" x1="9464.8262" y1="28959.7109" x2="9464.0039" y2="28958.5469" gradientTransform="matrix(9.2563 0 0 9.3468 -87558.2344 -270642.375)">
		<stop  offset="0" style="stop-color:#FFD540"/>
		<stop  offset="1" style="stop-color:#FEE977"/>
	</linearGradient>
	<path class="st2" d="M52.2,17.4v4.1c0,3.2-2.7,5.9-5.9,5.9h-9.3c-2.5,0-4.7,2.2-4.7,4.8V41c0,2.5,2.2,4,4.7,4.8
		c2.9,0.9,5.8,1,9.3,0c2.3-0.7,4.7-2,4.7-4.8v-3.6h-9.3v-1.2h14c2.7,0,3.7-1.9,4.7-4.7c1-2.9,0.9-5.7,0-9.5
		c-0.6-2.7-1.9-4.7-4.7-4.7L52.2,17.4z M46.9,39.9c0.9,0,1.7,0.8,1.7,1.8s-0.8,1.8-1.7,1.8s-1.7-0.8-1.7-1.8S46,39.9,46.9,39.9z"/>
	<path class="st0" d="M73.6,60.7h0.3v-1.8h0.7v-0.2h-1.7v0.2h0.7V60.7z M74.9,60.7h0.2V59l0.5,1.7H76l0.5-1.7v1.7h0.3v-2.1h-0.3
		l-0.6,1.8l-0.5-1.8h-0.4V60.7z"/>
	
		<radialGradient id="SVGID_3_" cx="-86954.5703" cy="15808.9316" r="0.6128" gradientTransform="matrix(0 -3.9477 17.3558 0 -274334.8438 -343219.1563)" gradientUnits="userSpaceOnUse">
		<stop  offset="0" style="stop-color:#B9B9B9;stop-opacity:0.498"/>
		<stop  offset="1" style="stop-color:#808181;stop-opacity:0"/>
	</radialGradient>
	<path class="st3" d="M54.3,51.8c0,1.3-5.6,2.4-12.5,2.4s-12.5-1.1-12.5-2.4c0-1.3,5.6-2.4,12.5-2.4S54.3,50.5,54.3,51.8L54.3,51.8z
		"/>
</g>
</svg>
