<?xml version="1.0" encoding="utf-8"?>
<!-- Generator: Adobe Illustrator 21.0.2, SVG Export Plug-In . SVG Version: 6.00 Build 0)  -->
<svg version="1.1" id="Layer_1" xmlns="http://www.w3.org/2000/svg" xmlns:xlink="http://www.w3.org/1999/xlink" x="0px" y="0px"
	 viewBox="0 0 85 85" style="enable-background:new 0 0 85 85;" xml:space="preserve">
<style type="text/css">
	.st0{fill:#54C1DE;}
</style>
<path class="st0" d="M67.5,30.3c-0.8-0.3-1.6-0.5-2.5-0.8c0.1-0.6,0.3-1.1,0.4-1.7c1.9-9.2,0.7-16.6-3.6-19
	c-4.1-2.3-10.7,0.1-17.4,5.9c-0.6,0.6-1.3,1.2-1.9,1.8c-0.4-0.4-0.9-0.8-1.3-1.2c-7-6.2-14-8.9-18.3-6.4c-4,2.3-5.2,9.3-3.5,18
	c0.2,0.8,0.4,1.7,0.6,2.6c-1,0.3-2,0.6-2.9,0.9c-8.2,2.9-13.5,7.4-13.5,12c0,4.8,5.6,9.6,14.2,12.6c0.7,0.2,1.4,0.4,2.1,0.7
	c-0.2,0.9-0.4,1.9-0.6,2.8C17.7,67,19,73.8,23,76.1c4.2,2.4,11.2-0.1,18-6c0.5-0.5,1.1-1,1.6-1.5c0.7,0.7,1.4,1.3,2.1,1.9
	c6.6,5.7,13.1,8,17.2,5.6c4.2-2.4,5.5-9.7,3.8-18.6c-0.1-0.7-0.3-1.4-0.5-2.1c0.5-0.1,1-0.3,1.4-0.5c8.9-3,14.7-7.7,14.7-12.6
	C81.3,37.8,75.9,33.2,67.5,30.3z M46.6,17.3c5.7-5,11.1-7,13.5-5.6c2.6,1.5,3.6,7.5,2,15.5c-0.1,0.5-0.2,1-0.3,1.5
	c-3.2-0.7-6.7-1.3-10.4-1.6c-2.1-3-4.3-5.8-6.6-8.2C45.5,18.3,46.1,17.8,46.6,17.3z M28.4,42.5c1-2.1,2.1-4.2,3.3-6.3l0,0
	c1.2-2.1,2.5-4.1,3.8-6c2.3-0.2,4.7-0.3,7.1-0.3h0c2.4,0,4.8,0.1,7.1,0.3c1.3,1.9,2.5,3.9,3.7,6c1.2,2.1,2.3,4.2,3.3,6.2
	c-1,2.1-2.1,4.2-3.3,6.3c-1.2,2.1-2.5,4.1-3.7,6c-2.3,0.2-4.7,0.2-7.1,0.2c-2.4,0-4.8-0.1-7-0.2c-1.3-1.9-2.6-3.9-3.8-6h0
	C30.5,46.7,29.4,44.6,28.4,42.5z M26.6,46.4c0.7,1.3,1.4,2.7,2.2,4h0c0.8,1.4,1.6,2.7,2.4,4c-2.5-0.3-4.9-0.7-7.2-1.2
	C24.8,51.1,25.6,48.8,26.6,46.4z M26.6,38.6c-1-2.3-1.8-4.5-2.5-6.7c2.2-0.5,4.6-0.9,7-1.2c-0.8,1.3-1.6,2.6-2.4,3.9v0
	C28,35.9,27.3,37.3,26.6,38.6z M56.2,50.4c0.8-1.4,1.5-2.7,2.3-4.1c1,2.4,1.9,4.7,2.6,6.8c-2.3,0.5-4.7,0.9-7.2,1.2
	C54.6,53.1,55.4,51.8,56.2,50.4z M58.4,38.6c-0.7-1.3-1.4-2.7-2.2-4c-0.8-1.3-1.6-2.6-2.4-3.9c2.5,0.3,4.9,0.7,7.1,1.2
	C60.2,34.1,59.4,36.3,58.4,38.6z M42.5,21.3c1.5,1.7,3.1,3.5,4.6,5.5c-1.5-0.1-3.1-0.1-4.6-0.1c-1.5,0-3.1,0-4.6,0.1
	C39.4,24.8,41,22.9,42.5,21.3z M24.6,11.8c2.6-1.5,8.3,0.6,14.4,6c0.4,0.3,0.8,0.7,1.2,1.1c-2.3,2.4-4.5,5.2-6.6,8.2
	c-3.7,0.3-7.1,0.9-10.4,1.6c-0.2-0.8-0.4-1.6-0.5-2.4C21.2,18.8,22.2,13.2,24.6,11.8z M20.9,52.5c-0.7-0.2-1.3-0.4-1.9-0.6
	c-3.8-1.3-6.9-3-9.1-4.8C8,45.4,7,43.8,7,42.4c0-2.8,4.2-6.4,11.2-8.9c0.9-0.3,1.7-0.6,2.7-0.8c1,3.2,2.2,6.5,3.8,9.8
	C23.1,45.9,21.8,49.3,20.9,52.5z M38.8,67.6c-3,2.6-6,4.5-8.7,5.4c-2.4,0.8-4.3,0.9-5.4,0.2c-2.4-1.4-3.5-6.9-2.1-14.2
	c0.2-0.8,0.3-1.7,0.6-2.6c3.2,0.7,6.7,1.2,10.5,1.5c2.1,3,4.4,5.8,6.7,8.2C39.8,66.7,39.3,67.2,38.8,67.6z M42.6,63.8
	c-1.6-1.7-3.1-3.6-4.7-5.6c1.5,0.1,3,0.1,4.5,0.1c1.6,0,3.1,0,4.7-0.1C45.7,60.3,44.1,62.2,42.6,63.8z M62.8,68.5
	c-0.5,2.5-1.4,4.2-2.5,4.8c-2.4,1.4-7.7-0.4-13.3-5.3c-0.6-0.6-1.3-1.2-2-1.8c2.2-2.4,4.4-5.2,6.5-8.3c3.8-0.3,7.3-0.9,10.5-1.6
	c0.2,0.6,0.3,1.3,0.4,1.9C63.2,62.1,63.3,65.7,62.8,68.5z M65.6,51.9c-0.4,0.1-0.9,0.3-1.3,0.4c-1-3.1-2.3-6.4-3.9-9.8
	c1.5-3.3,2.8-6.6,3.8-9.7c0.8,0.2,1.6,0.5,2.3,0.7c7.2,2.5,11.6,6.1,11.6,9C78,45.4,73.3,49.3,65.6,51.9z"/>
<path class="st0" d="M42.5,35.6c3.8,0,6.9,3.1,6.9,6.9c0,3.8-3.1,6.9-6.9,6.9s-6.9-3.1-6.9-6.9C35.6,38.7,38.7,35.6,42.5,35.6"/>
</svg>
