<?xml version="1.0" encoding="utf-8"?>
<!-- Generator: Adobe Illustrator 21.0.2, SVG Export Plug-In . SVG Version: 6.00 Build 0)  -->
<svg version="1.1" id="Layer_1" xmlns="http://www.w3.org/2000/svg" xmlns:xlink="http://www.w3.org/1999/xlink" x="0px" y="0px"
	 viewBox="0 0 85 85" style="enable-background:new 0 0 85 85;" xml:space="preserve">
<style type="text/css">
	.st0{fill:#CB2026;}
</style>
<g>
	<path class="st0" d="M37,51.6c0,0,3.4-0.3,3.4-4.7s-4.1-4.8-4.1-4.8h-7.4V56h3.7v-3.3l3.2,3.3h5.5L37,51.6z M35.6,48.8h-3v-3.2h3
		c0,0,0.8,0.3,0.8,1.6S35.6,48.8,35.6,48.8z M49.6,42.3h-3.8c-2.7,0-3.6,2.4-3.6,3.6V56H46v-2.4h3.5V56h3.7V45.9
		C53.2,42.9,50.5,42.3,49.6,42.3z M49.5,49.7H46v-3.4c0,0,0-0.8,1.2-0.8h1.3c1,0,1.1,0.8,1.1,0.8L49.5,49.7L49.5,49.7z M54.9,42.3
		h3.9V56h-3.9V42.3z M64.4,52.4V42.3h-3.9v10.2V56h3.9h5.3v-3.5H64.4z M71,52.5V56h6.3c1.3,0,3.5-0.9,3.6-3.6V51
		c0-2.3-1.9-3.6-3.6-3.6h-3.2v-1.6h6.3v-3.5h-6c-1.5,0-3.6,1.3-3.6,3.7v1.2c0,2.4,2.1,3.6,3.6,3.6c4.4,0-1,0,3,0v1.7L71,52.5z"/>
	<path class="st0" d="M5.5,56h15.3c0,0-2.9-13.3,6.8-18.7c2.1-1,8.8-4.9,19.8,3.3C47.7,40.2,48,40,48,40S38,29.9,26.8,31
		c-5.6,0.5-12.6,5.6-16.6,12.4S5.5,56,5.5,56z M37.3,32.1l0.1-1.3c-0.2-0.1-0.7-0.3-1.9-0.7l-0.1,1.3C36.1,31.6,36.7,31.9,37.3,32.1
		z M35.5,36.2l-0.1,1.2c0.6,0,1.3,0.1,1.9,0.2l0.1-1.2C36.8,36.4,36.1,36.3,35.5,36.2z M28.3,30.2h0.2L28.1,29c-0.6,0-1.2,0-1.9,0.1
		l0.4,1.1C27.2,30.2,27.8,30.2,28.3,30.2z M29.3,37.3l0.4,1.3c0.6-0.3,1.1-0.5,1.7-0.7L31,36.7C30.3,36.9,29.8,37.1,29.3,37.3z
		 M20.5,32.2l-0.9-1.3c-0.5,0.3-1,0.5-1.5,0.8l0.9,1.4C19.5,32.8,20,32.5,20.5,32.2z M24.4,40.9l0.9,1.4c0.3-0.5,0.7-0.9,1.1-1.4
		l-0.9-1.3C25.2,40,24.8,40.5,24.4,40.9z M21.6,47.2l1.6,1.2c0.1-0.8,0.2-1.5,0.4-2.3L22.2,45C22,45.8,21.8,46.5,21.6,47.2z
		 M13.2,38l-1.4-1.2c-0.5,0.5-1,1-1.4,1.5l1.5,1.3C12.2,39,12.7,38.5,13.2,38z M7.3,46.6l-2.2-0.8c-0.4,0.8-0.8,1.8-1,2.3L6.3,49
		C6.6,48.3,7,47.4,7.3,46.6z M21.4,52.1c0,1,0.1,1.9,0.2,2.4l2.3,0.8c-0.2-0.8-0.3-1.6-0.5-2.5L21.4,52.1z"/>
</g>
</svg>
