<?xml version="1.0" encoding="utf-8"?>
<!-- Generator: Adobe Illustrator 21.0.2, SVG Export Plug-In . SVG Version: 6.00 Build 0)  -->
<svg version="1.1" id="Layer_1" xmlns="http://www.w3.org/2000/svg" xmlns:xlink="http://www.w3.org/1999/xlink" x="0px" y="0px"
	 viewBox="0 0 100 100" style="enable-background:new 0 0 100 100;" xml:space="preserve">
<style type="text/css">
	.st0{fill:#FFFFFF;}
</style>
<rect x="0" width="100" height="100"/>
<path class="st0" d="M12.8,53c0,4.4,2.9,7.3,6.7,7.3c3.8,0,6.7-2.9,6.7-7.3V36.1h4.1v27.3h-4.1v-2.5c-1.8,1.9-4.4,3-7.2,3
	c-5.8,0-10.3-4.3-10.3-10.7V36.1h4.1C12.8,36.1,12.8,53,12.8,53z M34.3,63.4V36.1h3.9v9.9c1.9-1.9,4.4-3,7.1-3
	c5.8,0,10.5,4.6,10.5,10.4c0,5.7-4.6,10.4-10.5,10.4c-2.8,0-5.3-1.1-7.1-3v2.5H34.3z M38.1,53.5c0,3.8,3,6.9,6.9,6.9
	c3.7,0,6.8-3.1,6.8-6.9c0-3.9-3.1-6.9-6.8-6.9C41.2,46.6,38.1,49.6,38.1,53.5z M58.1,53.5c0-5.6,4.4-10.3,10.2-10.3
	c5.7,0,9.9,4.4,9.9,10.3v1.3H62.1c0.5,3.2,3.2,5.7,6.6,5.7c2.3,0,4.3-0.9,5.7-2.9l2.8,2.1c-2,2.7-5,4.3-8.6,4.3
	C62.7,63.8,58.1,59.4,58.1,53.5z M68.2,46.6c-2.9,0-5.4,2-6.1,5.1h12.1C73.6,48.6,71.1,46.6,68.2,46.6z M91.3,47h-1.6
	c-2.6,0-4.4,2-4.4,5.1v11.3h-3.9V43.5h3.9V46c1-1.6,2.6-2.6,4.8-2.6h1.4V47z"/>
</svg>
