<?xml version="1.0" encoding="utf-8"?>
<!-- Generator: Adobe Illustrator 24.1.1, SVG Export Plug-In . SVG Version: 6.00 Build 0)  -->
<svg version="1.1" id="Layer_1" xmlns="http://www.w3.org/2000/svg" xmlns:xlink="http://www.w3.org/1999/xlink" x="0px" y="0px"
	 viewBox="0 0 100 100" style="enable-background:new 0 0 100 100;" xml:space="preserve">
<style type="text/css">
	.st0{fill:#4C4C4C;stroke:#4C4C4C;stroke-width:2;stroke-miterlimit:10;}
</style>
<g>
	<g>
		<g>
			<path class="st0" d="M95.7,58.6c0-2.3-0.9-4.4-2.5-6c1.8-1.9,2.7-4.6,2.4-7.3c-0.4-4.8-4.8-8.6-9.9-8.6H62.2c1.2-3.5,3-10,3-15.2
				c0-8.3-7-15.2-11.4-15.2c-3.9,0-6.8,2.2-6.9,2.3c-0.5,0.4-0.7,0.9-0.7,1.5V23l-11,23.7l-0.5,0.2v-0.7c0-1.1-0.9-1.9-1.9-1.9h-19
				c-5.2,0-9.5,4.3-9.5,9.5v30.4c0,5.2,4.3,9.5,9.5,9.5h11.4c4.1,0,7.6-2.6,9-6.3c3.2,1.6,7.4,2.5,10.1,2.5h34.9
				c4.1,0,7.8-2.8,8.6-6.6c0.4-2,0.2-4-0.7-5.7c2.8-1.4,4.7-4.3,4.7-7.6c0-1.3-0.3-2.6-0.9-3.8C93.8,64.8,95.7,61.9,95.7,58.6z
				 M87.6,63.3c-0.7,0.1-1.4,0.6-1.6,1.3c-0.2,0.7,0,1.5,0.5,2c1,0.9,1.5,2.1,1.5,3.4c0,2.4-1.8,4.4-4.2,4.7
				c-0.7,0.1-1.4,0.6-1.6,1.3c-0.2,0.7,0,1.5,0.5,2c1.3,1.2,1.8,2.8,1.4,4.5c-0.5,2.1-2.5,3.7-4.9,3.7H44.3c-3.1,0-8.3-1.4-10.1-3.2
				c-0.5-0.5-1.4-0.7-2.1-0.4c-0.7,0.3-1.2,1-1.2,1.8c0,3.1-2.6,5.7-5.7,5.7H13.9c-3.1,0-5.7-2.6-5.7-5.7V53.8
				c0-3.1,2.6-5.7,5.7-5.7H31V50c0,0.7,0.3,1.3,0.9,1.6c0.6,0.3,1.3,0.4,1.8,0.1l3.8-1.9c0.4-0.2,0.7-0.5,0.9-0.9l11.4-24.7
				c0.1-0.3,0.2-0.5,0.2-0.8V11.1c0.8-0.4,2.2-1,3.8-1c2.1,0,7.6,5.2,7.6,11.4c0,6.7-3.6,16.3-3.7,16.4c-0.2,0.6-0.1,1.2,0.2,1.8
				c0.4,0.5,0.9,0.8,1.6,0.8h26.2c3.2,0,5.9,2.3,6.1,5.2c0.2,2.2-0.8,4.2-2.7,5.4c-0.6,0.4-0.9,1-0.9,1.7c0,0.7,0.4,1.3,1,1.6
				c1.6,0.8,2.6,2.4,2.6,4.2C91.9,61,90,63,87.6,63.3z"/>
		</g>
	</g>
	<g>
		<g>
			<path class="st0" d="M32.9,48.1c-1.1,0-1.9,0.9-1.9,1.9v34.2c0,1.1,0.9,1.9,1.9,1.9s1.9-0.9,1.9-1.9V50
				C34.8,48.9,33.9,48.1,32.9,48.1z"/>
		</g>
	</g>
</g>
</svg>
