<?xml version="1.0" encoding="utf-8"?>
<!-- Generator: Adobe Illustrator 24.1.1, SVG Export Plug-In . SVG Version: 6.00 Build 0)  -->
<svg version="1.1" id="Layer_1" xmlns="http://www.w3.org/2000/svg" xmlns:xlink="http://www.w3.org/1999/xlink" x="0px" y="0px"
	 viewBox="0 0 100 100" style="enable-background:new 0 0 100 100;" xml:space="preserve">
<style type="text/css">
	.st0{fill:#7AC3FF;}
</style>
<g>
	<g>
		<path class="st0" d="M13.4,44.1c-5.3,0-9.6,4.3-9.6,9.6v30.9c0,5.3,4.3,9.6,9.6,9.6H25c2.2,0,4.2-0.7,5.8-1.9V44.2H13.4V44.1z"/>
	</g>
</g>
<g>
	<g>
		<path class="st0" d="M96.2,58.6c0-2.3-0.9-4.5-2.5-6.1c1.8-2,2.7-4.6,2.5-7.3c-0.5-4.9-4.9-8.7-10-8.7H62.4
			c1.2-3.6,3.1-10.1,3.1-15.4c0-8.4-7.1-15.4-11.6-15.4c-4,0-6.9,2.3-7,2.3c-0.5,0.4-0.7,0.9-0.7,1.5v13l-11.1,24l-0.5,0.2v41.4
			c3.1,1.5,7.1,2.3,9.6,2.3h35.4c4.2,0,7.9-2.8,8.7-6.7c0.4-2,0.2-4-0.7-5.8c2.8-1.4,4.8-4.4,4.8-7.7c0-1.4-0.3-2.7-0.9-3.9
			C94.3,64.8,96.2,61.9,96.2,58.6z"/>
	</g>
</g>
</svg>
