<?xml version="1.0" encoding="utf-8"?>
<!-- Generator: Adobe Illustrator 24.1.1, SVG Export Plug-In . SVG Version: 6.00 Build 0)  -->
<svg version="1.1" id="Layer_1" xmlns="http://www.w3.org/2000/svg" xmlns:xlink="http://www.w3.org/1999/xlink" x="0px" y="0px"
	 viewBox="0 0 100 100" style="enable-background:new 0 0 100 100;" xml:space="preserve">
<style type="text/css">
	.st0{fill:#5A5A5A;}
</style>
<path class="st0" d="M65.8,26.2v45.5c0,8.8-7.1,15.8-15.8,15.8s-15.8-7.1-15.8-15.8V22.3c0-5.5,4.4-9.9,9.9-9.9s9.9,4.4,9.9,9.9
	v41.6c0,2.2-1.8,4-4,4s-4-1.8-4-4V26.2h-5.9v37.6c0,5.5,4.4,9.9,9.9,9.9s9.9-4.4,9.9-9.9V22.3c0-8.8-7.1-15.8-15.8-15.8
	s-15.8,7.1-15.8,15.8v49.5c0,12,9.7,21.8,21.8,21.8s21.8-9.7,21.8-21.8V26.2H65.8z"/>
</svg>
