<?xml version="1.0" encoding="utf-8"?>
<!-- Generator: Adobe Illustrator 24.1.1, SVG Export Plug-In . SVG Version: 6.00 Build 0)  -->
<svg version="1.1" id="Layer_1" xmlns="http://www.w3.org/2000/svg" xmlns:xlink="http://www.w3.org/1999/xlink" x="0px" y="0px"
	 viewBox="0 0 1024 768" style="enable-background:new 0 0 1024 768;" xml:space="preserve">
<style type="text/css">
	.st0{fill:#0E79C9;}
	.st1{fill:#1486E9;}
	.st2{fill:#FFFFFF;}
	.st3{fill:none;stroke:#1486E9;stroke-width:5;stroke-miterlimit:10;}
	.st4{fill:#BBD6EA;}
	.st5{fill:url(#SVGID_1_);}
	.st6{fill:url(#SVGID_2_);}
	.st7{fill:url(#SVGID_3_);}
	.st8{fill:url(#SVGID_4_);}
	.st9{fill:url(#SVGID_5_);}
	.st10{fill:url(#SVGID_6_);}
	.st11{fill:url(#SVGID_7_);}
	.st12{fill:url(#SVGID_8_);}
	.st13{fill:url(#SVGID_9_);}
	.st14{fill:url(#SVGID_10_);}
	.st15{fill:#EEFDFF;}
	.st16{fill:url(#SVGID_11_);}
	.st17{fill:url(#SVGID_12_);}
	.st18{fill:url(#SVGID_13_);}
	.st19{fill:url(#SVGID_14_);}
	.st20{fill:url(#SVGID_15_);}
	.st21{fill:url(#SVGID_16_);}
	.st22{fill:url(#SVGID_17_);}
	.st23{fill:url(#SVGID_18_);}
	.st24{fill:url(#SVGID_19_);}
	.st25{fill:url(#SVGID_20_);}
	.st26{fill:url(#SVGID_21_);}
	.st27{fill:url(#SVGID_22_);}
	.st28{fill:url(#SVGID_23_);}
	.st29{fill:url(#SVGID_24_);}
	.st30{fill:url(#SVGID_25_);}
	.st31{fill:url(#SVGID_26_);}
	.st32{fill:url(#SVGID_27_);}
	.st33{fill:url(#SVGID_28_);}
	.st34{fill:url(#SVGID_29_);}
	.st35{fill:url(#SVGID_30_);}
	.st36{fill:url(#SVGID_31_);}
	.st37{fill:url(#SVGID_32_);}
	.st38{fill:#A4F6FF;}
	.st39{fill:url(#SVGID_33_);}
	.st40{fill:url(#SVGID_34_);}
	.st41{fill:url(#SVGID_35_);}
	.st42{fill:url(#SVGID_36_);}
	.st43{fill:url(#SVGID_37_);}
	.st44{fill:url(#SVGID_38_);}
	.st45{fill:url(#SVGID_39_);}
	.st46{fill:url(#SVGID_40_);}
	.st47{fill:url(#SVGID_41_);}
	.st48{fill:url(#SVGID_42_);}
	.st49{fill:url(#SVGID_43_);}
	.st50{fill:url(#SVGID_44_);}
	.st51{fill:url(#SVGID_45_);}
	.st52{fill:url(#SVGID_46_);}
	.st53{fill:url(#SVGID_47_);}
	.st54{fill:url(#SVGID_48_);}
</style>
<g>
	
		<ellipse transform="matrix(0.3162 -0.9487 0.9487 0.3162 1153.9167 2108.1582)" class="st0" cx="2039.4" cy="253.6" rx="39.5" ry="39.5"/>
	<circle class="st0" cx="1691.4" cy="253.6" r="39.5"/>
	<path class="st1" d="M1777.2,365.7h256.9c3.7,0,6,4.1,4.1,7.2l-144.5,228.9c-0.9,1.4-2.4,2.3-4.1,2.3h-46.3c-3.7,0-6-4.1-4.1-7.2
		L1956,415.2c1.9-3.2-0.3-7.2-4.1-7.2h-194.6c-3.7,0-6-4-4.1-7.2l19.8-32.7C1774,366.6,1775.5,365.7,1777.2,365.7z"/>
	<path class="st1" d="M2083.5,686.1h-207c-3.7,0-6-4-4.1-7.2l151.2-239.1c0.9-1.4,2.5-2.3,4.1-2.3l46.5,0.7c3.7,0.1,5.9,4.1,4,7.2
		l-123.7,191.2c-1.9,3.2,0.4,7.2,4.1,7.2h144.6c3.7,0,6,4,4.1,7.2l-19.8,32.7C2086.7,685.3,2085.1,686.1,2083.5,686.1z"/>
	<path class="st1" d="M1696.6,143.1h337.3c2.6,0,4.8,2.1,4.8,4.8v221.4c0,2.6-2.1,4.8-4.8,4.8l-263.6,34.3h-73.8
		c-2.6,0-4.8-2.1-4.8-4.8V147.9C1691.8,145.3,1693.9,143.1,1696.6,143.1z"/>
	<path class="st2" d="M1991.3,301.5h-252.1c-3,0-5.4-2.4-5.4-5.4V212c0-3,2.4-5.4,5.4-5.4h252.1c3,0,5.4,2.4,5.4,5.4v84
		C1996.7,299,1994.3,301.5,1991.3,301.5z"/>
	<circle class="st1" cx="1795.4" cy="254" r="22.5"/>
	<circle class="st1" cx="1933.4" cy="254" r="22.5"/>
	<circle class="st1" cx="1864.4" cy="94.6" r="12.5"/>
	<line class="st3" x1="1863.9" y1="96.1" x2="1863.9" y2="149.1"/>
	<path class="st4" d="M1917.7,344.1c-57,59-105,0-105,0H1917.7z"/>
</g>
<g>
	<circle class="st0" cx="1564.1" cy="253.6" r="39.5"/>
	<circle class="st0" cx="1216.1" cy="253.6" r="39.5"/>
	<path class="st1" d="M1251.9,365.7h236.9c3.7,0,6,4.1,4.1,7.2l-144.5,228.9c-0.9,1.4-2.4,2.3-4.1,2.3H1298c-3.7,0-6-4.1-4.1-7.2
		l116.9-181.8c1.9-3.2-0.3-7.2-4.1-7.2h-174.6c-3.7,0-6-4-4.1-7.2l19.8-32.7C1248.7,366.5,1250.2,365.7,1251.9,365.7z"/>
	<path class="st1" d="M1538.2,686.1h-207c-3.7,0-6-4-4.1-7.2l151.2-239.1c0.9-1.5,2.5-2.3,4.1-2.3l46.5,0.7c3.7,0.1,5.9,4.1,4,7.2
		l-123.7,191.2c-1.9,3.2,0.4,7.2,4.1,7.2h144.6c3.7,0,6,4,4.1,7.2l-19.8,32.7C1541.4,685.2,1539.8,686.1,1538.2,686.1z"/>
	<path class="st1" d="M1221.3,143.1h337.3c2.6,0,4.8,2.1,4.8,4.8v251.4c0,2.6-2.1,4.8-4.8,4.8l-263.6,4.3h-73.8
		c-2.6,0-4.8-2.1-4.8-4.8V147.9C1216.5,145.2,1218.6,143.1,1221.3,143.1z"/>
	<path class="st2" d="M1516,301.4h-252.1c-3,0-5.4-2.4-5.4-5.4v-84.1c0-3,2.4-5.4,5.4-5.4H1516c3,0,5.4,2.4,5.4,5.4V296
		C1521.4,299,1519,301.4,1516,301.4z"/>
	<circle class="st1" cx="1320.1" cy="253.9" r="22.5"/>
	<circle class="st1" cx="1458.1" cy="253.9" r="22.5"/>
	<circle class="st1" cx="1389.1" cy="94.6" r="12.5"/>
	<line class="st3" x1="1388.6" y1="96.1" x2="1388.6" y2="149.1"/>
	<path class="st4" d="M1442.4,344.1c-57,59-105,0-105,0H1442.4z"/>
</g>
<g>
	<linearGradient id="SVGID_1_" gradientUnits="userSpaceOnUse" x1="-874.3578" y1="106.6605" x2="-841.459" y2="101.8628">
		<stop  offset="3.968250e-02" style="stop-color:#1486E9"/>
		<stop  offset="1" style="stop-color:#06CFF1"/>
	</linearGradient>
	<rect x="-857.5" y="67.4" class="st5" width="11" height="72"/>
	<linearGradient id="SVGID_2_" gradientUnits="userSpaceOnUse" x1="-881.576" y1="66.9986" x2="-838.038" y2="60.6493">
		<stop  offset="3.968250e-02" style="stop-color:#1486E9"/>
		<stop  offset="1" style="stop-color:#06CFF1"/>
	</linearGradient>
	<path class="st6" d="M-838,62.7c0,7.8-6.3,14.1-14.1,14.1s-14.1-6.3-14.1-14.1s6.3-14.1,14.1-14.1C-844.3,48.6-838,54.9-838,62.7z"
		/>
	<path class="st2" d="M-842.2,57.2c0,2.4-1.9,4.3-4.3,4.3s-4.3-1.9-4.3-4.3c0-2.4,1.9-4.3,4.3-4.3
		C-844.2,52.9-842.2,54.8-842.2,57.2z"/>
	<linearGradient id="SVGID_3_" gradientUnits="userSpaceOnUse" x1="-896.7277" y1="419.3817" x2="-1002.1398" y2="576.9332">
		<stop  offset="0" style="stop-color:#1486E9"/>
		<stop  offset="1" style="stop-color:#06CFF1"/>
	</linearGradient>
	<path class="st7" d="M-993.2,375.3h236.9c3.7,0,6,4.1,4.1,7.2l-144.6,229c-0.9,1.4-2.4,2.3-4.1,2.3h-46.3c-3.7,0-6-4.1-4.1-7.2
		l116.9-181.8c1.9-3.2-0.3-7.2-4.1-7.2H-1013c-3.7,0-6-4-4.1-7.2l19.8-32.7C-996.4,376.2-994.9,375.3-993.2,375.3z"/>
	<linearGradient id="SVGID_4_" gradientUnits="userSpaceOnUse" x1="-884.2621" y1="191.9841" x2="-822.9147" y2="122.7209">
		<stop  offset="3.968250e-02" style="stop-color:#1486E9"/>
		<stop  offset="1" style="stop-color:#06CFF1"/>
	</linearGradient>
	<path class="st8" d="M-808.5,179.2h-86.9c-2.5,0-4.5-2-4.5-4.5v-38.3c0-2.5,2-4.5,4.5-4.5h86.9c2.5,0,4.5,2,4.5,4.5v38.2
		C-804,177.1-806.1,179.2-808.5,179.2z"/>
	
		<linearGradient id="SVGID_5_" gradientUnits="userSpaceOnUse" x1="2131.9553" y1="263.1" x2="2210.9553" y2="263.1" gradientTransform="matrix(-1 0 0 1 1142.2554 0)">
		<stop  offset="0.507" style="stop-color:#1486E9"/>
		<stop  offset="1" style="stop-color:#06CFF1"/>
	</linearGradient>
	<circle class="st9" cx="-1029.2" cy="263.1" r="39.5"/>
	<linearGradient id="SVGID_6_" gradientUnits="userSpaceOnUse" x1="-720.5" y1="263.2" x2="-641.5" y2="263.2">
		<stop  offset="0.507" style="stop-color:#1486E9"/>
		<stop  offset="1" style="stop-color:#06CFF1"/>
	</linearGradient>
	<circle class="st10" cx="-681" cy="263.2" r="39.5"/>
	<linearGradient id="SVGID_7_" gradientUnits="userSpaceOnUse" x1="-1000.4621" y1="430.6621" x2="-707.8834" y2="138.0835">
		<stop  offset="3.968250e-02" style="stop-color:#1486E9"/>
		<stop  offset="1" style="stop-color:#06CFF1"/>
	</linearGradient>
	<path class="st11" d="M-1018,417.6c-5.8,0-10.6-4.7-10.6-10.5l-0.1-244.2c0-5.7,4.7-10.4,10.4-10.4h327.6c5.7,0,10.4,4.7,10.4,10.4
		v243.3c0,6.1-4.9,11-11,11L-1018,417.6z"/>
	<path class="st2" d="M-806.8,145.9c-0.3,0.1-0.6-2-2.3-5.2c0,0-0.8-1.5-1.7-2.7c-2.9-4.1-12.9-4-13.7-4
		c-15.5,0.1-25.5-0.8-25.5-0.8c0,0.1,7.3-0.1,12.6-0.2c15.1-0.3,24-1.1,27.9,2.9c1.6,1.7,2.4,3.9,2.4,3.9
		C-806,142.8-806.4,145.8-806.8,145.9z"/>
	<linearGradient id="SVGID_8_" gradientUnits="userSpaceOnUse" x1="-918.6814" y1="571.4" x2="-682.3186" y2="571.4">
		<stop  offset="3.968250e-02" style="stop-color:#1486E9"/>
		<stop  offset="1" style="stop-color:#06CFF1"/>
	</linearGradient>
	<path class="st12" d="M-706.9,695.7h-207c-3.7,0-6-4-4.1-7.2l151.2-239.1c0.9-1.5,2.5-2.3,4.1-2.3l46.5,0.7c3.7,0.1,5.9,4.1,4,7.2
		l-123.6,191.3c-1.9,3.2,0.4,7.2,4.1,7.2h144.6c3.7,0,6,4,4.1,7.2l-19.8,32.7C-703.7,694.8-705.3,695.7-706.9,695.7z"/>
	<circle class="st2" cx="-783.6" cy="169.7" r="4.9"/>
	<g>
		<linearGradient id="SVGID_9_" gradientUnits="userSpaceOnUse" x1="-856.7394" y1="311.9531" x2="-854.6755" y2="219.0753">
			<stop  offset="0" style="stop-color:#707070"/>
			<stop  offset="1" style="stop-color:#B2B2B2"/>
		</linearGradient>
		<path class="st13" d="M-738.3,309L-738.3,309c-4.5,2.2-9.5,3.4-14.6,3.4H-959c-5.1,0-10.2-1.2-14.6-3.4l0,0
			c-11-5.5-16-16.4-15.7-27.8l0.1-20.8c0.6-36.8,9.9-47.7,52.4-49.9c18-0.9,66.9-1.4,86.5-1.3c15.4,0.1,60.3,0.5,74.7,1.3
			c42.6,2.1,51.9,13.1,52.9,49.9c0,0.3,0.1,20.6,0.1,20.8C-721.7,292.6-727.3,303.5-738.3,309z"/>
		<g>
			<g>
				<circle cx="-920.3" cy="265.1" r="27.9"/>
			</g>
			<g>
				<linearGradient id="SVGID_10_" gradientUnits="userSpaceOnUse" x1="-943.7" y1="265.1" x2="-896.8499" y2="265.1">
					<stop  offset="0" style="stop-color:#030D14"/>
					<stop  offset="1" style="stop-color:#0B2F45"/>
				</linearGradient>
				<circle class="st14" cx="-920.3" cy="265.1" r="23.4"/>
			</g>
			<g>
				<path class="st15" d="M-905.3,259c0,4.8-3.9,8.7-8.7,8.7s-8.7-3.9-8.7-8.7c0-4.8,3.9-8.7,8.7-8.7S-905.3,254.2-905.3,259z"/>
			</g>
			<g>
				<circle class="st15" cx="-923.8" cy="283" r="3.5"/>
			</g>
		</g>
		<g>
			<g>
				<circle cx="-792.4" cy="265.1" r="27.9"/>
			</g>
			<g>
				<linearGradient id="SVGID_11_" gradientUnits="userSpaceOnUse" x1="-815.8" y1="265.1" x2="-768.9501" y2="265.1">
					<stop  offset="0" style="stop-color:#030D14"/>
					<stop  offset="1" style="stop-color:#0B2F45"/>
				</linearGradient>
				<circle class="st16" cx="-792.4" cy="265.1" r="23.4"/>
			</g>
			<g>
				<path class="st15" d="M-777.3,259c0,4.8-3.9,8.7-8.7,8.7s-8.7-3.9-8.7-8.7c0-4.8,3.9-8.7,8.7-8.7S-777.3,254.2-777.3,259z"/>
			</g>
			<g>
				<circle class="st15" cx="-795.8" cy="283" r="3.5"/>
			</g>
		</g>
		<path class="st2" d="M-735.1,250c-3.6-0.4,4-10.9-19.6-26.4c-8.3-5.5-22.2-4.6-22-6.6c0.1-1.2,18.1,1.2,25.6,4.4
			C-729.7,230.6-733.3,250.2-735.1,250z"/>
	</g>
	<path class="st15" d="M-812.9,342.4c-0.5,4.5-4.2,8-8.7,8.4l-62.1,6c-4.5,0.4-8.8-2.2-10.1-6.6c-0.6-1.9-1-3.9-1.3-5.9
		c-0.1-0.6,0.1-1.1,0.4-1.6c0.4-0.4,0.9-0.7,1.4-0.8l78.4-7.6c0.6-0.1,1.1,0.1,1.5,0.5s0.7,0.9,0.7,1.5
		C-812.7,338.4-812.7,340.4-812.9,342.4z"/>
	<linearGradient id="SVGID_12_" gradientUnits="userSpaceOnUse" x1="-865.2359" y1="365.2484" x2="-784.407" y2="284.4196">
		<stop  offset="7.142860e-02" style="stop-color:#3E80C2"/>
		<stop  offset="1" style="stop-color:#1486E9"/>
	</linearGradient>
	<path class="st17" d="M-812.9,342.4c-2,19.3-17.3,35.1-37.3,37c-19.7,1.9-37.5-10.3-43.4-28.4c1.6,3.9,5.6,6.2,9.9,5.8l62.1-6
		C-817.1,350.3-813.4,346.9-812.9,342.4z"/>
	<path class="st2" d="M-692.8,203.4c-2.9-0.8-2.6-5.5-7.3-14.2c0,0-1.2-3.1-3.7-6.5c-8.1-11.1-35.6-10.9-37.7-10.9
		c-42.8,0.4-35.2-3.3-20.5-3.6c41.5-0.8,51.2-3.1,61.8,8c4.4,4.6,6.6,10.6,6.6,10.6C-690.7,194.9-691.7,203.7-692.8,203.4z"/>
</g>
<g>
	<linearGradient id="SVGID_13_" gradientUnits="userSpaceOnUse" x1="-397.1885" y1="103.465" x2="-364.2898" y2="98.6673">
		<stop  offset="3.968250e-02" style="stop-color:#1486E9"/>
		<stop  offset="1" style="stop-color:#06CFF1"/>
	</linearGradient>
	<rect x="-380.3" y="64.2" class="st18" width="11" height="72"/>
	<linearGradient id="SVGID_14_" gradientUnits="userSpaceOnUse" x1="-404.4211" y1="63.7052" x2="-360.883" y2="57.3559">
		<stop  offset="3.968250e-02" style="stop-color:#1486E9"/>
		<stop  offset="1" style="stop-color:#06CFF1"/>
	</linearGradient>
	<path class="st19" d="M-360.8,59.4c0,7.8-6.3,14.1-14.1,14.1c-7.8,0-14.1-6.3-14.1-14.1s6.3-14.1,14.1-14.1
		C-367.1,45.4-360.8,51.7-360.8,59.4z"/>
	<path class="st2" d="M-365.1,53.9c0,2.4-1.9,4.3-4.3,4.3s-4.3-1.9-4.3-4.3c0-2.4,1.9-4.3,4.3-4.3C-367,49.7-365.1,51.6-365.1,53.9z
		"/>
	<linearGradient id="SVGID_15_" gradientUnits="userSpaceOnUse" x1="-419.6249" y1="416.1577" x2="-525.037" y2="573.7092">
		<stop  offset="0" style="stop-color:#1486E9"/>
		<stop  offset="1" style="stop-color:#06CFF1"/>
	</linearGradient>
	<path class="st20" d="M-516.1,372.1h236.9c3.7,0,6,4.1,4.1,7.2l-144.5,228.9c-0.9,1.4-2.4,2.3-4.1,2.3H-470c-3.7,0-6-4.1-4.1-7.2
		l116.9-181.8c1.9-3.2-0.3-7.2-4.1-7.2h-174.6c-3.7,0-6-4-4.1-7.2l19.8-32.7C-519.3,373-517.7,372.1-516.1,372.1z"/>
	<linearGradient id="SVGID_16_" gradientUnits="userSpaceOnUse" x1="-407.1678" y1="188.7377" x2="-345.8203" y2="119.4746">
		<stop  offset="3.968250e-02" style="stop-color:#1486E9"/>
		<stop  offset="1" style="stop-color:#06CFF1"/>
	</linearGradient>
	<path class="st21" d="M-331.4,175.9h-86.9c-2.5,0-4.5-2-4.5-4.5v-38.3c0-2.5,2-4.5,4.5-4.5h86.9c2.5,0,4.5,2,4.5,4.5v38.3
		C-326.9,173.9-328.9,175.9-331.4,175.9z"/>
	
		<linearGradient id="SVGID_17_" gradientUnits="userSpaceOnUse" x1="1654.7554" y1="259.9" x2="1733.7554" y2="259.9" gradientTransform="matrix(-1 0 0 1 1142.2554 0)">
		<stop  offset="0.507" style="stop-color:#1486E9"/>
		<stop  offset="1" style="stop-color:#06CFF1"/>
	</linearGradient>
	<circle class="st22" cx="-552" cy="259.9" r="39.5"/>
	<linearGradient id="SVGID_18_" gradientUnits="userSpaceOnUse" x1="-243.3" y1="260" x2="-164.3" y2="260">
		<stop  offset="0.507" style="stop-color:#1486E9"/>
		<stop  offset="1" style="stop-color:#06CFF1"/>
	</linearGradient>
	<circle class="st23" cx="-203.8" cy="260" r="39.5"/>
	<linearGradient id="SVGID_19_" gradientUnits="userSpaceOnUse" x1="-523.3622" y1="427.4123" x2="-230.7836" y2="134.8336">
		<stop  offset="3.968250e-02" style="stop-color:#1486E9"/>
		<stop  offset="1" style="stop-color:#06CFF1"/>
	</linearGradient>
	<path class="st24" d="M-540.8,414.4c-5.8,0-10.6-4.7-10.6-10.5l-0.2-244.2c0-5.7,4.7-10.4,10.4-10.4h327.5
		c5.7,0,10.4,4.7,10.4,10.4V403c0,6.1-4.9,11-11,11L-540.8,414.4z"/>
	<path class="st2" d="M-329.6,142.6c-0.3,0.1-0.6-2-2.3-5.2c0,0-0.8-1.5-1.7-2.7c-2.9-4.1-12.9-4-13.7-4
		c-15.5,0.1-25.5-0.8-25.5-0.8c0,0.1,7.3-0.1,12.6-0.2c15.1-0.3,24-1.1,27.9,2.9c1.6,1.7,2.4,3.9,2.4,3.9
		C-328.9,139.6-329.2,142.6-329.6,142.6z"/>
	<linearGradient id="SVGID_20_" gradientUnits="userSpaceOnUse" x1="-441.5814" y1="568.2" x2="-205.2186" y2="568.2">
		<stop  offset="3.968250e-02" style="stop-color:#1486E9"/>
		<stop  offset="1" style="stop-color:#06CFF1"/>
	</linearGradient>
	<path class="st25" d="M-229.8,692.5h-207c-3.7,0-6-4-4.1-7.2l151.2-239.1c0.9-1.5,2.5-2.3,4.1-2.3l46.5,0.7c3.7,0.1,5.9,4.1,4,7.2
		L-358.8,643c-1.9,3.2,0.4,7.2,4.1,7.2H-210c3.7,0,6,4,4.1,7.2l-19.8,32.7C-226.6,691.6-228.1,692.5-229.8,692.5z"/>
	<circle class="st2" cx="-306.4" cy="166.4" r="4.9"/>
	<g>
		<linearGradient id="SVGID_21_" gradientUnits="userSpaceOnUse" x1="-379.6293" y1="308.7741" x2="-377.5654" y2="215.8963">
			<stop  offset="0" style="stop-color:#030D14"/>
			<stop  offset="1" style="stop-color:#0B2F45"/>
		</linearGradient>
		<path class="st26" d="M-261.2,305.7L-261.2,305.7c-4.5,2.2-9.5,3.4-14.6,3.4h-206.1c-5.1,0-10.2-1.2-14.6-3.4l0,0
			c-11-5.5-16-16.4-15.7-27.8l0.1-20.8c0.6-36.8,9.9-47.7,52.4-49.9c18-0.9,66.9-1.4,86.5-1.3c15.4,0.1,60.3,0.5,74.7,1.3
			c42.7,2.2,51.9,13.2,52.9,49.9c0,0.3,0.1,20.6,0.1,20.8C-244.5,289.4-250.1,300.3-261.2,305.7z"/>
		<g>
			<g>
				<circle class="st15" cx="-443.1" cy="261.8" r="27.9"/>
			</g>
			<g>
				<linearGradient id="SVGID_22_" gradientUnits="userSpaceOnUse" x1="-466.5739" y1="261.8" x2="-419.7238" y2="261.8">
					<stop  offset="0" style="stop-color:#030D14"/>
					<stop  offset="1" style="stop-color:#0B2F45"/>
				</linearGradient>
				<circle class="st27" cx="-443.1" cy="261.8" r="23.4"/>
			</g>
			<g>
				<path class="st15" d="M-428.1,255.8c0,4.8-3.9,8.7-8.7,8.7c-4.8,0-8.7-3.9-8.7-8.7s3.9-8.7,8.7-8.7S-428.1,251-428.1,255.8z"/>
			</g>
			<g>
				<circle class="st15" cx="-446.6" cy="279.8" r="3.5"/>
			</g>
			<g>
				<path class="st15" d="M-455.2,274.6c0,1-0.8,1.7-1.7,1.7c-1,0-1.7-0.8-1.7-1.7c0-1,0.8-1.7,1.7-1.7S-455.2,273.6-455.2,274.6z"
					/>
			</g>
		</g>
		<g>
			<g>
				<circle class="st15" cx="-315.2" cy="261.8" r="27.9"/>
			</g>
			<g>
				<linearGradient id="SVGID_23_" gradientUnits="userSpaceOnUse" x1="-338.6" y1="261.8" x2="-291.7499" y2="261.8">
					<stop  offset="0" style="stop-color:#030D14"/>
					<stop  offset="1" style="stop-color:#0B2F45"/>
				</linearGradient>
				<circle class="st28" cx="-315.2" cy="261.8" r="23.4"/>
			</g>
			<g>
				<path class="st15" d="M-300.2,255.8c0,4.8-3.9,8.7-8.7,8.7s-8.7-3.9-8.7-8.7s3.9-8.7,8.7-8.7S-300.2,251-300.2,255.8z"/>
			</g>
			<g>
				<circle class="st15" cx="-318.6" cy="279.8" r="3.5"/>
			</g>
			<g>
				<path class="st15" d="M-327.2,274.6c0,1-0.8,1.7-1.7,1.7s-1.7-0.8-1.7-1.7c0-1,0.8-1.7,1.7-1.7S-327.2,273.6-327.2,274.6z"/>
			</g>
		</g>
		<path class="st2" d="M-257.9,246.8c-3.6-0.4,4-10.9-19.6-26.4c-8.3-5.5-22.2-4.6-22-6.6c0.1-1.2,18.1,1.2,25.6,4.4
			C-252.5,227.4-256.1,247-257.9,246.8z"/>
	</g>
	<path class="st15" d="M-335.8,339.2c-0.5,4.5-4.2,8-8.7,8.4l-62.1,6c-4.5,0.4-8.8-2.2-10.1-6.6c-0.6-1.9-1-3.9-1.3-5.9
		c-0.1-0.6,0.1-1.1,0.4-1.6c0.4-0.4,0.9-0.7,1.4-0.8l78.4-7.6c0.6-0.1,1.1,0.1,1.5,0.5s0.7,0.9,0.7,1.5
		C-335.5,335.1-335.6,337.2-335.8,339.2z"/>
	<linearGradient id="SVGID_24_" gradientUnits="userSpaceOnUse" x1="-388.1111" y1="362.0237" x2="-307.2822" y2="281.1948">
		<stop  offset="7.142860e-02" style="stop-color:#3E80C2"/>
		<stop  offset="1" style="stop-color:#1486E9"/>
	</linearGradient>
	<path class="st29" d="M-335.8,339.2c-2,19.3-17.3,35.1-37.3,37c-19.7,1.9-37.5-10.3-43.4-28.4c1.6,3.9,5.6,6.2,9.9,5.8l62.1-6
		C-340,347.1-336.2,343.7-335.8,339.2z"/>
	<path class="st2" d="M-215.7,200.1c-2.9-0.8-2.6-5.5-7.3-14.2c0,0-1.2-3.1-3.7-6.5c-8.1-11.1-35.6-10.9-37.7-10.9
		c-42.8,0.4-35.2-3.3-20.5-3.6c41.5-0.8,51.2-3.1,61.8,8c4.4,4.6,6.6,10.6,6.6,10.6C-213.5,191.7-214.5,200.4-215.7,200.1z"/>
</g>
<g>
	<linearGradient id="SVGID_25_" gradientUnits="userSpaceOnUse" x1="476.0179" y1="114.225" x2="508.9167" y2="109.4274">
		<stop  offset="3.968250e-02" style="stop-color:#1486E9"/>
		<stop  offset="1" style="stop-color:#06CFF1"/>
	</linearGradient>
	<rect x="493" y="74.9" class="st30" width="11" height="72"/>
	<linearGradient id="SVGID_26_" gradientUnits="userSpaceOnUse" x1="468.7853" y1="74.4652" x2="512.3235" y2="68.116">
		<stop  offset="3.968250e-02" style="stop-color:#1486E9"/>
		<stop  offset="1" style="stop-color:#06CFF1"/>
	</linearGradient>
	<path class="st31" d="M512.5,70.2c0,7.8-6.3,14.1-14.1,14.1s-14.1-6.3-14.1-14.1s6.3-14.1,14.1-14.1
		C506.2,56,512.5,62.3,512.5,70.2z"/>
	<path class="st2" d="M508.2,64.7c0,2.4-1.9,4.3-4.3,4.3c-2.4,0-4.3-1.9-4.3-4.3s1.9-4.3,4.3-4.3S508.2,62.3,508.2,64.7z"/>
	<linearGradient id="SVGID_27_" gradientUnits="userSpaceOnUse" x1="467.0998" y1="454.6896" x2="398.4575" y2="557.2839">
		<stop  offset="0" style="stop-color:#1486E9"/>
		<stop  offset="1" style="stop-color:#06CFF1"/>
	</linearGradient>
	<path class="st32" d="M404.3,426h154.3c2.4,0,3.9,2.7,2.7,4.7l-94.1,149.1c-0.6,0.9-1.6,1.5-2.7,1.5h-30.2c-2.4,0-3.9-2.7-2.7-4.7
		l76.2-118.4c1.2-2.1-0.2-4.7-2.7-4.7H391.4c-2.4,0-3.9-2.6-2.7-4.7l12.9-21.3C402.2,426.5,403.2,426,404.3,426z"/>
	<linearGradient id="SVGID_28_" gradientUnits="userSpaceOnUse" x1="466.0223" y1="199.4718" x2="527.3698" y2="130.2085">
		<stop  offset="3.968250e-02" style="stop-color:#1486E9"/>
		<stop  offset="1" style="stop-color:#06CFF1"/>
	</linearGradient>
	<path class="st33" d="M541.8,186.6h-86.9c-2.5,0-4.5-2-4.5-4.5v-38.3c0-2.5,2-4.5,4.5-4.5h86.9c2.5,0,4.5,2,4.5,4.5v38.3
		C546.3,184.6,544.3,186.6,541.8,186.6z"/>
	
		<linearGradient id="SVGID_29_" gradientUnits="userSpaceOnUse" x1="781.5795" y1="270.55" x2="860.5795" y2="270.55" gradientTransform="matrix(-1 0 0 1 1142.2554 0)">
		<stop  offset="0.507" style="stop-color:#1486E9"/>
		<stop  offset="1" style="stop-color:#06CFF1"/>
	</linearGradient>
	<circle class="st34" cx="321.2" cy="270.5" r="39.5"/>
	<linearGradient id="SVGID_30_" gradientUnits="userSpaceOnUse" x1="629.9759" y1="270.75" x2="708.9759" y2="270.75">
		<stop  offset="0.507" style="stop-color:#1486E9"/>
		<stop  offset="1" style="stop-color:#06CFF1"/>
	</linearGradient>
	<circle class="st35" cx="669.5" cy="270.8" r="39.5"/>
	<linearGradient id="SVGID_31_" gradientUnits="userSpaceOnUse" x1="349.8795" y1="438.1964" x2="642.4581" y2="145.6177">
		<stop  offset="3.968250e-02" style="stop-color:#1486E9"/>
		<stop  offset="1" style="stop-color:#06CFF1"/>
	</linearGradient>
	<path class="st36" d="M332.5,425.1c-5.8,0-10.6-4.7-10.6-10.5l-0.2-244.2c0-5.7,4.7-10.4,10.4-10.4h327.5c5.7,0,10.4,4.7,10.4,10.4
		v243.3c0,6.1-4.9,11-11,11L332.5,425.1z"/>
	<path class="st2" d="M543.5,153.4c-0.3,0.1-0.6-2-2.3-5.2c0,0-0.8-1.5-1.7-2.7c-2.9-4.1-12.9-4-13.7-4c-15.5,0.1-25.5-0.8-25.5-0.8
		c0,0.1,7.3-0.1,12.6-0.2c15.1-0.3,24-1.1,27.9,2.9c1.6,1.7,2.4,3.9,2.4,3.9C544.3,150.3,544,153.4,543.5,153.4z"/>
	<linearGradient id="SVGID_32_" gradientUnits="userSpaceOnUse" x1="487.3517" y1="605.8995" x2="620.174" y2="528.1309">
		<stop  offset="3.968250e-02" style="stop-color:#1486E9"/>
		<stop  offset="1" style="stop-color:#06CFF1"/>
	</linearGradient>
	<path class="st37" d="M594.7,634.6H459.9c-2.4,0-3.9-2.6-2.7-4.7l98.5-155.7c0.6-1,1.6-1.5,2.7-1.5l30.3,0.5
		c2.4,0.1,3.8,2.7,2.6,4.7l-80.6,124.6c-1.2,2.1,0.3,4.7,2.7,4.7h94.2c2.4,0,3.9,2.6,2.7,4.7l-12.9,21.3
		C596.8,634,595.8,634.6,594.7,634.6z"/>
	<ellipse class="st38" cx="565.8" cy="176.8" rx="4.9" ry="3.4"/>
	<g>
		<linearGradient id="SVGID_33_" gradientUnits="userSpaceOnUse" x1="493.5477" y1="319.5203" x2="495.6116" y2="226.6425">
			<stop  offset="0" style="stop-color:#B2B2B2"/>
			<stop  offset="1" style="stop-color:#FFFFFF"/>
		</linearGradient>
		<path class="st39" d="M612,316.5L612,316.5c-4.5,2.2-9.5,3.4-14.6,3.4H391.3c-5.1,0-10.2-1.2-14.6-3.4l0,0
			c-11-5.5-16-16.4-15.7-27.8l0.1-20.8c0.6-36.8,9.9-47.7,52.4-49.9c18-0.9,66.9-1.4,86.5-1.3c15.4,0.1,60.3,0.5,74.7,1.3
			c42.7,2.2,51.9,13.2,52.9,49.9c0,0.3,0.1,20.6,0.1,20.8C628.7,300,623.2,311,612,316.5z"/>
		<g>
			<g>
				<circle cx="430" cy="272.5" r="27.9"/>
			</g>
			<g>
				<linearGradient id="SVGID_34_" gradientUnits="userSpaceOnUse" x1="406.6259" y1="272.55" x2="453.4759" y2="272.55">
					<stop  offset="0" style="stop-color:#030D14"/>
					<stop  offset="1" style="stop-color:#0B2F45"/>
				</linearGradient>
				<circle class="st40" cx="430" cy="272.5" r="23.4"/>
			</g>
			<g>
				<path class="st15" d="M445,266.5c0,4.8-3.9,8.7-8.7,8.7s-8.7-3.9-8.7-8.7c0-4.8,3.9-8.7,8.7-8.7
					C441.2,257.9,445,261.6,445,266.5z"/>
			</g>
			<g>
				<circle class="st15" cx="426.7" cy="290.5" r="3.5"/>
			</g>
		</g>
		<g>
			<g>
				<circle cx="558" cy="272.5" r="27.9"/>
			</g>
			<g>
				<linearGradient id="SVGID_35_" gradientUnits="userSpaceOnUse" x1="534.6259" y1="272.55" x2="581.4761" y2="272.55">
					<stop  offset="0" style="stop-color:#030D14"/>
					<stop  offset="1" style="stop-color:#0B2F45"/>
				</linearGradient>
				<circle class="st41" cx="558" cy="272.5" r="23.4"/>
			</g>
			<g>
				<path class="st15" d="M573,266.5c0,4.8-3.9,8.7-8.7,8.7s-8.7-3.9-8.7-8.7c0-4.8,3.9-8.7,8.7-8.7
					C569.2,257.9,573,261.6,573,266.5z"/>
			</g>
			<g>
				<circle class="st15" cx="554.5" cy="290.5" r="3.5"/>
			</g>
		</g>
		<path class="st2" d="M615.3,257.5c-3.6-0.4,4-10.9-19.6-26.4c-8.3-5.5-22.2-4.6-22-6.6c0.1-1.2,18.1,1.2,25.6,4.4
			C620.7,238.1,617.2,257.6,615.3,257.5z"/>
	</g>
	<path class="st15" d="M537.5,350c-0.5,4.5-4.2,8-8.7,8.4l-62.1,6c-4.5,0.4-8.8-2.2-10.1-6.6c-0.6-1.9-1-3.9-1.3-5.9
		c-0.1-0.6,0.1-1.1,0.4-1.6c0.4-0.4,0.9-0.7,1.4-0.8l78.4-7.6c0.6-0.1,1.1,0.1,1.5,0.5s0.7,0.9,0.7,1.5
		C537.7,345.9,537.7,347.9,537.5,350z"/>
	<linearGradient id="SVGID_36_" gradientUnits="userSpaceOnUse" x1="479.1306" y1="378.8078" x2="514.1423" y2="343.7962">
		<stop  offset="0" style="stop-color:#0062B8"/>
		<stop  offset="1" style="stop-color:#1486E9"/>
	</linearGradient>
	<path class="st42" d="M537.5,350c-2,19.3-17.3,35.1-37.3,37c-19.7,1.9-37.5-10.3-43.4-28.4c1.6,3.9,5.6,6.2,9.9,5.8l62.1-6
		C533.2,357.9,537,354.4,537.5,350z"/>
	<path class="st38" d="M657.5,210.9c-2.9-0.8-2.6-5.5-7.3-14.2c0,0-1.2-3.1-3.7-6.5c-8.1-11.1-35.6-10.9-37.7-10.9
		c-42.8,0.4-35.2-3.3-20.5-3.6c41.5-0.8,51.2-3.1,61.8,8c4.4,4.6,6.6,10.6,6.6,10.6C659.7,202.4,658.7,211.1,657.5,210.9z"/>
</g>
<g>
	<linearGradient id="SVGID_37_" gradientUnits="userSpaceOnUse" x1="-1337.7417" y1="106.675" x2="-1304.8429" y2="101.8774">
		<stop  offset="3.968250e-02" style="stop-color:#1486E9"/>
		<stop  offset="1" style="stop-color:#06CFF1"/>
	</linearGradient>
	<rect x="-1320.8" y="67.4" class="st43" width="11" height="72"/>
	<linearGradient id="SVGID_38_" gradientUnits="userSpaceOnUse" x1="-1344.9742" y1="66.9152" x2="-1301.4362" y2="60.566">
		<stop  offset="3.968250e-02" style="stop-color:#1486E9"/>
		<stop  offset="1" style="stop-color:#06CFF1"/>
	</linearGradient>
	<path class="st44" d="M-1301.3,62.6c0,7.8-6.3,14.1-14.1,14.1c-7.8,0-14.1-6.3-14.1-14.1s6.3-14.1,14.1-14.1
		C-1307.6,48.5-1301.3,54.8-1301.3,62.6z"/>
	<path class="st2" d="M-1305.6,57.1c0,2.4-1.9,4.3-4.3,4.3c-2.4,0-4.3-1.9-4.3-4.3c0-2.4,1.9-4.3,4.3-4.3
		C-1307.5,52.8-1305.6,54.7-1305.6,57.1z"/>
	<linearGradient id="SVGID_39_" gradientUnits="userSpaceOnUse" x1="-1360.1316" y1="419.3871" x2="-1465.5437" y2="576.9386">
		<stop  offset="0" style="stop-color:#1486E9"/>
		<stop  offset="1" style="stop-color:#06CFF1"/>
	</linearGradient>
	<path class="st45" d="M-1456.6,375.3h236.9c3.7,0,6,4.1,4.1,7.2l-144.5,228.9c-0.9,1.4-2.4,2.3-4.1,2.3h-46.4c-3.7,0-6-4.1-4.1-7.2
		l117-181.8c1.9-3.2-0.3-7.2-4.1-7.2h-174.6c-3.7,0-6-4-4.1-7.2l19.8-32.7C-1459.8,376.1-1458.3,375.3-1456.6,375.3z"/>
	<linearGradient id="SVGID_40_" gradientUnits="userSpaceOnUse" x1="-1347.7373" y1="191.9218" x2="-1286.3899" y2="122.6585">
		<stop  offset="3.968250e-02" style="stop-color:#1486E9"/>
		<stop  offset="1" style="stop-color:#06CFF1"/>
	</linearGradient>
	<path class="st46" d="M-1272,179.1h-86.9c-2.5,0-4.5-2-4.5-4.5v-38.3c0-2.5,2-4.5,4.5-4.5h86.9c2.5,0,4.5,2,4.5,4.5v38.3
		C-1267.5,177.1-1269.5,179.1-1272,179.1z"/>
	
		<linearGradient id="SVGID_41_" gradientUnits="userSpaceOnUse" x1="2595.3391" y1="263" x2="2674.3391" y2="263" gradientTransform="matrix(-1 0 0 1 1142.2554 0)">
		<stop  offset="0.507" style="stop-color:#1486E9"/>
		<stop  offset="1" style="stop-color:#06CFF1"/>
	</linearGradient>
	<circle class="st47" cx="-1492.6" cy="263" r="39.5"/>
	<linearGradient id="SVGID_42_" gradientUnits="userSpaceOnUse" x1="-1183.7837" y1="263.2" x2="-1104.7837" y2="263.2">
		<stop  offset="0.507" style="stop-color:#1486E9"/>
		<stop  offset="1" style="stop-color:#06CFF1"/>
	</linearGradient>
	<circle class="st48" cx="-1144.3" cy="263.2" r="39.5"/>
	<linearGradient id="SVGID_43_" gradientUnits="userSpaceOnUse" x1="-1463.8801" y1="430.6465" x2="-1171.3015" y2="138.0677">
		<stop  offset="3.968250e-02" style="stop-color:#1486E9"/>
		<stop  offset="1" style="stop-color:#06CFF1"/>
	</linearGradient>
	<path class="st49" d="M-1481.3,417.6c-5.8,0-10.6-4.7-10.6-10.5l-0.2-244.2c0-5.7,4.7-10.4,10.4-10.4h327.5
		c5.7,0,10.4,4.7,10.4,10.4v243.3c0,6.1-4.9,11-11,11L-1481.3,417.6z"/>
	<path class="st2" d="M-1270.3,145.8c-0.3,0.1-0.6-2-2.3-5.2c0,0-0.8-1.5-1.7-2.7c-2.9-4.1-12.9-4-13.7-4
		c-15.5,0.1-25.5-0.8-25.5-0.8c0,0.1,7.3-0.1,12.6-0.2c15.1-0.3,24-1.1,27.9,2.9c1.6,1.7,2.4,3.9,2.4,3.9
		C-1269.5,142.7-1269.8,145.8-1270.3,145.8z"/>
	<linearGradient id="SVGID_44_" gradientUnits="userSpaceOnUse" x1="-1335.174" y1="651.5962" x2="-1131.2021" y2="532.1689">
		<stop  offset="3.968250e-02" style="stop-color:#1486E9"/>
		<stop  offset="1" style="stop-color:#06CFF1"/>
	</linearGradient>
	<path class="st50" d="M-1170.3,695.7h-207c-3.7,0-6-4-4.1-7.2l151.2-239.1c0.9-1.5,2.5-2.3,4.1-2.3l46.5,0.7c3.7,0.1,5.9,4.1,4,7.2
		l-123.7,191.3c-1.9,3.2,0.4,7.2,4.1,7.2h144.6c3.7,0,6,4,4.1,7.2l-19.8,32.7C-1167.1,694.8-1168.6,695.7-1170.3,695.7z"/>
	<ellipse class="st38" cx="-1248" cy="169.2" rx="4.9" ry="3.4"/>
	<g>
		<linearGradient id="SVGID_45_" gradientUnits="userSpaceOnUse" x1="-1320.2119" y1="311.9703" x2="-1318.1481" y2="219.0925">
			<stop  offset="0" style="stop-color:#B2B2B2"/>
			<stop  offset="1" style="stop-color:#FFFFFF"/>
		</linearGradient>
		<path class="st51" d="M-1201.8,308.9L-1201.8,308.9c-4.5,2.2-9.5,3.4-14.6,3.4h-206.1c-5.1,0-10.2-1.2-14.6-3.4l0,0
			c-11-5.5-16-16.4-15.7-27.8l0.1-20.8c0.6-36.8,9.9-47.7,52.4-49.9c18-0.9,66.9-1.4,86.5-1.3c15.4,0.1,60.3,0.5,74.7,1.3
			c42.7,2.2,51.9,13.2,52.9,49.9c0,0.3,0.1,20.6,0.1,20.8C-1185.1,292.5-1190.6,303.5-1201.8,308.9z"/>
		<g>
			<g>
				<circle cx="-1383.8" cy="265" r="27.9"/>
			</g>
			<g>
				<linearGradient id="SVGID_46_" gradientUnits="userSpaceOnUse" x1="-1407.1337" y1="265" x2="-1360.2837" y2="265">
					<stop  offset="0" style="stop-color:#030D14"/>
					<stop  offset="1" style="stop-color:#0B2F45"/>
				</linearGradient>
				<circle class="st52" cx="-1383.8" cy="265" r="23.4"/>
			</g>
			<g>
				<path class="st15" d="M-1368.8,258.9c0,4.8-3.9,8.7-8.7,8.7s-8.7-3.9-8.7-8.7c0-4.8,3.9-8.7,8.7-8.7
					C-1372.6,250.3-1368.8,254.1-1368.8,258.9z"/>
			</g>
			<g>
				<circle class="st15" cx="-1387.1" cy="283" r="3.5"/>
			</g>
		</g>
		<g>
			<g>
				<circle cx="-1255.8" cy="265" r="27.9"/>
			</g>
			<g>
				<linearGradient id="SVGID_47_" gradientUnits="userSpaceOnUse" x1="-1279.1337" y1="265" x2="-1232.2836" y2="265">
					<stop  offset="0" style="stop-color:#030D14"/>
					<stop  offset="1" style="stop-color:#0B2F45"/>
				</linearGradient>
				<circle class="st53" cx="-1255.8" cy="265" r="23.4"/>
			</g>
			<g>
				<path class="st15" d="M-1240.8,258.9c0,4.8-3.9,8.7-8.7,8.7c-4.8,0-8.7-3.9-8.7-8.7c0-4.8,3.9-8.7,8.7-8.7
					C-1244.6,250.3-1240.8,254.1-1240.8,258.9z"/>
			</g>
			<g>
				<circle class="st15" cx="-1259.3" cy="283" r="3.5"/>
			</g>
		</g>
		<path class="st2" d="M-1198.5,249.9c-3.6-0.4,4-10.9-19.6-26.4c-8.3-5.5-22.2-4.6-22-6.6c0.1-1.2,18.1,1.2,25.6,4.4
			C-1193.1,230.5-1196.6,250.1-1198.5,249.9z"/>
	</g>
	<path class="st15" d="M-1276.3,342.4c-0.5,4.5-4.2,8-8.7,8.4l-62.1,6c-4.5,0.4-8.8-2.2-10.1-6.6c-0.6-1.9-1-3.9-1.3-5.9
		c-0.1-0.6,0.1-1.1,0.4-1.6c0.4-0.4,0.9-0.7,1.4-0.8l78.4-7.6c0.6-0.1,1.1,0.1,1.5,0.5s0.7,0.9,0.7,1.5
		C-1276.1,338.3-1276.1,340.3-1276.3,342.4z"/>
	<linearGradient id="SVGID_48_" gradientUnits="userSpaceOnUse" x1="-1334.6289" y1="371.2578" x2="-1299.6173" y2="336.2462">
		<stop  offset="0" style="stop-color:#0062B8"/>
		<stop  offset="1" style="stop-color:#1486E9"/>
	</linearGradient>
	<path class="st54" d="M-1276.3,342.4c-2,19.3-17.3,35.1-37.3,37c-19.7,1.9-37.5-10.3-43.4-28.4c1.6,3.9,5.6,6.2,9.9,5.8l62.1-6
		C-1280.6,350.3-1276.8,346.8-1276.3,342.4z"/>
	<path class="st38" d="M-1156.3,203.3c-2.9-0.8-2.6-5.5-7.3-14.2c0,0-1.2-3.1-3.7-6.5c-8.1-11.1-35.6-10.9-37.7-10.9
		c-42.8,0.4-35.2-3.3-20.5-3.6c41.5-0.8,51.2-3.1,61.8,8c4.4,4.6,6.6,10.6,6.6,10.6C-1154.1,194.9-1155.1,203.6-1156.3,203.3z"/>
</g>
</svg>
