<?xml version="1.0" encoding="utf-8"?>
<!-- Generator: Adobe Illustrator 24.1.1, SVG Export Plug-In . SVG Version: 6.00 Build 0)  -->
<svg version="1.1" id="Layer_1" xmlns="http://www.w3.org/2000/svg" xmlns:xlink="http://www.w3.org/1999/xlink" x="0px" y="0px"
	 viewBox="0 0 100 100" style="enable-background:new 0 0 100 100;" xml:space="preserve">
<style type="text/css">
	.st0{fill:#008AFC;}
</style>
<g>
	<path class="st0" d="M75.1,28.1c-1.6-1.4-4-1.1-5.3,0.4c-1.4,1.6-1.1,4,0.4,5.3l19,16.1l-19,16.1c-1.6,1.4-1.8,3.7-0.4,5.3
		c0.7,0.9,1.8,1.3,2.9,1.3c0.9,0,1.7-0.3,2.4-0.9l22.4-19c0.8-0.7,1.3-1.8,1.3-2.9c0-1.1-0.5-2.2-1.3-2.9L75.1,28.1z"/>
	<path class="st0" d="M10.8,50l19-16.1c1.6-1.4,1.8-3.7,0.4-5.3c-1.4-1.6-3.7-1.8-5.3-0.4L2.5,47.1c-0.8,0.7-1.3,1.8-1.3,2.9
		c0,1.1,0.5,2.2,1.3,2.9l22.4,19c0.7,0.6,1.6,0.9,2.4,0.9c1.1,0,2.1-0.5,2.9-1.3c1.4-1.6,1.2-4-0.4-5.3L10.8,50z"/>
	<path class="st0" d="M60.8,22.8c-1.9-0.8-4.1,0.2-4.9,2.1L37,72.3c-0.8,1.9,0.2,4.1,2.1,4.9c0.5,0.2,0.9,0.3,1.4,0.3
		c1.5,0,2.9-0.9,3.5-2.4l19-47.4C63.7,25.7,62.8,23.6,60.8,22.8z"/>
</g>
</svg>
