<?xml version="1.0" encoding="utf-8"?>
<!-- Generator: Adobe Illustrator 24.1.1, SVG Export Plug-In . SVG Version: 6.00 Build 0)  -->
<svg version="1.1" id="Layer_1" xmlns="http://www.w3.org/2000/svg" xmlns:xlink="http://www.w3.org/1999/xlink" x="0px" y="0px"
	 viewBox="0 0 100 100" style="enable-background:new 0 0 100 100;" xml:space="preserve">
<style type="text/css">
	.st0{fill:#5A5A5A;}
</style>
<g>
	<g>
		<g>
			<path class="st0" d="M71.5,12H8c-2.9,0-5.3,2.4-5.3,5.3v38.1c0,2.9,2.4,5.3,5.3,5.3h4.1V75c0,0.9,0.5,1.7,1.4,2.1
				c0.3,0.1,0.6,0.2,0.9,0.2c0.6,0,1.2-0.2,1.6-0.7l15.8-15.8h10.9c1.2,0,2.2-1,2.2-2.2c0-1.2-1-2.2-2.2-2.2c0,0-12,0-12,0
				c-0.5,0-1,0.2-1.4,0.6L16.6,69.6c0,0,0-11.2,0-11.2c-0.1-1.1-1.1-2-2.2-2H8c-0.5,0-0.9-0.4-0.9-0.9V17.4c0-0.5,0.4-0.9,0.9-0.9
				h63.5c0.5,0,0.9,0.4,0.9,0.9v22c0,1.2,1,2.2,2.2,2.2c1.2,0,2.2-1,2.2-2.2v-22C76.8,14.4,74.4,12,71.5,12z"/>
		</g>
	</g>
	<g>
		<g>
			<path class="st0" d="M92,39.4H47.6c-2.9,0-5.3,2.4-5.3,5.3v26c0,2.9,2.4,5.3,5.3,5.3h27.8l11.3,11.3c0.4,0.4,1,0.7,1.6,0.7
				c0.3,0,0.6-0.1,0.9-0.2c0.8-0.3,1.4-1.2,1.4-2.1V76H92c2.9,0,5.3-2.4,5.3-5.3v-26C97.3,41.8,94.9,39.4,92,39.4z M92.9,70.7
				c0,0.5-0.4,0.9-0.9,0.9h-3.8c-1.2,0-2.1,0.9-2.2,2.1c0,0,0,6.7,0,6.7l-8.1-8.1c0,0,0,0,0,0c0,0-0.1-0.1-0.1-0.1
				c-0.4-0.3-0.9-0.6-1.5-0.6H47.6c-0.5,0-0.9-0.4-0.9-0.9v-26c0-0.5,0.4-0.9,0.9-0.9H92c0.5,0,0.9,0.4,0.9,0.9V70.7z"/>
		</g>
	</g>
	<g>
		<g>
			<path class="st0" d="M69.8,55.5c-1.2,0-2.2,1-2.2,2.2s1,2.2,2.2,2.2c1.2,0,2.2-1,2.2-2.2S71,55.5,69.8,55.5z"/>
		</g>
	</g>
	<g>
		<g>
			<path class="st0" d="M60.1,26.8H19.4c-1.2,0-2.2,1-2.2,2.2s1,2.2,2.2,2.2h40.6c1.2,0,2.2-1,2.2-2.2S61.3,26.8,60.1,26.8z"/>
		</g>
	</g>
	<g>
		<g>
			<path class="st0" d="M34.9,41.6H19.4c-1.2,0-2.2,1-2.2,2.2c0,1.2,1,2.2,2.2,2.2h15.4c1.2,0,2.2-1,2.2-2.2
				C37.1,42.6,36.1,41.6,34.9,41.6z"/>
		</g>
	</g>
	<g>
		<g>
			<path class="st0" d="M59.4,55.5c-1.2,0-2.2,1-2.2,2.2s1,2.2,2.2,2.2c1.2,0,2.2-1,2.2-2.2S60.6,55.5,59.4,55.5z"/>
		</g>
	</g>
	<g>
		<g>
			<path class="st0" d="M80.2,55.5c-1.2,0-2.2,1-2.2,2.2s1,2.2,2.2,2.2c1.2,0,2.2-1,2.2-2.2S81.4,55.5,80.2,55.5z"/>
		</g>
	</g>
</g>
</svg>
