<?xml version="1.0" encoding="utf-8"?>
<!-- Generator: Adobe Illustrator 24.1.1, SVG Export Plug-In . SVG Version: 6.00 Build 0)  -->
<svg version="1.1" id="Layer_1" xmlns="http://www.w3.org/2000/svg" xmlns:xlink="http://www.w3.org/1999/xlink" x="0px" y="0px"
	 viewBox="0 0 100 100" style="enable-background:new 0 0 100 100;" xml:space="preserve">
<style type="text/css">
	.st0{fill:none;stroke:#5A5A5A;stroke-width:8;stroke-miterlimit:10;}
</style>
<path class="st0" d="M30.8,24.7c0,0-0.9-17,18.6-18.3c0,0,18.8-1.1,19.7,18.7c0,0,0,16.8-14.1,24.2c-2.7,1.4-6,1.5-8.8,0.2
	C40.4,47.1,31.5,40.6,30.8,24.7z"/>
<path class="st0" d="M35.4,59.1l12.2,13.7c1.2,1.5,3.5,1.5,4.7,0l12-13.6c0.5-0.7,1.3-1.1,2.2-1.1c4.9-0.2,21.7,0.3,23.1,19
	c0,0.1,0,0.2,0,0.3v13.1c0,1.7-1.3,3-3,3H13.1c-1.7,0-3-1.3-3-3V75.9c0-0.1,0-0.3,0-0.4c0.3-2.1,3.2-19.4,23.2-17.4
	C34.1,58.1,34.9,58.5,35.4,59.1z"/>
</svg>
