<?xml version="1.0" encoding="utf-8"?>
<!-- Generator: Adobe Illustrator 24.1.1, SVG Export Plug-In . SVG Version: 6.00 Build 0)  -->
<svg version="1.1" id="Layer_1" xmlns="http://www.w3.org/2000/svg" xmlns:xlink="http://www.w3.org/1999/xlink" x="0px" y="0px"
	 viewBox="0 0 100 100" style="enable-background:new 0 0 100 100;" xml:space="preserve">
<style type="text/css">
	.st0{fill:#55C595;}
	.st1{fill:#FAFAFA;}
</style>
<path class="st0" d="M83.3,6.9H16.7c-5.5,0-9.9,4.4-9.9,9.9v66.5c0,5.5,4.4,9.9,9.9,9.9h66.5c5.5,0,9.9-4.4,9.9-9.9V16.7
	C93.1,11.3,88.7,6.9,83.3,6.9z"/>
<path class="st1" d="M80.7,27.7c2.2,2.2,2.2,5.8,0,8L44,72.3c-1.1,1.1-2.5,1.7-4,1.7s-2.9-0.6-4-1.7L19.3,55.7c-2.2-2.2-2.2-5.8,0-8
	c2.2-2.2,5.8-2.2,8,0l12.8,12.6l32.6-32.6C74.9,25.5,78.5,25.5,80.7,27.7z"/>
</svg>
