<?xml version="1.0" encoding="utf-8"?>
<!-- Generator: Adobe Illustrator 24.1.1, SVG Export Plug-In . SVG Version: 6.00 Build 0)  -->
<svg version="1.1" id="Layer_1" xmlns="http://www.w3.org/2000/svg" xmlns:xlink="http://www.w3.org/1999/xlink" x="0px" y="0px"
	 viewBox="0 0 100 100" style="enable-background:new 0 0 100 100;" xml:space="preserve">
<style type="text/css">
	.st0{fill:#C476EC;}
	.st1{fill:#FFFFFF;}
</style>
<path class="st0" d="M84.6,94H15.4c-6.6,0-12-5.4-12-12V18c0-6.6,5.4-12,12-12h69.2c6.6,0,12,5.4,12,12V82
	C96.6,88.6,91.2,94,84.6,94z"/>
<g>
	<g>
		<g>
			<path class="st1" d="M77.7,15.3H22.3c-5.1,0-9.3,4.2-9.3,9.3v51c0,5.1,4.2,9.3,9.3,9.3h55.3c5.1,0,9.3-4.2,9.3-9.3v-51
				C86.9,19.4,82.8,15.3,77.7,15.3z M80.8,75.5c0,1.7-1.4,3.1-3.1,3.1H22.3c-1.7,0-3.1-1.4-3.1-3.1v-51c0-1.7,1.4-3.1,3.1-3.1h55.3
				c1.7,0,3.1,1.4,3.1,3.1L80.8,75.5L80.8,75.5z"/>
		</g>
	</g>
	<g>
		<g>
			<path class="st1" d="M79.3,35H19.5c-3,0-5.4,1.8-5.4,4.1s2.4,4.1,5.4,4.1h59.8c3,0,5.4-1.8,5.4-4.1C84.7,36.8,82.3,35,79.3,35z"
				/>
		</g>
	</g>
	<g>
		<g>
			<path class="st1" d="M58.5,21.9v15.8c0,3,1.8,5.4,4.1,5.4s4.1-2.4,4.1-5.4V21.9c0-3-1.8-5.4-4.1-5.4
				C60.4,16.4,58.5,18.9,58.5,21.9z"/>
		</g>
	</g>
</g>
</svg>
