<?xml version="1.0" encoding="utf-8"?>
<!-- Generator: Adobe Illustrator 24.1.1, SVG Export Plug-In . SVG Version: 6.00 Build 0)  -->
<svg version="1.1" id="Layer_1" xmlns="http://www.w3.org/2000/svg" xmlns:xlink="http://www.w3.org/1999/xlink" x="0px" y="0px"
	 viewBox="0 0 100 100" style="enable-background:new 0 0 100 100;" xml:space="preserve">
<style type="text/css">
	.st0{fill:#F44336;}
	.st1{fill:#FAFAFA;}
</style>
<path class="st0" d="M83.3,6.9H16.7c-5.5,0-9.9,4.4-9.9,9.9v66.5c0,5.5,4.4,9.9,9.9,9.9h66.5c5.5,0,9.9-4.4,9.9-9.9V16.7
	C93.1,11.3,88.7,6.9,83.3,6.9z"/>
<path class="st1" d="M72.8,65.5c2,2,2,5.3,0,7.3c-1,1-2.3,1.5-3.6,1.5c-1.3,0-2.6-0.5-3.6-1.5L50,57.3L34.5,72.8
	c-1,1-2.3,1.5-3.6,1.5c-1.3,0-2.6-0.5-3.6-1.5c-2-2-2-5.3,0-7.3L42.7,50L27.2,34.5c-2-2-2-5.3,0-7.3c2-2,5.3-2,7.3,0L50,42.7
	l15.5-15.5c2-2,5.3-2,7.3,0c2,2,2,5.3,0,7.3L57.3,50L72.8,65.5z"/>
</svg>
