<?xml version="1.0" encoding="utf-8"?>
<!-- Generator: Adobe Illustrator 24.1.1, SVG Export Plug-In . SVG Version: 6.00 Build 0)  -->
<svg version="1.1" id="Layer_1" xmlns="http://www.w3.org/2000/svg" xmlns:xlink="http://www.w3.org/1999/xlink" x="0px" y="0px"
	 viewBox="0 0 100 100" style="enable-background:new 0 0 100 100;" xml:space="preserve">
<style type="text/css">
	.st0{fill:none;stroke:#5A5A5A;stroke-width:5;stroke-miterlimit:10;}
	.st1{fill:none;stroke:#5A5A5A;stroke-width:4.5;stroke-miterlimit:10;}
</style>
<g>
	<g>
		<path class="st0" d="M39.3,34.9c0,0-0.5-10.2,10.7-11c0,0,10.8-0.7,11.3,11.2c0,0,0,10.1-8.1,14.5c-1.5,0.8-3.4,0.9-5.1,0.1
			C44.8,48.3,39.7,44.4,39.3,34.9z"/>
		<path class="st0" d="M41.9,55.5l7,8.2c0.7,0.9,2,0.9,2.7,0l6.9-8.2c0.3-0.4,0.7-0.7,1.3-0.7c2.8-0.1,12.5,0.2,13.3,11.4
			c0,0.1,0,0.1,0,0.2v7.9c0,1-0.7,1.8-1.7,1.8H29.1c-1,0-1.7-0.8-1.7-1.8v-8.8c0-0.1,0-0.2,0-0.2c0.2-1.3,1.8-11.6,13.3-10.4
			C41.2,54.9,41.6,55.1,41.9,55.5z"/>
	</g>
	<g>
		<path class="st1" d="M69.6,39.9c0,0-0.4-8.2,8.3-8.9c0,0,8.4-0.5,8.8,9.1c0,0,0,8.1-6.3,11.7c-1.2,0.7-2.7,0.7-3.9,0.1
			C73.8,50.7,69.9,47.6,69.6,39.9z"/>
		<path class="st1" d="M67.7,56.1c0.9-0.1,1.9-0.2,3,0c0.4,0,0.7,0.2,0.9,0.5l5.4,6.6c0.5,0.7,1.6,0.7,2.1,0l5.3-6.6
			c0.2-0.3,0.6-0.5,1-0.5c2.2-0.1,9.6,0.1,10.3,9.2v0.1v6.4c0,0.8-0.6,1.5-1.3,1.5H74.3"/>
	</g>
	<g>
		<path class="st1" d="M23.6,52.2c-1.2,0.6-2.7,0.6-3.9-0.1c-6.3-3.6-6.3-11.7-6.3-11.7c0.4-9.6,8.8-9.1,8.8-9.1
			c8.7,0.6,8.3,8.9,8.3,8.9C30.1,47.8,26.2,51,23.6,52.2z"/>
		<path class="st1" d="M25.7,73.5H5.6c-0.8,0-1.3-0.6-1.3-1.5v-6.4v-0.1c0.6-9.1,8.1-9.3,10.3-9.2c0.4,0,0.8,0.2,1,0.5l5.3,6.6
			c0.5,0.7,1.6,0.7,2.1,0l5.4-6.6c0.2-0.3,0.6-0.5,0.9-0.5c1.1-0.1,2.1-0.1,3,0"/>
	</g>
</g>
</svg>
