<?xml version="1.0" encoding="utf-8"?>
<!-- Generator: Adobe Illustrator 24.1.1, SVG Export Plug-In . SVG Version: 6.00 Build 0)  -->
<svg version="1.1" id="Layer_1" xmlns="http://www.w3.org/2000/svg" xmlns:xlink="http://www.w3.org/1999/xlink" x="0px" y="0px"
	 viewBox="0 0 320 320" style="enable-background:new 0 0 320 320;" xml:space="preserve">
<style type="text/css">
	.st0{fill:#E67840;}
	.st1{fill:#E98F60;}
	.st2{fill:#E57442;}
	.st3{fill:#DB5E26;}
	.st4{fill:#8AD5FF;}
	.st5{fill:#69B1E2;}
	.st6{opacity:0.25;fill:#8AD5FF;}
	.st7{fill:#44A3D8;}
	.st8{fill:#007DDB;}
	.st9{fill:#02599B;}
	.st10{fill:#005EB2;}
	.st11{fill:#027AD3;}
	.st12{fill:#005391;}
	.st13{fill:#78CBF9;}
	.st14{fill:#5877A6;}
	.st15{fill:#4E72BD;}
	.st16{opacity:0.25;fill:#598DEA;}
	.st17{opacity:0.5;fill:#405F9A;}
</style>
<g>
	<g>
		<g>
			<polygon class="st0" points="212.7,204 212.7,316 173.1,316 173.1,146.1 190.4,146.1 190.4,199.9 			"/>
			<polygon class="st1" points="212.7,204 212.7,316 190.4,316 190.4,199.9 			"/>
			<polygon class="st2" points="212.7,146.1 212.7,204 190.4,199.9 190.4,146.1 			"/>
			<polygon class="st3" points="190.4,146.1 190.4,199.9 190,199.9 173.1,174 173.1,146.1 			"/>
			<path class="st4" d="M292.9,74.9v82c0,7.9-6.1,14.3-13.7,14.3H49.8V74.9c0-29.6,23.1-53.6,51.6-53.6h139.8
				c3.9,0,7.6,0.4,11.2,1.3c21.2,4.9,37.6,23.4,40.1,46.2C292.7,70.8,292.9,72.9,292.9,74.9z"/>
			<path class="st5" d="M279.1,165.6H49.8v5.6h229.3c7.6,0,13.7-6.4,13.7-14.3v-5.6C292.9,159.2,286.7,165.6,279.1,165.6z"/>
			<path class="st5" d="M292.9,75.7v51.5H152.8V69.8h139.8C292.7,71.8,292.9,73.7,292.9,75.7z"/>
			<path class="st6" d="M292.5,68.8c-2.9-26.7-24.8-47.5-51.3-47.5h-13.9c26.5,0,48.4,20.8,51.3,47.5c0.2,2,0.3,4,0.3,6.1v82
				c0,7.9-6.1,14.3-13.7,14.3h13.9c7.6,0,13.7-6.4,13.7-14.3v-82C292.9,72.9,292.7,70.8,292.5,68.8z"/>
			
				<ellipse transform="matrix(0.2281 -0.9736 0.9736 0.2281 49.2894 241.972)" class="st7" cx="177.3" cy="89.9" rx="13.3" ry="13.3"/>
			<path class="st8" d="M245.9,10.5l-6.1-4.1c-6.7-4.5-15.7-2.7-20.2,4l-2.3,3.5l-1.9,2.9l-44.5,66.5l12.4,8.3l43.1-64.4
				c0.8-1.2,2.3-1.5,3.5-0.7l3.4,2.3c4.8,3.2,11.5,2.5,15.1-2.1C252.5,21.6,251.3,14.1,245.9,10.5z"/>
			<path class="st9" d="M215.8,21.5l1.9-2.9l3.4-5c3.9-5.8,11.8-7.4,17.7-3.5l7.6,5.1c2.2,1.5,3.7,3.5,4.4,5.9
				c0.4-4-1.3-8.1-4.9-10.5l-5.9-4c-6.8-4.5-15.9-2.7-20.5,4.1l-2.2,3.3l-1.9,2.9l-44.5,66.5l2.5,1.6L215.8,21.5z"/>
			
				<ellipse transform="matrix(0.1593 -0.9872 0.9872 0.1593 60.6493 248.0683)" class="st10" cx="176" cy="88.4" rx="13.3" ry="13.3"/>
			<path class="st11" d="M164.7,89.8c0-7.4,6-13.3,13.3-13.3c2.2,0,4.4,0.6,6.2,1.5c-2.3-1.8-5.1-2.9-8.3-2.9
				c-7.4,0-13.3,6-13.3,13.3c0,5.1,2.9,9.6,7.1,11.8C166.7,97.8,164.7,94,164.7,89.8z"/>
			<circle class="st12" cx="176.8" cy="89.3" r="5.1"/>
			<path class="st9" d="M171.7,89.2c0-2.8,2.3-5.1,5.1-5.1c1.2,0,2.3,0.4,3.2,1.1c-0.9-1.2-2.4-1.9-4-1.9c-2.8,0-5.1,2.3-5.1,5.1
				c0,1.6,0.7,3,1.9,4C172.1,91.5,171.7,90.4,171.7,89.2z"/>
			<path class="st5" d="M47.1,171.2V75.7c0-30,24.4-54.4,54.4-54.4s54.4,24.4,54.4,54.4v95.4H47.1z"/>
			<path class="st13" d="M153.1,168.4H49.8V71.2c0-26,21.1-47.1,47.1-47.1h9c26,0,47.1,21.1,47.1,47.1V168.4z"/>
			<path class="st14" d="M150.3,75.7v89.9H52.6V75.7c0-17.7,9.5-33.2,23.6-41.8c7.4-4.5,16-7,25.2-7
				C128.4,26.9,150.3,48.8,150.3,75.7z"/>
			<line class="st15" x1="52.6" y1="165.5" x2="150.3" y2="165.5"/>
			<path class="st4" d="M53.5,168.4h99.6l-29.7,42.4c-14.9,21.2-39.5,33.9-65.9,33.9h0c-24.4,0-38.8-26.7-25-46.4L53.5,168.4z"/>
			<path class="st5" d="M57.5,242.1c-10.5,0-19.6-5.4-24.5-14.5c-4.9-9.1-4.2-19.5,1.7-27.9l20.2-28.8h93.3l-27,38.4
				C106.8,229.8,83,242.1,57.5,242.1z"/>
			<path class="st16" d="M64,236.2c-11,0-20.6-5.7-25.7-15.2c-4.6-8.6-4.5-18.4,0.2-26.8l-3.8,5.4c-5.9,8.4-6.6,18.9-1.7,27.9
				c4.9,9.1,14,14.5,24.5,14.5c19.2,0,37.5-7,51.5-19.2C95.8,231.5,80.2,236.2,64,236.2z"/>
			<path class="st17" d="M150.3,75.7v89.9h-21.9c0.1-3,0.2-5.9,0.4-8.8C138.9,17.4,76,34.3,76,34.3l0.2-0.4c7.4-4.5,16-7,25.2-7
				C128.4,26.9,150.3,48.8,150.3,75.7z"/>
		</g>
	</g>
</g>
</svg>
