<?xml version="1.0" encoding="utf-8"?>
<!-- Generator: Adobe Illustrator 24.1.1, SVG Export Plug-In . SVG Version: 6.00 Build 0)  -->
<svg version="1.1" id="Layer_1" xmlns="http://www.w3.org/2000/svg" xmlns:xlink="http://www.w3.org/1999/xlink" x="0px" y="0px"
	 viewBox="0 0 320 320" style="enable-background:new 0 0 320 320;" xml:space="preserve">
<style type="text/css">
	.st0{fill:#FFFFFF;}
	.st1{fill:#B6B19E;}
	.st2{fill:#8DA9B0;}
	.st3{fill:#5F665F;}
	.st4{fill:#FFC891;}
	.st5{fill:#43B0F9;}
</style>
<g>
	<g>
		<g>
			<polygon class="st0" points="123.9,11.2 123.9,206.5 280.6,206.5 280.6,53.4 238.3,11.2 			"/>
			<polygon class="st1" points="280.6,53.4 238.3,11.2 238.3,53.4 			"/>
		</g>
		<rect x="187.7" y="36.6" class="st2" width="39.5" height="6.3"/>
		<rect x="157" y="66.6" class="st2" width="101.1" height="5.9"/>
		<rect x="157" y="84.7" class="st2" width="101.1" height="5.9"/>
		<rect x="157" y="102.8" class="st2" width="101.1" height="5.9"/>
		<rect x="157" y="120.9" class="st2" width="101.1" height="5.9"/>
		<rect x="157" y="139" class="st2" width="101.1" height="5.9"/>
		<rect x="157" y="157.1" class="st2" width="101.1" height="5.9"/>
		<rect x="157" y="175.2" class="st2" width="101.1" height="5.9"/>
		<path class="st3" d="M145,80.1c0,2.9-2.4,5.3-5.3,5.3c-2.9,0-5.3-2.3-5.3-5.3c0-2.9,2.4-5.3,5.3-5.3C142.6,74.8,145,77.2,145,80.1
			z"/>
		<path class="st3" d="M145,139c0,2.9-2.4,5.3-5.3,5.3c-2.9,0-5.3-2.3-5.3-5.3c0-2.9,2.4-5.3,5.3-5.3C142.6,133.7,145,136.1,145,139
			z"/>
	</g>
	<g>
		<g>
			<path class="st4" d="M170.5,159.5c0,0-8-5.2-23,17.6c-6.5,9.9-17,20.7-23.7,24.6v-57.5L103,168.5c0,0-4.4,65.7-11.9,74.4
				c-1.8,5.5-4.1,10.5-14.8,20.9c0,0,26.8,22.1,33.9,14.1c0,0,3.3-10.1,13.6-22.3c2.3-2.7,5.1-5.6,8-8.8
				c8.1-8.9,17.2-20.4,19.5-36.1c0,0,0-7.7,10.6-21.8C181.3,163.3,170.5,159.5,170.5,159.5z"/>
			<path class="st0" d="M156.2,169.3c0,0,7-8.2,11.3-6.4c5.5,2.3-0.1,12.6-1.4,13.7C166.1,176.7,159.1,176.7,156.2,169.3z"/>
		</g>
		<polygon class="st0" points="113.2,293.6 68.2,270 83.1,246 124.9,271.3 		"/>
		<polygon class="st5" points="73,255.2 121.6,285.4 111,308.8 39.4,308.8 		"/>
	</g>
</g>
</svg>
