<?xml version="1.0" encoding="utf-8"?>
<!-- Generator: Adobe Illustrator 24.1.1, SVG Export Plug-In . SVG Version: 6.00 Build 0)  -->
<svg version="1.1" id="Layer_1" xmlns="http://www.w3.org/2000/svg" xmlns:xlink="http://www.w3.org/1999/xlink" x="0px" y="0px"
	 viewBox="0 0 320 320" style="enable-background:new 0 0 320 320;" xml:space="preserve">
<style type="text/css">
	.st0{fill:#0080B1;}
	.st1{fill:#FFFFFF;}
	.st2{fill:#1A2E35;}
	.st3{fill:#FF9D77;}
	.st4{fill:#FF793A;}
	.st5{fill:#4578A8;}
	.st6{fill:#27B2E4;}
	.st7{fill:#ECECEC;}
	.st8{fill:#E1E1E1;}
</style>
<g>
	<g>
		<path class="st0" d="M18.3,80.6l6.9,116.9c0.2,4.2,3.7,7.4,7.9,7.4l210.3,0.6c4.4,0,7.9-3.5,7.9-7.9l0.3-91c0-4.4-3.5-7.9-7.9-7.9
			l-129.4,0.4c-2.1,0-4.1-0.8-5.6-2.3L86.3,74.7c-1.5-1.5-3.5-2.3-5.5-2.3l-54.5-0.2C21.7,72.2,18.1,76,18.3,80.6z"/>
	</g>
	<g>
		<g>
			<g>
				
					<rect x="34.5" y="55.7" transform="matrix(0.606 -0.7955 0.7955 0.606 -44.506 112.8009)" class="st1" width="114.2" height="91.3"/>
				<g>
					<path class="st2" d="M89.9,28.3c0,0-0.1,0.2-0.3,0.4c-0.2,0.3-0.5,0.7-1,1.3c-0.9,1.1-2.1,2.8-3.7,4.9
						c-3.3,4.3-8.1,10.6-14.1,18.6c-12.1,16-29.4,38.7-49.9,65.7l0-0.3c21.6,16.5,46.4,35.3,72.6,55.3l0,0l-0.4,0
						c25.6-33.6,49.4-64.8,69.2-90.8l0,0.3c-21.8-16.7-39.9-30.5-52.6-40.2c-6.3-4.8-11.3-8.7-14.7-11.2c-1.7-1.3-3-2.3-3.9-3
						C90.4,28.6,89.9,28.3,89.9,28.3s0.4,0.3,1.3,1c0.9,0.7,2.2,1.6,3.9,2.9c3.4,2.6,8.4,6.3,14.7,11.1
						c12.7,9.7,30.9,23.5,52.8,40.1l0.2,0.1l-0.1,0.2c-19.8,26-43.5,57.2-69.1,90.8l-0.2,0.2l-0.2-0.2l0,0
						c-26.2-20-51-38.9-72.6-55.3l-0.2-0.1l0.1-0.2c20.6-27,37.9-49.7,50.1-65.6c6.1-7.9,10.9-14.2,14.2-18.5
						c1.6-2.1,2.9-3.8,3.7-4.9c0.4-0.5,0.7-1,1-1.2C89.8,28.4,89.9,28.3,89.9,28.3z"/>
				</g>
			</g>
		</g>
		
			<rect x="38.5" y="61.5" transform="matrix(0.606 -0.7955 0.7955 0.606 -44.5709 112.7882)" class="st3" width="106.1" height="79.8"/>
		<polygon class="st4" points="91.1,168.8 74.2,109.2 112.7,109.8 109,87.3 155.5,84.3 		"/>
		<g>
			<g>
				
					<ellipse transform="matrix(0.9908 -0.1352 0.1352 0.9908 -10.7419 12.1469)" class="st4" cx="84.1" cy="85.2" rx="8.4" ry="8.4"/>
			</g>
		</g>
	</g>
	<g>
		<g>
			<g>
				
					<rect x="118.5" y="14.6" transform="matrix(4.110203e-02 -0.9992 0.9992 4.110203e-02 80.5994 271.9764)" class="st1" width="127" height="158.9"/>
				<g>
					<path class="st2" d="M264,33.8c0,0-0.3,0-0.8,0c-0.5,0-1.2,0-2.2-0.1c-2-0.1-4.8-0.2-8.6-0.3c-7.5-0.3-18.5-0.7-32.5-1.3
						c-27.9-1.1-67.5-2.7-114.7-4.6l0.2-0.2c-1.5,37.8-3.3,81.1-5.2,126.9l0,0l-0.2-0.3c58.8,2.4,113.4,4.7,158.7,6.6l-0.2,0.2
						c1.6-38.2,3-69.9,3.9-92.1c0.5-11.1,0.9-19.8,1.1-25.7c0.1-3,0.2-5.2,0.3-6.8C263.9,34.6,264,33.8,264,33.8s0,0.8-0.1,2.3
						c-0.1,1.5-0.1,3.8-0.3,6.7c-0.2,5.9-0.6,14.6-1,25.7c-0.9,22.2-2.2,53.9-3.7,92.2l0,0.2l-0.2,0c-45.4-1.9-100-4.1-158.7-6.5
						l-0.3,0l0-0.3l0,0c1.9-45.8,3.7-89.1,5.2-126.9l0-0.2l0.2,0c47.2,2,86.9,3.7,114.8,4.8c13.9,0.6,24.9,1.1,32.4,1.4
						c3.7,0.2,6.6,0.3,8.6,0.4c1,0,1.7,0.1,2.2,0.1C263.7,33.8,264,33.8,264,33.8z"/>
				</g>
			</g>
		</g>
		
			<rect x="126.4" y="20.1" transform="matrix(4.110208e-02 -0.9992 0.9992 4.110208e-02 80.5043 271.8688)" class="st5" width="111" height="147.7"/>
		<polygon class="st6" points="105.8,146.4 160.2,79.6 190.4,124 213,101.9 253.4,152.5 		"/>
		<g>
			<g>
				
					<ellipse transform="matrix(0.2188 -0.9758 0.9758 0.2188 81.0975 246.3677)" class="st6" cx="194.4" cy="72.5" rx="11.6" ry="11.6"/>
			</g>
		</g>
	</g>
	<g>
		<polygon class="st7" points="271.7,88.4 56.6,118 79.4,275.5 292.7,245.4 		"/>
		<polygon class="st8" points="272.5,68.7 59.9,112.8 93.3,268.4 304.1,224 		"/>
		<g>
			<g>
				<polygon class="st1" points="253.7,51.3 49,123.3 102.8,273 305.7,200.9 				"/>
				<g>
					<path class="st2" d="M253.7,51.3c0.6,1.6,20.6,59,52.2,149.6l0.1,0.2l-0.2,0.1c-57,20.3-127.2,45.2-202.9,72.2l-0.2,0.1
						l-0.1-0.2c-0.1-0.3-0.3-0.7-0.4-1.1C83,218.7,64.8,168.2,48.7,123.4l-0.1-0.2l0.2-0.1C170,80.6,251.8,51.9,253.7,51.3
						c-1.9,0.7-83.6,29.5-204.7,72.3l0.1-0.3c16.1,44.8,34.3,95.3,53.5,148.7c0.1,0.4,0.3,0.7,0.4,1.1l-0.3-0.2
						c75.8-26.9,145.9-51.8,203-72.1l-0.1,0.3C274.1,110.3,254.3,52.9,253.7,51.3z"/>
				</g>
			</g>
			<g>
				<path class="st2" d="M259.5,194.9c-0.4,0.1-10.2-25.4-22-57c-11.7-31.7-20.9-57.4-20.5-57.6c0.4-0.1,10.2,25.4,22,57
					C250.7,169,259.9,194.7,259.5,194.9z"/>
			</g>
			<g>
				<path class="st2" d="M242,202.9c-0.4,0.1-10.2-25.4-22-57c-11.7-31.7-20.9-57.4-20.5-57.6c0.4-0.1,10.2,25.4,22,57
					C233.2,177,242.4,202.7,242,202.9z"/>
			</g>
			<g>
				<path class="st2" d="M187.7,225.6c-0.4,0.1-10.2-25.4-22-57c-11.7-31.7-20.9-57.4-20.5-57.6c0.4-0.1,10.2,25.4,22,57
					C178.9,199.7,188.1,225.5,187.7,225.6z"/>
			</g>
			<g>
				<path class="st2" d="M205,218.7c-0.4,0.1-10.2-25.4-22-57c-11.7-31.7-20.9-57.4-20.5-57.6c0.4-0.1,10.2,25.4,22,57
					C196.2,192.7,205.4,218.5,205,218.7z"/>
			</g>
			<g>
				<path class="st2" d="M222.3,211.7c-0.4,0.1-10.2-25.4-22-57c-11.7-31.7-20.9-57.4-20.5-57.6c0.4-0.1,10.2,25.4,22,57
					C213.5,185.8,222.7,211.5,222.3,211.7z"/>
			</g>
			<g>
				<path class="st2" d="M167.7,231.4c-0.4,0.1-10.2-25.4-22-57c-11.7-31.7-20.9-57.4-20.5-57.6c0.4-0.1,10.2,25.4,22,57
					C158.9,205.5,168.1,231.2,167.7,231.4z"/>
			</g>
			<g>
				<path class="st2" d="M148.5,238.4c-0.4,0.1-10.2-25.4-22-57c-11.7-31.7-20.9-57.4-20.5-57.6c0.4-0.1,10.2,25.4,22,57
					C139.7,212.5,148.9,238.3,148.5,238.4z"/>
			</g>
			<g>
				<path class="st2" d="M129.3,245.4c-0.4,0.1-10.2-25.4-22-57c-11.7-31.7-20.9-57.4-20.5-57.6c0.4-0.1,10.2,25.4,22,57
					C120.5,219.5,129.7,245.3,129.3,245.4z"/>
			</g>
		</g>
	</g>
	<path class="st6" d="M14,144.5l17.1,143.3c0.3,2.5,2.5,4.5,5,4.5l224,0.7c2.6,0,4.9-2,5.1-4.7l11.7-143.2c0.2-3-2.1-5.5-5-5.5
		l-252.8-0.8C16,138.8,13.7,141.5,14,144.5z"/>
</g>
</svg>
