<?xml version="1.0" encoding="utf-8"?>
<!-- Generator: Adobe Illustrator 24.1.1, SVG Export Plug-In . SVG Version: 6.00 Build 0)  -->
<svg version="1.1" id="Layer_1" xmlns="http://www.w3.org/2000/svg" xmlns:xlink="http://www.w3.org/1999/xlink" x="0px" y="0px"
	 viewBox="0 0 320 320" style="enable-background:new 0 0 320 320;" xml:space="preserve">
<style type="text/css">
	.st0{fill:#0B3C65;}
	.st1{fill:#FFFFFF;}
	.st2{fill:#CFE4EA;}
	.st3{fill:#FF8327;}
	.st4{fill:#0172D0;}
	.st5{fill:#D13E2F;}
	.st6{fill:#012156;}
	.st7{fill-rule:evenodd;clip-rule:evenodd;fill:#E4F7F9;}
	.st8{fill-rule:evenodd;clip-rule:evenodd;fill:#D7F2F4;}
	.st9{fill-rule:evenodd;clip-rule:evenodd;fill:#1A293D;}
	.st10{fill-rule:evenodd;clip-rule:evenodd;fill:#B6C7E6;}
	.st11{fill-rule:evenodd;clip-rule:evenodd;fill:#9EB1D9;}
	.st12{fill-rule:evenodd;clip-rule:evenodd;fill:#01020E;}
	.st13{fill-rule:evenodd;clip-rule:evenodd;fill:#BFCCE8;}
	.st14{fill-rule:evenodd;clip-rule:evenodd;fill:#E8685B;}
	.st15{fill-rule:evenodd;clip-rule:evenodd;fill:#F4AD85;}
	.st16{fill-rule:evenodd;clip-rule:evenodd;fill:#EF8871;}
	.st17{fill-rule:evenodd;clip-rule:evenodd;fill:#E5736A;}
	.st18{fill-rule:evenodd;clip-rule:evenodd;fill:#0F1630;}
	.st19{fill-rule:evenodd;clip-rule:evenodd;fill:#01061B;}
	.st20{fill-rule:evenodd;clip-rule:evenodd;fill:#000716;}
	.st21{fill-rule:evenodd;clip-rule:evenodd;fill:#010D20;}
	.st22{fill-rule:evenodd;clip-rule:evenodd;fill:#FFFFFF;}
	.st23{fill-rule:evenodd;clip-rule:evenodd;fill:#E2E8F5;}
	.st24{fill-rule:evenodd;clip-rule:evenodd;fill:#008689;}
	.st25{fill-rule:evenodd;clip-rule:evenodd;fill:#5BB9BD;}
	.st26{fill-rule:evenodd;clip-rule:evenodd;fill:#FBE3D5;}
	.st27{fill-rule:evenodd;clip-rule:evenodd;fill:#EC7962;}
	.st28{fill-rule:evenodd;clip-rule:evenodd;fill:#F19877;}
	.st29{fill-rule:evenodd;clip-rule:evenodd;fill:#D6F0F2;}
	.st30{fill-rule:evenodd;clip-rule:evenodd;fill:#E2B099;}
	.st31{fill-rule:evenodd;clip-rule:evenodd;fill:#0CB0C6;}
	.st32{fill-rule:evenodd;clip-rule:evenodd;fill:#E89B74;}
	.st33{fill-rule:evenodd;clip-rule:evenodd;fill:#0E1632;}
	.st34{fill-rule:evenodd;clip-rule:evenodd;fill:#383D5D;}
	.st35{fill-rule:evenodd;clip-rule:evenodd;fill:#009CF8;}
	.st36{fill-rule:evenodd;clip-rule:evenodd;fill:#E7F2FA;}
	.st37{fill-rule:evenodd;clip-rule:evenodd;fill:#B1C0E2;}
	.st38{fill-rule:evenodd;clip-rule:evenodd;fill:#F08D1B;}
	.st39{fill-rule:evenodd;clip-rule:evenodd;fill:#F9C00B;}
	.st40{fill-rule:evenodd;clip-rule:evenodd;fill:#F5A70E;}
	.st41{fill-rule:evenodd;clip-rule:evenodd;fill:#ED9072;}
	.st42{fill-rule:evenodd;clip-rule:evenodd;fill:#250C07;}
	.st43{fill-rule:evenodd;clip-rule:evenodd;fill:#DAE9FC;}
	.st44{fill-rule:evenodd;clip-rule:evenodd;fill:#ACCCEF;}
	.st45{fill-rule:evenodd;clip-rule:evenodd;fill:#A7C7EA;}
	.st46{fill-rule:evenodd;clip-rule:evenodd;fill:#E6E8F4;}
	.st47{fill-rule:evenodd;clip-rule:evenodd;fill:#F4F5FA;}
	.st48{fill-rule:evenodd;clip-rule:evenodd;fill:#C6C6E3;}
	.st49{fill-rule:evenodd;clip-rule:evenodd;fill:#ACABBB;}
	.st50{fill-rule:evenodd;clip-rule:evenodd;fill:#DBDCDC;}
</style>
<g>
	<g>
		<g>
			<path class="st0" d="M315.1,54.8v162.8H4.9V54.8c0-5.1,4.1-9.3,9.3-9.3h291.7C310.9,45.5,315.1,49.6,315.1,54.8z"/>
			<path class="st1" d="M303.4,60.6v144.5c0,1.9-1.5,3.4-3.4,3.4H19.9c-0.7,0-1.4-0.2-1.9-0.6c-0.9-0.6-1.5-1.6-1.5-2.8V60.6
				c0-1.9,1.5-3.4,3.4-3.4H300c1.2,0,2.2,0.6,2.8,1.5C303.2,59.3,303.4,59.9,303.4,60.6z"/>
			<g>
				<path class="st2" d="M303.4,60.6V70H16.5v-9.3c0-1.9,1.5-3.4,3.4-3.4H300c1.2,0,2.2,0.6,2.8,1.5
					C303.2,59.3,303.4,59.9,303.4,60.6z"/>
				<g>
					<path class="st3" d="M281.3,63.9c0,1.3-1.1,2.4-2.4,2.4c-1.3,0-2.4-1.1-2.4-2.4c0-1.3,1.1-2.4,2.4-2.4
						C280.3,61.5,281.3,62.6,281.3,63.9z"/>
					<path class="st4" d="M289.1,63.9c0,1.3-1.1,2.4-2.4,2.4c-1.3,0-2.4-1.1-2.4-2.4c0-1.3,1.1-2.4,2.4-2.4
						C288,61.5,289.1,62.6,289.1,63.9z"/>
					<path class="st5" d="M296.4,63.9c0,1.3-1.1,2.4-2.4,2.4c-1.3,0-2.4-1.1-2.4-2.4c0-1.3,1.1-2.4,2.4-2.4
						C295.4,61.5,296.4,62.6,296.4,63.9z"/>
				</g>
			</g>
			<path class="st6" d="M315.1,217.5c0,4.1-1,8-2.8,11.4c-1.2,2.2-2.6,4.2-4.4,6c-2.6,2.6-5.9,4.7-9.5,5.9c-2.5,0.8-5.1,1.3-7.9,1.3
				H29.5c-4.7,0-9.1-1.3-12.9-3.6c-0.9-0.6-1.8-1.2-2.7-1.9c-0.4-0.3-0.8-0.7-1.2-1.1c-0.2-0.2-0.4-0.4-0.6-0.6
				c-1.7-1.7-3.2-3.7-4.4-5.9c-1.8-3.4-2.8-7.3-2.8-11.4H315.1z"/>
			<path class="st1" d="M12.7,235.4c0.4,0.4,0.8,0.7,1.2,1.1C13.5,236.2,13.1,235.8,12.7,235.4z"/>
			<path class="st1" d="M298.5,240.8c-2.5,0.8-5.1,1.3-7.9,1.3H29.5c-4.7,0-9.1-1.3-12.9-3.6c3.7,2.3,8.1,3.6,12.9,3.6h261.1
				C293.3,242.1,296,241.6,298.5,240.8z"/>
			<path class="st0" d="M183.2,228.6v0.7c0,1.6-1.3,2.9-2.9,2.9h-40.7c-1.6,0-2.9-1.3-2.9-2.9v-0.7c0-1.6,1.3-2.9,2.9-2.9h40.7
				C181.9,225.7,183.2,227,183.2,228.6z"/>
			<rect x="114.2" y="242.1" class="st6" width="91.7" height="19.1"/>
			<path class="st0" d="M238.9,274.5H81.2l0,0c0-7.3,5.9-13.1,13.1-13.1h131.4C233,261.4,238.9,267.2,238.9,274.5L238.9,274.5z"/>
		</g>
	</g>
	<g>
		<path class="st7" d="M27,82.9h78c1,0,1.7,0.8,1.7,1.7V149c0,1-0.8,1.8-1.7,1.8H27c-1,0-1.7-0.8-1.7-1.8V84.6
			C25.3,83.7,26.1,82.9,27,82.9z"/>
		<path class="st8" d="M27,82.9h0.3v67.8H27c-0.2,0-0.5,0-0.7-0.1V83C26.6,82.9,26.8,82.9,27,82.9L27,82.9z M28.7,82.9h0.9v67.8
			h-0.9V82.9L28.7,82.9z M31,82.9h0.9v67.8H31V82.9L31,82.9z M33.3,82.9h0.9v67.8h-0.9V82.9L33.3,82.9z M35.6,82.9h0.9v67.8h-0.9
			V82.9L35.6,82.9z M37.9,82.9h0.9v67.8h-0.9V82.9L37.9,82.9z M40.2,82.9h0.9v67.8h-0.9V82.9L40.2,82.9z M42.5,82.9h0.9v67.8h-0.9
			V82.9L42.5,82.9z M44.8,82.9h0.9v67.8h-0.9V82.9L44.8,82.9z M47.1,82.9H48v67.8h-0.9V82.9L47.1,82.9z M49.4,82.9h0.9v67.8h-0.9
			V82.9L49.4,82.9z M51.7,82.9h0.9v67.8h-0.9V82.9L51.7,82.9z M54,82.9h0.9v67.8H54V82.9L54,82.9z M56.3,82.9h0.9v67.8h-0.9V82.9
			L56.3,82.9z M58.6,82.9h0.9v67.8h-0.9V82.9L58.6,82.9z M60.9,82.9h0.9v67.8h-0.9V82.9L60.9,82.9z M63.2,82.9h0.9v67.8h-0.9V82.9
			L63.2,82.9z M65.5,82.9h0.9v67.8h-0.9V82.9L65.5,82.9z M67.8,82.9h0.9v67.8h-0.9V82.9L67.8,82.9z M70.1,82.9h0.9v67.8h-0.9V82.9
			L70.1,82.9z M72.4,82.9h0.9v67.8h-0.9V82.9L72.4,82.9z M74.8,82.9h0.9v67.8h-0.9V82.9L74.8,82.9z M77.1,82.9H78v67.8h-0.9V82.9
			L77.1,82.9z M79.4,82.9h0.9v67.8h-0.9V82.9L79.4,82.9z M81.7,82.9h0.9v67.8h-0.9V82.9L81.7,82.9z M84,82.9h0.9v67.8H84V82.9
			L84,82.9z M86.3,82.9h0.9v67.8h-0.9V82.9L86.3,82.9z M88.6,82.9h0.9v67.8h-0.9V82.9L88.6,82.9z M90.9,82.9h0.9v67.8h-0.9V82.9
			L90.9,82.9z M93.2,82.9h0.9v67.8h-0.9V82.9L93.2,82.9z M95.5,82.9h0.9v67.8h-0.9V82.9L95.5,82.9z M97.8,82.9h0.9v67.8h-0.9V82.9
			L97.8,82.9z M100.1,82.9h0.9v67.8h-0.9V82.9L100.1,82.9z M102.4,82.9h0.9v67.8h-0.9V82.9L102.4,82.9z M104.7,82.9h0.3
			c0.2,0,0.5,0,0.7,0.1v67.6c-0.2,0.1-0.4,0.1-0.7,0.1h-0.3V82.9z"/>
		<path class="st9" d="M87.9,123.8c0,0,1.3,0.9,2.1,2.8c0.4,1.1,5,20.7,5.1,21.7c0.2,0.9,0,1.5-0.3,2.4h-5.3c0.2-0.3,0.2-0.8,0-1.4
			c-0.3-1-4.7-12.4-4.7-12.4S84.1,126.2,87.9,123.8z"/>
		<path class="st9" d="M61.8,120.6c0,0-1.7,0.2-4.1,1.2c-1.9,0.8-6.6,5.5-9,6.9c-2.2,1.3-2.5,1.9-3.2-0.8c-1.2-5-1.7-17.8-1.7-17.8
			l-4.6-0.2c0,0,0.1,22.6,2,25.3c1.9,2.8,5.6,3.1,21-4.5C62.3,130.8,64.9,125.2,61.8,120.6z"/>
		<path class="st10" d="M78.6,120c0,0,6.1,1.9,6.8,2.5l-0.5,12.9c0,0-3.8,11-4.2,12.7c-0.1,0.4-0.2,1.4-0.3,2.6H61.5
			c0.1-1.6,0.1-2.9,0-3.4c-0.3-1.7-3.2-13-3.2-13l0.5-12.9c0.7-0.5,7-1.9,7-1.9l6.3,2.4L78.6,120z"/>
		<path class="st11" d="M78.6,120c0,0,6.1,1.9,6.8,2.5l-0.4,9.9l-0.5,4c-0.9,2.7-3.5,10.3-3.9,11.7c-0.1,0.4-0.2,1.4-0.3,2.6h-8
			c0-1.6,0-2.8,0-2.8l2.4-7.2c0,0-0.7-1.3-1-1.4c-0.2-0.1-4.5-0.3-5-0.3c-0.5,0-1.8,0.9-1.8,0.9l-1.4-4.8c0,0,9.7,0.3,9.9-0.3
			c0.2-0.6,1.4-7.1,1.5-7.8c0.1-0.7-1.6-3.8-1.6-3.8c-0.1-0.8-0.1-1.5,0.1-2.2L78.6,120z"/>
		
			<rect x="66.2" y="106" transform="matrix(4.159019e-02 -0.9991 0.9991 4.159019e-02 -44.6362 181.8738)" class="st12" width="12.5" height="16.3"/>
		<path class="st13" d="M76.9,118.4c-1.5-0.6-3-0.9-4.5-1c-1.5-0.1-3,0.1-4.6,0.6l0.4,1.5l4.1,0.4l4.1-0.1L76.9,118.4z"/>
		<path class="st14" d="M72.6,112.4L72.6,112.4c1.9,0.1,3.3,1.6,3.2,3.5l-0.2,3.9c-0.1,1.8-1.6,3.3-3.5,3.2l-0.1,0
			c-1.8-0.1-3.3-1.6-3.2-3.5l0.2-3.9C69.2,113.7,70.7,112.3,72.6,112.4z"/>
		<g>
			<path class="st14" d="M66.8,104.2c1.3,0.3,2.1,1.5,1.8,2.8c-0.3,1.3-1.5,2.1-2.8,1.8c-1.3-0.3-2.1-1.5-1.8-2.8
				C64.3,104.8,65.6,103.9,66.8,104.2z"/>
			<path class="st14" d="M82,107.5c1.3,0.3,2.1,1.5,1.8,2.8c-0.3,1.3-1.5,2.1-2.8,1.8c-1.3-0.3-2.1-1.5-1.8-2.8
				C79.5,108,80.8,107.2,82,107.5z"/>
		</g>
		<path class="st15" d="M76.8,94.9L76.8,94.9c4.2,0.9,6.8,5.2,5.9,9.5l-1.5,7.2c-0.9,4.3-5.1,7.2-9.3,6.3l0,0
			c-4.2-0.9-6.8-5.2-5.9-9.5l1.5-7.2C68.5,96.8,72.6,94,76.8,94.9z"/>
		<path class="st16" d="M76.8,94.9L76.8,94.9c4.2,0.9,6.8,5.2,5.9,9.5l-1.5,7.2c-0.9,4.3-5.1,7.2-9.3,6.3l0,0
			c-0.1,0-0.3-0.1-0.4-0.1c3.6-0.1,5.7-1.4,6.7-3.1c3.8-6.4-3.2-9.1-5.4-12.1c-0.8-1-0.9-1.8-0.9-1.8c-0.9,1.7-3.7,3.8-5.1,4.2
			l0.8-3.8C68.4,96.8,72.6,94.1,76.8,94.9z"/>
		<g>
			<path class="st17" d="M72.2,112.3c0-0.2-0.1-0.3-0.2-0.3c-0.2,0-0.3,0.1-0.3,0.2c-0.1,0.4,0,0.8,0.2,1.1c0.2,0.3,0.5,0.5,0.9,0.6
				c0.4,0.1,0.8,0,1.1-0.2c0.3-0.2,0.5-0.5,0.6-0.9c0-0.2-0.1-0.3-0.2-0.3c-0.2,0-0.3,0.1-0.3,0.2c0,0.2-0.2,0.4-0.4,0.5
				c-0.2,0.1-0.4,0.2-0.6,0.1c-0.2,0-0.4-0.2-0.5-0.4C72.2,112.7,72.2,112.5,72.2,112.3z"/>
		</g>
		<path class="st18" d="M71.9,98.3c0,0-0.1,3.9,11,9.3l1.7-8.6l-5.1-5.5l-6-0.5c0,0-3.6,1.4-4,1.8c-0.4,0.4-3.4,5.5-3.4,5.5l0.6,2.9
			C66.7,103.4,69.5,103.2,71.9,98.3z"/>
		<path class="st19" d="M71.9,98.3c0,0-0.1,3.9,11,9.3l0.5-2.7C77.8,104.4,71.9,98.3,71.9,98.3L71.9,98.3z M66.4,102.1
			c2-0.5,4.1-1.6,5.4-3.8c-2.4,4.9-5.2,5-5.2,5L66.4,102.1z"/>
		<path class="st9" d="M78.4,119.7c0,0-1.9,14.4-2.2,15.5c-0.3,1.1-3.3,10.4-3.8,11.5c-0.1,0.2,0,1.8,0.1,4.1h9.3
			c1.1-5.7,2.8-13.2,2.8-13.2l3.2-13.7C84.7,122,82.3,120.9,78.4,119.7z"/>
		<path class="st20" d="M77.6,126c-0.5,4-1.2,8.6-1.3,9.1c-0.3,1.1-3.3,10.4-3.8,11.5c-0.1,0.2,0,1.8,0.1,4.1h0.8
			c0.2-1.8,0.5-3.7,0.7-4.1c0.4-0.9,7.7-12.6,7.9-13.4c0.2-0.8-1.2-7.6-1.2-7.6L77.6,126z"/>
		<path class="st21" d="M78.4,119.7c0,0-0.8,5.9-1.4,10.4c1.6-0.9,5.2-3,5.1-3.3c-0.1-0.4-2-6.5-2-6.5
			C79.6,120.1,79,119.9,78.4,119.7z"/>
		<path class="st22" d="M76.9,118.4c0,0,0.6,0.9,0.8,1.4c0,0,0.2,0.4,0.1,0.9c-0.2,0.6-2.4,5.5-2.4,5.5s-0.2,0.3-0.4,0
			c-0.3-0.2-2.3-3.3-2.3-3.3l3.8-4.1C76.6,118.6,76.8,118.4,76.9,118.4z"/>
		<path class="st22" d="M67.8,118.1c0,0-0.6,0.9-1,1.3c0,0-0.3,0.3-0.2,0.9c0.1,0.6,1.9,5.7,1.9,5.7s0.1,0.3,0.4,0
			c0.3-0.2,2.6-3.1,2.6-3.1l-3.4-4.4C68.1,118.2,67.8,118,67.8,118.1z"/>
		<path class="st9" d="M66.1,119.2c0,0,0.7,14.5,0.9,15.6c0.2,1.1,2.4,10.6,2.8,11.8c0.1,0.2-0.1,1.8-0.5,4.2h-9.2
			c-0.6-5.9-2.9-17.6-2.9-17.6l0.4-11.3C57.7,121.9,60.2,120.5,66.1,119.2z"/>
		<path class="st20" d="M66.4,125.5c0.2,4,0.5,8.6,0.6,9.2c0.2,1.1,2.4,10.6,2.8,11.8c0.1,0.2-0.1,1.8-0.5,4.2h-0.8
			c-0.1-1.9-0.2-3.9-0.3-4.3c-0.3-1-6.6-13.2-6.8-14c-0.2-0.8,1.8-7.4,1.8-7.4L66.4,125.5z"/>
		<path class="st21" d="M66.1,119.2c0,0,0.3,5.9,0.5,10.5c-1.6-1.1-4.9-3.4-4.8-3.8c0.1-0.4,2.6-6.3,2.6-6.3
			C64.9,119.4,65.5,119.3,66.1,119.2z"/>
		<path class="st18" d="M71.9,92c0,0,2.2-2.6,8.1-1.4c5.9,1.2,8.9,9,6.1,19.9c-2.8,10.9-6.2,13.1-11.1,12.6c0,0-0.2,0-0.2-0.3
			c0-0.3,4.5-4.1,5.7-10.5c0,0,0.5-2.3,0.6-2.9c0.1-0.6,1.2-5.8,1.2-5.8l-10.2-7.4l-4.8,4.1l0,2.4c0,0-1.2,5.8-1.6,7.7
			c-0.4,1.9-0.7,7.7,2,9.4c0,0,0.1,0.1,0,0.3c-0.1,0.2-5.6,0.3-6.8-4.1c-1.2-4.4,2.4-16.9,3.5-19.5C65.7,94.2,67.8,91.1,71.9,92z"/>
		<path class="st19" d="M87.1,104.4c-0.1,1.9-0.4,4-1,6.1c-2.8,10.9-6.2,13.1-11.1,12.6c0,0-0.2,0-0.2-0.3c0-0.3,4.5-4.1,5.7-10.5
			c0,0,0.5-2.3,0.6-2.9l1-4.7C83.8,105.2,85.5,105.2,87.1,104.4L87.1,104.4z M67.3,101.9l0,1c0,0-1.2,5.8-1.6,7.7
			c-0.4,1.9-0.7,7.7,2,9.4c0,0,0.1,0.1,0,0.3c-0.1,0.2-5.6,0.3-6.8-4.1c-0.8-2.8,0.4-8.9,1.7-13.6C64.1,102.6,65.7,102.4,67.3,101.9
			z"/>
		<path class="st20" d="M57.7,133.4c0.9-2.9,2.7-9.2,1.9-12.4c-0.1,0.1-0.3,0.1-0.4,0.1c0.8,3.1-1.1,9.5-2,12.3
			c0.2-0.1,0.3-0.1,0.5-0.2L57.7,133.4z"/>
		<path class="st15" d="M45.5,106.9c0.5-1.2,2-2.6,2.3-2.8c0.8-0.5-0.4-1-1.6-0.6c-0.9,0.3-1.9,1.6-2.1,1.5
			c-0.3-0.3,0.6-5.8,0.7-6.4c0-0.2-1-2.4-1.7,1.4c-0.2,1.1-0.2,2.6-0.3,2.7c-0.1,0.1-0.3,0-0.4-0.6c-0.1-0.6-0.7-4.2-1-4.5
			c-0.3-0.2-1.3-0.3-1.4,0.2c-0.1,0.6,0.6,3.9,0.6,4.6l0.1,1c0,0-1.1-0.3-1.3,0.8c0,0-1.2-0.1-1.3,1.1c-0.1,1.1,0,3.6,1.1,4.5
			c0.9,0.7,2.4,1,3.6,0.7C44.8,110.1,44.8,108.5,45.5,106.9z"/>
		<path class="st16" d="M45.5,106.9c0.3-0.8,1.2-1.7,1.7-2.3c0,0,0,0,0,0c-0.3,0.1-3,2.5-3.6,2.5c-0.6,0-1.7-3-2.7-3.8
			c0.9,2.5,1.3,3.5,0.6,3.8c-0.7,0.3-0.8,0.2-1.2-0.8c-0.3-1-0.6-1.1-0.6-0.5c0,0.6,0.4,1.4,0.2,1.6c-0.2,0.2-0.6,0.5-1,0
			c-0.2-0.3-0.5-0.8-0.7-1.2c0,1.2,0.2,3,1.1,3.7c0.9,0.7,2.4,1,3.6,0.7C44.8,110.1,44.8,108.5,45.5,106.9z"/>
		<path class="st20" d="M84.6,136.6c0.1-2.6,0.7-10,3.3-12.8c0.1,0.1,0.2,0.2,0.3,0.3c-3.1,3.1-3.2,13.3-3.2,13.5l-0.1-0.3
			c-0.1-0.3-0.2,0.3-0.2,0.3S84.6,136.9,84.6,136.6z"/>
		<path class="st22" d="M75,112.7c-0.3,1.3-1.6,2-2.9,1.7c-1.3-0.3-2-1.6-1.7-2.9l0,0c0.1-0.2,0.3-0.3,0.5-0.3l3.7,1
			C74.9,112.3,75,112.5,75,112.7L75,112.7z"/>
		<path class="st12" d="M27,81.4h78c0.9,0,1.7,0.4,2.3,0.9c0.6,0.6,0.9,1.4,0.9,2.3V149c0,0.9-0.4,1.7-0.9,2.3
			c-0.6,0.6-1.4,0.9-2.3,0.9H27c-0.9,0-1.7-0.4-2.3-0.9c-0.6-0.6-0.9-1.4-0.9-2.3V84.6c0-0.9,0.4-1.7,0.9-2.3
			C25.3,81.8,26.1,81.4,27,81.4L27,81.4z M105,84.3H27c-0.1,0-0.1,0-0.2,0.1c-0.1,0.1-0.1,0.1-0.1,0.2V149c0,0.1,0,0.1,0.1,0.2
			c0.1,0.1,0.1,0.1,0.2,0.1h78c0.1,0,0.1,0,0.2-0.1c0.1-0.1,0.1-0.1,0.1-0.2V84.6c0-0.1,0-0.1-0.1-0.2C105.1,84.4,105,84.3,105,84.3
			z"/>
	</g>
	<g>
		<path class="st23" d="M214.8,82.9h78c1,0,1.7,0.8,1.7,1.7V149c0,1-0.8,1.8-1.7,1.8h-78c-1,0-1.7-0.8-1.7-1.8V84.6
			C213.1,83.7,213.8,82.9,214.8,82.9z"/>
		<rect x="219.9" y="92.8" class="st11" width="25.4" height="28.6"/>
		<rect x="220.5" y="92.4" class="st10" width="25.4" height="28.6"/>
		<rect x="222.6" y="94.6" class="st22" width="21.1" height="24.3"/>
		<rect x="250.8" y="92.8" class="st11" width="24.2" height="20.7"/>
		<rect x="251.4" y="92.4" class="st10" width="24.2" height="20.7"/>
		<rect x="253.6" y="94.6" class="st22" width="19.9" height="16.4"/>
		<rect x="223.7" y="95.8" class="st23" width="19.1" height="21.9"/>
		<rect x="255.1" y="96" class="st23" width="17" height="13.5"/>
		<path class="st15" d="M245.8,150.7c2.1-5,6.4-14.8,6.4-14.8s2.2-12.2-1.2-12.5c0,0-2.6,1.3-4.4,8.4c-1.6,6.4-4.9,15.7-6,18.9
			H245.8z"/>
		<path class="st24" d="M252.7,122.5c0,0-7.7-0.5-6.9,12.2l4.8,3.2c0,0,6.7-6.9,6.4-8.5c-0.3-1.6-3.8-6.8-3.8-6.8L252.7,122.5z"/>
		<path class="st25" d="M252.7,122.5c0,0-0.1,0-0.2,0l-6.3,6.3c-0.1,0.4-0.2,0.8-0.2,1.2l7.4-7.4l-0.1-0.1L252.7,122.5L252.7,122.5z
			 M250.5,122.9l-3.7,3.7C247.9,124.4,249.3,123.4,250.5,122.9L250.5,122.9z M245.8,131.8l8.1-8.1c0.1,0.2,0.3,0.4,0.4,0.6l-8.5,8.5
			C245.8,132.4,245.8,132.1,245.8,131.8L245.8,131.8z M245.8,134.3l9.1-9.1c0.1,0.2,0.3,0.4,0.4,0.6l-9.1,9.1l-0.4-0.2
			C245.8,134.5,245.8,134.4,245.8,134.3L245.8,134.3z M247.1,135.5l8.7-8.7c0.1,0.2,0.2,0.4,0.4,0.7l-8.5,8.5L247.1,135.5
			L247.1,135.5z M248.6,136.6l8-8c0.1,0.3,0.2,0.5,0.3,0.7l-7.7,7.7L248.6,136.6L248.6,136.6z M250.1,137.6l0.5,0.3
			c0,0,3.4-3.5,5.2-6L250.1,137.6z"/>
		<path class="st19" d="M269.9,96.5c0,0,2.7,0.2,3.9,3.3c1.1,3.2-2.6,11.7,0,16.1c2.6,4.3,5.7,7.8-1.4,12.9
			c-6.1,4.4-17.8,1.8-20.9,1l-0.6-1.1c-1.2-0.7-2-1.7-2.5-2.6c-1-2.2-1.7-5.4-0.2-9c2.8-7.1,4.2-6.4,2.7-12.3
			c-1.5-5.8,1.7-9.9,4.8-12C258.7,90.8,268.5,87.4,269.9,96.5z"/>
		<path class="st12" d="M275.4,126c-0.7,0.9-1.7,1.8-3,2.7c-2.6,1.9-6.2,2.5-9.7,2.5c-4.4-2.1-11.5-5.7-10.7-10.9
			c1-6.4,6.2-8.3,6.2-8.3l3.9-1.1l9-3.9c0,0-1.5,6.5,2,10.2c3.4,3.6,2.2,7.2,2.2,7.2l-1.7,1.3C273.5,125.6,274.3,125.8,275.4,126z"
			/>
		<path class="st15" d="M275.8,123.4c0,0,2.9,1.3,6.5,8.8c3.2,6.8,6.7,15.3,7.5,18.4h-6.7c-2.8-4.1-7-12.8-7-12.8l-2.4-5
			C273.7,132.9,274.1,125.1,275.8,123.4z"/>
		<path class="st26" d="M245.5,135.2c0,0,3.3,3.1,6.2,5.3c0,0,0.3,0.1,0.5-0.1c0.2-0.2,0.5-0.9,0.5-0.9s0.1-0.2-0.1-0.5
			c-0.2-0.3-6.7-5.8-6.7-5.8s-0.2-0.1-0.3,0.1c-0.2,0.2-0.4,1.1-0.4,1.1S245.1,134.9,245.5,135.2z"/>
		<path class="st24" d="M273.1,123.7l2.7-0.2c0,0,7.5,0.3,7.7,11.4l-6.2,5.4c0,0-1.3-0.8-1.6-3.2
			C275.4,134.7,273.1,123.7,273.1,123.7z"/>
		<path class="st25" d="M274.3,123.6l1.1-0.1l-1.9,1.9l-0.2-0.8L274.3,123.6L274.3,123.6z M276.8,123.6l-3.1,3.1l0.2,0.8l3.7-3.7
			C277.3,123.7,277,123.7,276.8,123.6L276.8,123.6z M278.6,124.3l-4.4,4.4l0.2,0.8l4.9-4.9C279,124.6,278.8,124.5,278.6,124.3
			L278.6,124.3z M280.1,125.4c0.2,0.2,0.3,0.3,0.5,0.5l-5.8,5.8l-0.2-0.8L280.1,125.4L280.1,125.4z M281.3,126.8
			c0.1,0.2,0.3,0.4,0.4,0.6l-6.5,6.5c-0.1-0.3-0.1-0.6-0.2-0.8L281.3,126.8L281.3,126.8z M282.2,128.4c0.1,0.2,0.2,0.5,0.3,0.7
			l-6.9,6.9c0-0.3-0.1-0.5-0.2-0.9L282.2,128.4L282.2,128.4z M282.9,130.2l-7.1,7.1c0,0.3,0.1,0.6,0.2,0.8l7.1-7.1
			C283,130.8,282.9,130.5,282.9,130.2L282.9,130.2z M283.3,132.4l-6.9,6.9c0.1,0.2,0.3,0.4,0.4,0.6l6.6-6.6
			C283.4,133,283.3,132.7,283.3,132.4L283.3,132.4z M283.5,134.7c0,0,0,0.1,0,0.1l-1,0.9L283.5,134.7z"/>
		<path class="st27" d="M270.3,105.2c1.1-0.7,1.2,0.8,1.1,1.7c-0.1,0.9-0.7,2.1-1.5,2.2C269.1,109.1,269.7,105.5,270.3,105.2z"/>
		<path class="st25" d="M268.3,121.2c0,0,5.6,1.4,7.5,2.2c0,0,0.1,12.7,0.3,14.5c0.2,1.5-1.1,8.2-1.6,12.8h-22.9
			c0-0.7,0.1-1.4,0.1-2.2c0.1-5.2-1.1-9.8-1-10.6c0.2-1.7,0.3-14.5,0.3-14.5c1.9-0.8,7.5-2.2,7.5-2.2l3.5-1.4h2.9L268.3,121.2z"/>
		<path class="st24" d="M268.9,121.4c0.2,0.1,0.5,0.1,0.8,0.2l-18.8,18.8c0-0.3-0.1-0.6-0.1-0.9L268.9,121.4L268.9,121.4z
			 M273.6,150.7h-1l2.2-2.2c-0.1,0.4-0.1,0.8-0.2,1.2L273.6,150.7L273.6,150.7z M271,150.7l4-4c0.1-0.4,0.1-0.8,0.2-1.2l-5.2,5.2
			H271L271,150.7z M268.5,150.7l7-7c0.1-0.4,0.1-0.8,0.2-1.2l-8.2,8.2H268.5L268.5,150.7z M266,150.7l9.9-9.9
			c0.1-0.4,0.1-0.8,0.1-1.1l-11.1,11.1H266L266,150.7z M263.4,150.7l12.7-12.7c0,0,0-0.1,0-0.1c0-0.2,0-0.5-0.1-0.8l-13.6,13.6
			H263.4L263.4,150.7z M260.9,150.7l15.1-15.1c0-0.3,0-0.6,0-1l-16.1,16.1H260.9L260.9,150.7z M258.3,150.7l17.6-17.6
			c0-0.3,0-0.7,0-1l-18.6,18.6H258.3L258.3,150.7z M255.8,150.7l20.1-20.1l0-1l-21.1,21.1H255.8L255.8,150.7z M253.3,150.7
			l22.6-22.6l0-1l-23.6,23.6H253.3L253.3,150.7z M270.9,121.9l-19.8,19.8c0,0.3,0.1,0.6,0.1,0.9l20.5-20.5
			C271.4,122,271.2,122,270.9,121.9L270.9,121.9z M272.9,122.5l-21.5,21.5c0,0.3,0.1,0.6,0.1,0.9l22.2-22.2
			C273.4,122.6,273.1,122.5,272.9,122.5L272.9,122.5z M274.8,123.1l-23.2,23.2c0,0.3,0,0.6,0,1l23.9-23.9
			C275.3,123.3,275.1,123.2,274.8,123.1L274.8,123.1z M275.8,124.6l-24.2,24.2c0,0.3,0,0.7,0,1l24.3-24.3L275.8,124.6L275.8,124.6z
			 M250.6,138.1l17.1-17.1l-0.7-0.3L250.7,137c0,0.4,0,0.7-0.1,0.9C250.6,138,250.6,138,250.6,138.1L250.6,138.1z M250.8,135.4
			l15.1-15.1l-0.7-0.3l-14.4,14.4C250.8,134.7,250.8,135.1,250.8,135.4L250.8,135.4z M250.8,132.8l13-13h-1l-11.9,11.9
			C250.8,132.1,250.8,132.5,250.8,132.8L250.8,132.8z M250.9,130.2l10-10l-1.6,0.6l-8.3,8.3L250.9,130.2L250.9,130.2z M250.9,127.7
			l6.1-6.1c-0.4,0.1-0.9,0.2-1.4,0.4l-4.7,4.7L250.9,127.7L250.9,127.7z M250.9,125.1l2.5-2.5c-0.5,0.2-1,0.3-1.5,0.5l-1,1
			L250.9,125.1z"/>
		<path class="st22" d="M268.3,121.2c0,0,1.1,0.3,2.5,0.7l-0.6,0.8c-2.9,3.6-10.7,3.6-13.6,0l-0.6-0.8c1.4-0.4,2.5-0.7,2.5-0.7
			l3.5-1.4h2.9L268.3,121.2z"/>
		<path class="st27" d="M268.3,121.2c0,0-1.7-1.5-1.7-3.1c0-1.7,0-3.6,0-3.6l-3.3,0.7l-3.3-0.7c0,0,0,1.9,0,3.6
			c0,1.7-1.7,3.1-1.7,3.1C260.3,123.6,266.4,123.6,268.3,121.2z"/>
		<path class="st15" d="M266.6,115.2c0.8-0.9,3.3-4.8,3.6-8.1c0.4-3.3,0-9.4-6.9-9c-6.9-0.4-7.2,5.8-6.9,9c0.4,3.3,2.9,7.2,3.6,8.1
			C261.8,117.1,264.9,117.1,266.6,115.2z"/>
		<path class="st28" d="M268.9,111.4c0.6-1.3,1.2-2.9,1.3-4.2c0.3-2.7,0.1-7.5-4.1-8.7c-1.5,0.3-3,0.9-4.3,2
			c-4.8,4.3-5.3,7.5-5.3,7.5l0,0l2.3,1.1c0,0,0.1-2.2,3.4-2.8s4.1-1.6,4.5-2.3C266.9,103.9,271.2,106.5,268.9,111.4z"/>
		<path class="st19" d="M270.3,106c0,0-0.2,0-0.2-0.3c0-0.3,0-0.7,0-0.7s-2.4-1.5-2.8-4.2c0,0-0.9,3.4-4.4,4.3
			c-3.5,0.9-3.9,2.5-3.9,3.9c0,1.4,0.3,4-4.5,3.7c-4.8-0.3,0.9-13.9,1.8-14.8c0.9-0.9,10.6-3.9,11.1-3.6c0.5,0.3,3.8,9,3.8,9
			l-0.4,1.6C270.7,105,270.3,105.3,270.3,106z"/>
		<path class="st19" d="M250,119.9l-1.4,6.5c0,0,1.4,2.1,3.7,3.1c2.4,1,4.7,3.9,2.8,9.4c0,0-0.3,0.8,0.2,1c0.5,0.2,1-0.7,1.1-1.3
			c0,0,0.1,4.5,4.7,5.4c4.6,0.9,11.1-5,7.7-10.7c-3.4-5.7-8.7-2.7-8.7-15.3v-2.9c-0.1-0.2-0.3-0.4-0.6-0.7L250,119.9z"/>
		<path class="st12" d="M269.2,139.3c0.8-1.8,0.9-3.9-0.4-5.9c-3.4-5.7-8.7-2.7-8.7-15.3v-2.9c-0.1-0.2-0.3-0.4-0.6-0.7l-7.3,4.2
			c-0.2,0.5-0.3,1.1-0.4,1.7c-1,6.4,10.1,10.3,13.2,12.2C267,133.6,269.2,136.4,269.2,139.3z"/>
		<path class="st26" d="M283.9,135.7c0,0-3.3,3.1-6.2,5.3c0,0-0.3,0.1-0.5-0.1c-0.2-0.2-0.5-0.9-0.5-0.9s-0.1-0.2,0.1-0.5
			c0.2-0.3,6.7-5.8,6.7-5.8s0.2-0.1,0.3,0.1c0.2,0.2,0.4,1.1,0.4,1.1S284.2,135.4,283.9,135.7z"/>
		<path class="st19" d="M265.2,98.3c0-0.1,0-0.1,0-0.2c0.1,0,0.1,0,0.2,0l2,2.6c0,0,0,0.1,0,0.1c0,0-0.4,5.7-8.6,6
			c-0.1,0-0.1-0.1-0.1-0.1c0-0.1,0.1-0.1,0.1-0.1c7.5-0.2,8.3-5.2,8.3-5.7L265.2,98.3z"/>
		<path class="st19" d="M251.5,104.7c0-0.1,0-0.1,0.1-0.1c0.1,0,0.1,0,0.1,0.1c0,0,0.7,3.5-2,7.7c-1.3,2.1-2.5,4.4-2.9,6.6
			c-0.4,2.2-0.2,4.4,1.3,6.3c3,3.8,7.2,3,7.2,3c0.1,0,0.1,0,0.1,0.1c0,0.1,0,0.1-0.1,0.1c0,0-4.3,0.8-7.4-3.1
			c-1.5-2-1.8-4.2-1.4-6.5c0.4-2.3,1.6-4.6,2.9-6.7C252.2,108.1,251.5,104.8,251.5,104.7z"/>
		<path class="st19" d="M272.6,109c0-0.1,0.1-0.1,0.1-0.1c0.1,0,0.1,0.1,0.1,0.1c0,0-0.6,2.9,1.3,6c1,1.6,1.7,2.8,2.2,3.9
			c0.4,1.1,0.6,2.2,0.4,3.3c0,0.1-0.1,0.1-0.1,0.1c-0.1,0-0.1-0.1-0.1-0.1c0.2-1.1,0.1-2.1-0.4-3.2c-0.4-1.1-1.2-2.3-2.1-3.9
			C271.9,112,272.6,109.1,272.6,109z"/>
		<path class="st12" d="M214.8,81.4h78c0.9,0,1.7,0.4,2.3,0.9c0.6,0.6,0.9,1.4,0.9,2.3V149c0,0.9-0.4,1.7-0.9,2.3
			c-0.6,0.6-1.4,0.9-2.3,0.9h-78c-0.9,0-1.7-0.4-2.3-0.9c-0.6-0.6-0.9-1.4-0.9-2.3V84.6c0-0.9,0.4-1.7,0.9-2.3
			C213.1,81.8,213.9,81.4,214.8,81.4L214.8,81.4z M292.8,84.3h-78c-0.1,0-0.1,0-0.2,0.1c-0.1,0.1-0.1,0.1-0.1,0.2V149
			c0,0.1,0,0.1,0.1,0.2c0.1,0.1,0.1,0.1,0.2,0.1h78c0.1,0,0.1,0,0.2-0.1c0.1-0.1,0.1-0.1,0.1-0.2V84.6c0-0.1,0-0.1-0.1-0.2
			C292.9,84.4,292.8,84.3,292.8,84.3z"/>
		<path class="st22" d="M289.3,86.8L289.3,86.8L289.3,86.8z M284.3,87h2.4v2h-2.4c-0.1,0-0.1,0-0.1-0.1c0,0-0.1-0.1-0.1-0.1v-1.6
			c0-0.1,0-0.1,0.1-0.1C284.2,87.1,284.2,87,284.3,87L284.3,87z M288.9,86.7h-4.6c-0.2,0-0.3,0.1-0.4,0.2c-0.1,0.1-0.2,0.2-0.2,0.4
			v1.6c0,0.2,0.1,0.3,0.2,0.4c0.1,0.1,0.2,0.2,0.4,0.2h4.6c0.2,0,0.3-0.1,0.4-0.2l0,0c0.1-0.1,0.2-0.2,0.2-0.4v-1.6
			c0-0.2-0.1-0.3-0.2-0.4C289.2,86.7,289,86.7,288.9,86.7z"/>
	</g>
	<g>
		<path class="st29" d="M91.9,159.1H28c-0.2,0-0.4,0.1-0.5,0.2l0,0c-0.2,0.2-0.2,0.4-0.2,0.6v34.9c0,0.2,0.1,0.4,0.2,0.6l0,0
			c0.1,0.1,0.4,0.2,0.6,0.2h63.9c0.2,0,0.4-0.1,0.6-0.2l0,0l0,0c0.1-0.1,0.2-0.4,0.2-0.6v-34.9c0-0.2-0.1-0.4-0.2-0.6
			C92.3,159.2,92.1,159.1,91.9,159.1z"/>
		<path class="st30" d="M30.6,161.3c0.2,0,0.3,0.1,0.3,0.3s-0.1,0.3-0.3,0.3c-0.2,0-0.3-0.1-0.3-0.3S30.4,161.3,30.6,161.3z"/>
		<circle class="st30" cx="33.7" cy="161.6" r="0.3"/>
		<path class="st30" d="M36.8,161.3c0.2,0,0.3,0.1,0.3,0.3s-0.1,0.3-0.3,0.3c-0.2,0-0.3-0.1-0.3-0.3S36.6,161.3,36.8,161.3z"/>
		<circle class="st30" cx="39.9" cy="161.6" r="0.3"/>
		<circle class="st30" cx="43" cy="161.6" r="0.3"/>
		<path class="st30" d="M46,161.3c0.2,0,0.3,0.1,0.3,0.3s-0.1,0.3-0.3,0.3c-0.2,0-0.3-0.1-0.3-0.3S45.9,161.3,46,161.3z"/>
		<circle class="st30" cx="49.1" cy="161.6" r="0.3"/>
		<circle class="st30" cx="52.2" cy="161.6" r="0.3"/>
		<circle class="st30" cx="55.3" cy="161.6" r="0.3"/>
		<path class="st30" d="M58.4,161.3c0.2,0,0.3,0.1,0.3,0.3s-0.1,0.3-0.3,0.3s-0.3-0.1-0.3-0.3S58.2,161.3,58.4,161.3z"/>
		<path class="st30" d="M61.5,161.3c0.2,0,0.3,0.1,0.3,0.3s-0.1,0.3-0.3,0.3c-0.2,0-0.3-0.1-0.3-0.3S61.3,161.3,61.5,161.3z"/>
		<circle class="st30" cx="64.6" cy="161.6" r="0.3"/>
		<path class="st30" d="M67.7,161.3c0.2,0,0.3,0.1,0.3,0.3s-0.1,0.3-0.3,0.3c-0.2,0-0.3-0.1-0.3-0.3S67.5,161.3,67.7,161.3z"/>
		<circle class="st30" cx="70.7" cy="161.6" r="0.3"/>
		<circle class="st30" cx="73.8" cy="161.6" r="0.3"/>
		<path class="st30" d="M76.9,161.3c0.2,0,0.3,0.1,0.3,0.3s-0.1,0.3-0.3,0.3c-0.2,0-0.3-0.1-0.3-0.3S76.7,161.3,76.9,161.3z"/>
		<path class="st30" d="M80,161.3c0.2,0,0.3,0.1,0.3,0.3s-0.1,0.3-0.3,0.3c-0.2,0-0.3-0.1-0.3-0.3S79.8,161.3,80,161.3z"/>
		<path class="st30" d="M83.1,161.3c0.2,0,0.3,0.1,0.3,0.3s-0.1,0.3-0.3,0.3c-0.2,0-0.3-0.1-0.3-0.3S82.9,161.3,83.1,161.3z"/>
		<path class="st30" d="M86.2,161.3c0.2,0,0.3,0.1,0.3,0.3s-0.1,0.3-0.3,0.3c-0.2,0-0.3-0.1-0.3-0.3S86,161.3,86.2,161.3z"/>
		<path class="st30" d="M89.3,161.3c0.2,0,0.3,0.1,0.3,0.3s-0.1,0.3-0.3,0.3c-0.2,0-0.3-0.1-0.3-0.3S89.1,161.3,89.3,161.3z"/>
		<path class="st30" d="M30.6,164.5c0.2,0,0.3,0.1,0.3,0.3c0,0.2-0.1,0.3-0.3,0.3c-0.2,0-0.3-0.1-0.3-0.3
			C30.3,164.6,30.4,164.5,30.6,164.5z"/>
		<circle class="st30" cx="33.7" cy="164.8" r="0.3"/>
		<path class="st30" d="M36.8,164.5c0.2,0,0.3,0.1,0.3,0.3c0,0.2-0.1,0.3-0.3,0.3c-0.2,0-0.3-0.1-0.3-0.3
			C36.5,164.6,36.6,164.5,36.8,164.5z"/>
		<circle class="st30" cx="39.9" cy="164.8" r="0.3"/>
		<circle class="st30" cx="43" cy="164.8" r="0.3"/>
		<path class="st30" d="M46,164.5c0.2,0,0.3,0.1,0.3,0.3c0,0.2-0.1,0.3-0.3,0.3c-0.2,0-0.3-0.1-0.3-0.3
			C45.7,164.6,45.9,164.5,46,164.5z"/>
		<circle class="st30" cx="49.1" cy="164.8" r="0.3"/>
		<circle class="st30" cx="52.2" cy="164.8" r="0.3"/>
		<circle class="st30" cx="55.3" cy="164.8" r="0.3"/>
		<path class="st30" d="M58.4,164.5c0.2,0,0.3,0.1,0.3,0.3c0,0.2-0.1,0.3-0.3,0.3s-0.3-0.1-0.3-0.3
			C58.1,164.6,58.2,164.5,58.4,164.5z"/>
		<path class="st30" d="M61.5,164.5c0.2,0,0.3,0.1,0.3,0.3c0,0.2-0.1,0.3-0.3,0.3c-0.2,0-0.3-0.1-0.3-0.3
			C61.2,164.6,61.3,164.5,61.5,164.5z"/>
		<circle class="st30" cx="64.6" cy="164.8" r="0.3"/>
		<path class="st30" d="M67.7,164.5c0.2,0,0.3,0.1,0.3,0.3c0,0.2-0.1,0.3-0.3,0.3c-0.2,0-0.3-0.1-0.3-0.3
			C67.3,164.6,67.5,164.5,67.7,164.5z"/>
		<circle class="st30" cx="70.7" cy="164.8" r="0.3"/>
		<circle class="st30" cx="73.8" cy="164.8" r="0.3"/>
		<path class="st30" d="M76.9,164.5c0.2,0,0.3,0.1,0.3,0.3c0,0.2-0.1,0.3-0.3,0.3c-0.2,0-0.3-0.1-0.3-0.3
			C76.6,164.6,76.7,164.5,76.9,164.5z"/>
		<path class="st30" d="M80,164.5c0.2,0,0.3,0.1,0.3,0.3c0,0.2-0.1,0.3-0.3,0.3c-0.2,0-0.3-0.1-0.3-0.3
			C79.7,164.6,79.8,164.5,80,164.5z"/>
		<path class="st30" d="M83.1,164.5c0.2,0,0.3,0.1,0.3,0.3c0,0.2-0.1,0.3-0.3,0.3c-0.2,0-0.3-0.1-0.3-0.3
			C82.8,164.6,82.9,164.5,83.1,164.5z"/>
		<path class="st30" d="M86.2,164.5c0.2,0,0.3,0.1,0.3,0.3c0,0.2-0.1,0.3-0.3,0.3c-0.2,0-0.3-0.1-0.3-0.3
			C85.9,164.6,86,164.5,86.2,164.5z"/>
		<path class="st30" d="M89.3,164.5c0.2,0,0.3,0.1,0.3,0.3c0,0.2-0.1,0.3-0.3,0.3c-0.2,0-0.3-0.1-0.3-0.3
			C88.9,164.6,89.1,164.5,89.3,164.5z"/>
		<path class="st30" d="M30.6,167.6c0.2,0,0.3,0.1,0.3,0.3c0,0.2-0.1,0.3-0.3,0.3c-0.2,0-0.3-0.1-0.3-0.3
			C30.3,167.8,30.4,167.6,30.6,167.6z"/>
		<circle class="st30" cx="33.7" cy="167.9" r="0.3"/>
		<path class="st30" d="M36.8,167.6c0.2,0,0.3,0.1,0.3,0.3c0,0.2-0.1,0.3-0.3,0.3c-0.2,0-0.3-0.1-0.3-0.3
			C36.5,167.8,36.6,167.6,36.8,167.6z"/>
		<circle class="st30" cx="39.9" cy="167.9" r="0.3"/>
		<circle class="st30" cx="43" cy="167.9" r="0.3"/>
		<path class="st30" d="M46,167.6c0.2,0,0.3,0.1,0.3,0.3c0,0.2-0.1,0.3-0.3,0.3c-0.2,0-0.3-0.1-0.3-0.3
			C45.7,167.8,45.9,167.6,46,167.6z"/>
		<circle class="st30" cx="49.1" cy="167.9" r="0.3"/>
		<circle class="st30" cx="52.2" cy="167.9" r="0.3"/>
		<circle class="st30" cx="55.3" cy="167.9" r="0.3"/>
		<path class="st30" d="M58.4,167.6c0.2,0,0.3,0.1,0.3,0.3c0,0.2-0.1,0.3-0.3,0.3s-0.3-0.1-0.3-0.3
			C58.1,167.8,58.2,167.6,58.4,167.6z"/>
		<path class="st30" d="M61.5,167.6c0.2,0,0.3,0.1,0.3,0.3c0,0.2-0.1,0.3-0.3,0.3c-0.2,0-0.3-0.1-0.3-0.3
			C61.2,167.8,61.3,167.6,61.5,167.6z"/>
		<circle class="st30" cx="64.6" cy="167.9" r="0.3"/>
		<path class="st30" d="M67.7,167.6c0.2,0,0.3,0.1,0.3,0.3c0,0.2-0.1,0.3-0.3,0.3c-0.2,0-0.3-0.1-0.3-0.3
			C67.3,167.8,67.5,167.6,67.7,167.6z"/>
		<circle class="st30" cx="70.7" cy="167.9" r="0.3"/>
		<circle class="st30" cx="73.8" cy="167.9" r="0.3"/>
		<path class="st30" d="M76.9,167.6c0.2,0,0.3,0.1,0.3,0.3c0,0.2-0.1,0.3-0.3,0.3c-0.2,0-0.3-0.1-0.3-0.3
			C76.6,167.8,76.7,167.6,76.9,167.6z"/>
		<path class="st30" d="M80,167.6c0.2,0,0.3,0.1,0.3,0.3c0,0.2-0.1,0.3-0.3,0.3c-0.2,0-0.3-0.1-0.3-0.3
			C79.7,167.8,79.8,167.6,80,167.6z"/>
		<path class="st30" d="M83.1,167.6c0.2,0,0.3,0.1,0.3,0.3c0,0.2-0.1,0.3-0.3,0.3c-0.2,0-0.3-0.1-0.3-0.3
			C82.8,167.8,82.9,167.6,83.1,167.6z"/>
		<path class="st30" d="M86.2,167.6c0.2,0,0.3,0.1,0.3,0.3c0,0.2-0.1,0.3-0.3,0.3c-0.2,0-0.3-0.1-0.3-0.3
			C85.9,167.8,86,167.6,86.2,167.6z"/>
		<path class="st30" d="M89.3,167.6c0.2,0,0.3,0.1,0.3,0.3c0,0.2-0.1,0.3-0.3,0.3c-0.2,0-0.3-0.1-0.3-0.3
			C88.9,167.8,89.1,167.6,89.3,167.6z"/>
		<path class="st30" d="M30.6,170.8c0.2,0,0.3,0.1,0.3,0.3s-0.1,0.3-0.3,0.3c-0.2,0-0.3-0.1-0.3-0.3S30.4,170.8,30.6,170.8z"/>
		<path class="st30" d="M33.7,170.8c0.2,0,0.3,0.1,0.3,0.3s-0.1,0.3-0.3,0.3c-0.2,0-0.3-0.1-0.3-0.3S33.5,170.8,33.7,170.8z"/>
		<path class="st30" d="M36.8,170.8c0.2,0,0.3,0.1,0.3,0.3s-0.1,0.3-0.3,0.3c-0.2,0-0.3-0.1-0.3-0.3S36.6,170.8,36.8,170.8z"/>
		<path class="st30" d="M39.9,170.8c0.2,0,0.3,0.1,0.3,0.3s-0.1,0.3-0.3,0.3c-0.2,0-0.3-0.1-0.3-0.3S39.7,170.8,39.9,170.8z"/>
		<path class="st30" d="M43,170.8c0.2,0,0.3,0.1,0.3,0.3s-0.1,0.3-0.3,0.3s-0.3-0.1-0.3-0.3S42.8,170.8,43,170.8z"/>
		<path class="st30" d="M46,170.8c0.2,0,0.3,0.1,0.3,0.3s-0.1,0.3-0.3,0.3c-0.2,0-0.3-0.1-0.3-0.3S45.9,170.8,46,170.8z"/>
		<path class="st30" d="M49.1,170.8c0.2,0,0.3,0.1,0.3,0.3s-0.1,0.3-0.3,0.3s-0.3-0.1-0.3-0.3S49,170.8,49.1,170.8z"/>
		<path class="st30" d="M52.2,170.8c0.2,0,0.3,0.1,0.3,0.3s-0.1,0.3-0.3,0.3s-0.3-0.1-0.3-0.3S52,170.8,52.2,170.8z"/>
		<path class="st30" d="M55.3,170.8c0.2,0,0.3,0.1,0.3,0.3s-0.1,0.3-0.3,0.3s-0.3-0.1-0.3-0.3S55.1,170.8,55.3,170.8z"/>
		<path class="st30" d="M58.4,170.8c0.2,0,0.3,0.1,0.3,0.3s-0.1,0.3-0.3,0.3s-0.3-0.1-0.3-0.3S58.2,170.8,58.4,170.8z"/>
		<path class="st30" d="M61.5,170.8c0.2,0,0.3,0.1,0.3,0.3s-0.1,0.3-0.3,0.3c-0.2,0-0.3-0.1-0.3-0.3S61.3,170.8,61.5,170.8z"/>
		<path class="st30" d="M64.6,170.8c0.2,0,0.3,0.1,0.3,0.3s-0.1,0.3-0.3,0.3c-0.2,0-0.3-0.1-0.3-0.3S64.4,170.8,64.6,170.8z"/>
		<path class="st30" d="M67.7,170.8c0.2,0,0.3,0.1,0.3,0.3s-0.1,0.3-0.3,0.3c-0.2,0-0.3-0.1-0.3-0.3S67.5,170.8,67.7,170.8z"/>
		<path class="st30" d="M70.7,170.8c0.2,0,0.3,0.1,0.3,0.3s-0.1,0.3-0.3,0.3c-0.2,0-0.3-0.1-0.3-0.3S70.6,170.8,70.7,170.8z"/>
		<path class="st30" d="M73.8,170.8c0.2,0,0.3,0.1,0.3,0.3s-0.1,0.3-0.3,0.3c-0.2,0-0.3-0.1-0.3-0.3S73.7,170.8,73.8,170.8z"/>
		<path class="st30" d="M76.9,170.8c0.2,0,0.3,0.1,0.3,0.3s-0.1,0.3-0.3,0.3c-0.2,0-0.3-0.1-0.3-0.3S76.7,170.8,76.9,170.8z"/>
		<path class="st30" d="M80,170.8c0.2,0,0.3,0.1,0.3,0.3s-0.1,0.3-0.3,0.3c-0.2,0-0.3-0.1-0.3-0.3S79.8,170.8,80,170.8z"/>
		<path class="st30" d="M83.1,170.8c0.2,0,0.3,0.1,0.3,0.3s-0.1,0.3-0.3,0.3c-0.2,0-0.3-0.1-0.3-0.3S82.9,170.8,83.1,170.8z"/>
		<path class="st30" d="M86.2,170.8c0.2,0,0.3,0.1,0.3,0.3s-0.1,0.3-0.3,0.3c-0.2,0-0.3-0.1-0.3-0.3S86,170.8,86.2,170.8z"/>
		<path class="st30" d="M89.3,170.8c0.2,0,0.3,0.1,0.3,0.3s-0.1,0.3-0.3,0.3c-0.2,0-0.3-0.1-0.3-0.3S89.1,170.8,89.3,170.8z"/>
		<path class="st30" d="M30.6,173.9c0.2,0,0.3,0.1,0.3,0.3c0,0.2-0.1,0.3-0.3,0.3c-0.2,0-0.3-0.1-0.3-0.3
			C30.3,174.1,30.4,173.9,30.6,173.9z"/>
		<circle class="st30" cx="33.7" cy="174.2" r="0.3"/>
		<path class="st30" d="M36.8,173.9c0.2,0,0.3,0.1,0.3,0.3c0,0.2-0.1,0.3-0.3,0.3c-0.2,0-0.3-0.1-0.3-0.3
			C36.5,174.1,36.6,173.9,36.8,173.9z"/>
		<circle class="st30" cx="39.9" cy="174.2" r="0.3"/>
		<circle class="st30" cx="43" cy="174.2" r="0.3"/>
		<path class="st30" d="M46,173.9c0.2,0,0.3,0.1,0.3,0.3c0,0.2-0.1,0.3-0.3,0.3c-0.2,0-0.3-0.1-0.3-0.3
			C45.7,174.1,45.9,173.9,46,173.9z"/>
		<circle class="st30" cx="49.1" cy="174.2" r="0.3"/>
		<circle class="st30" cx="52.2" cy="174.2" r="0.3"/>
		<circle class="st30" cx="55.3" cy="174.2" r="0.3"/>
		<path class="st30" d="M58.4,173.9c0.2,0,0.3,0.1,0.3,0.3c0,0.2-0.1,0.3-0.3,0.3s-0.3-0.1-0.3-0.3
			C58.1,174.1,58.2,173.9,58.4,173.9z"/>
		<path class="st30" d="M61.5,173.9c0.2,0,0.3,0.1,0.3,0.3c0,0.2-0.1,0.3-0.3,0.3c-0.2,0-0.3-0.1-0.3-0.3
			C61.2,174.1,61.3,173.9,61.5,173.9z"/>
		<circle class="st30" cx="64.6" cy="174.2" r="0.3"/>
		<path class="st30" d="M67.7,173.9c0.2,0,0.3,0.1,0.3,0.3c0,0.2-0.1,0.3-0.3,0.3c-0.2,0-0.3-0.1-0.3-0.3
			C67.3,174.1,67.5,173.9,67.7,173.9z"/>
		<circle class="st30" cx="70.7" cy="174.2" r="0.3"/>
		<circle class="st30" cx="73.8" cy="174.2" r="0.3"/>
		<path class="st30" d="M76.9,173.9c0.2,0,0.3,0.1,0.3,0.3c0,0.2-0.1,0.3-0.3,0.3c-0.2,0-0.3-0.1-0.3-0.3
			C76.6,174.1,76.7,173.9,76.9,173.9z"/>
		<path class="st30" d="M80,173.9c0.2,0,0.3,0.1,0.3,0.3c0,0.2-0.1,0.3-0.3,0.3c-0.2,0-0.3-0.1-0.3-0.3
			C79.7,174.1,79.8,173.9,80,173.9z"/>
		<path class="st30" d="M83.1,173.9c0.2,0,0.3,0.1,0.3,0.3c0,0.2-0.1,0.3-0.3,0.3c-0.2,0-0.3-0.1-0.3-0.3
			C82.8,174.1,82.9,173.9,83.1,173.9z"/>
		<path class="st30" d="M86.2,173.9c0.2,0,0.3,0.1,0.3,0.3c0,0.2-0.1,0.3-0.3,0.3c-0.2,0-0.3-0.1-0.3-0.3
			C85.9,174.1,86,173.9,86.2,173.9z"/>
		<path class="st30" d="M89.3,173.9c0.2,0,0.3,0.1,0.3,0.3c0,0.2-0.1,0.3-0.3,0.3c-0.2,0-0.3-0.1-0.3-0.3
			C88.9,174.1,89.1,173.9,89.3,173.9z"/>
		<path class="st30" d="M30.6,177.1c0.2,0,0.3,0.1,0.3,0.3s-0.1,0.3-0.3,0.3c-0.2,0-0.3-0.1-0.3-0.3S30.4,177.1,30.6,177.1z"/>
		<circle class="st30" cx="33.7" cy="177.4" r="0.3"/>
		<path class="st30" d="M36.8,177.1c0.2,0,0.3,0.1,0.3,0.3s-0.1,0.3-0.3,0.3c-0.2,0-0.3-0.1-0.3-0.3S36.6,177.1,36.8,177.1z"/>
		<circle class="st30" cx="39.9" cy="177.4" r="0.3"/>
		<circle class="st30" cx="43" cy="177.4" r="0.3"/>
		<path class="st30" d="M46,177.1c0.2,0,0.3,0.1,0.3,0.3s-0.1,0.3-0.3,0.3c-0.2,0-0.3-0.1-0.3-0.3S45.9,177.1,46,177.1z"/>
		<circle class="st30" cx="49.1" cy="177.4" r="0.3"/>
		<circle class="st30" cx="52.2" cy="177.4" r="0.3"/>
		<circle class="st30" cx="55.3" cy="177.4" r="0.3"/>
		<path class="st30" d="M58.4,177.1c0.2,0,0.3,0.1,0.3,0.3s-0.1,0.3-0.3,0.3s-0.3-0.1-0.3-0.3S58.2,177.1,58.4,177.1z"/>
		<path class="st30" d="M61.5,177.1c0.2,0,0.3,0.1,0.3,0.3s-0.1,0.3-0.3,0.3c-0.2,0-0.3-0.1-0.3-0.3S61.3,177.1,61.5,177.1z"/>
		<circle class="st30" cx="64.6" cy="177.4" r="0.3"/>
		<path class="st30" d="M67.7,177.1c0.2,0,0.3,0.1,0.3,0.3s-0.1,0.3-0.3,0.3c-0.2,0-0.3-0.1-0.3-0.3S67.5,177.1,67.7,177.1z"/>
		<circle class="st30" cx="70.7" cy="177.4" r="0.3"/>
		<circle class="st30" cx="73.8" cy="177.4" r="0.3"/>
		<path class="st30" d="M76.9,177.1c0.2,0,0.3,0.1,0.3,0.3s-0.1,0.3-0.3,0.3c-0.2,0-0.3-0.1-0.3-0.3S76.7,177.1,76.9,177.1z"/>
		<path class="st30" d="M80,177.1c0.2,0,0.3,0.1,0.3,0.3s-0.1,0.3-0.3,0.3c-0.2,0-0.3-0.1-0.3-0.3S79.8,177.1,80,177.1z"/>
		<path class="st30" d="M83.1,177.1c0.2,0,0.3,0.1,0.3,0.3s-0.1,0.3-0.3,0.3c-0.2,0-0.3-0.1-0.3-0.3S82.9,177.1,83.1,177.1z"/>
		<path class="st30" d="M86.2,177.1c0.2,0,0.3,0.1,0.3,0.3s-0.1,0.3-0.3,0.3c-0.2,0-0.3-0.1-0.3-0.3S86,177.1,86.2,177.1z"/>
		<path class="st30" d="M89.3,177.1c0.2,0,0.3,0.1,0.3,0.3s-0.1,0.3-0.3,0.3c-0.2,0-0.3-0.1-0.3-0.3S89.1,177.1,89.3,177.1z"/>
		<path class="st30" d="M30.6,180.2c0.2,0,0.3,0.1,0.3,0.3c0,0.2-0.1,0.3-0.3,0.3c-0.2,0-0.3-0.1-0.3-0.3
			C30.3,180.4,30.4,180.2,30.6,180.2z"/>
		<path class="st30" d="M33.7,180.2c0.2,0,0.3,0.1,0.3,0.3c0,0.2-0.1,0.3-0.3,0.3c-0.2,0-0.3-0.1-0.3-0.3
			C33.4,180.4,33.5,180.2,33.7,180.2z"/>
		<path class="st30" d="M36.8,180.2c0.2,0,0.3,0.1,0.3,0.3c0,0.2-0.1,0.3-0.3,0.3c-0.2,0-0.3-0.1-0.3-0.3
			C36.5,180.4,36.6,180.2,36.8,180.2z"/>
		<path class="st30" d="M39.9,180.2c0.2,0,0.3,0.1,0.3,0.3c0,0.2-0.1,0.3-0.3,0.3c-0.2,0-0.3-0.1-0.3-0.3
			C39.6,180.4,39.7,180.2,39.9,180.2z"/>
		<path class="st30" d="M43,180.2c0.2,0,0.3,0.1,0.3,0.3c0,0.2-0.1,0.3-0.3,0.3s-0.3-0.1-0.3-0.3C42.7,180.4,42.8,180.2,43,180.2z"
			/>
		<path class="st30" d="M46,180.2c0.2,0,0.3,0.1,0.3,0.3c0,0.2-0.1,0.3-0.3,0.3c-0.2,0-0.3-0.1-0.3-0.3
			C45.7,180.4,45.9,180.2,46,180.2z"/>
		<path class="st30" d="M49.1,180.2c0.2,0,0.3,0.1,0.3,0.3c0,0.2-0.1,0.3-0.3,0.3s-0.3-0.1-0.3-0.3C48.8,180.4,49,180.2,49.1,180.2z
			"/>
		<path class="st30" d="M52.2,180.2c0.2,0,0.3,0.1,0.3,0.3c0,0.2-0.1,0.3-0.3,0.3s-0.3-0.1-0.3-0.3C51.9,180.4,52,180.2,52.2,180.2z
			"/>
		<path class="st30" d="M55.3,180.2c0.2,0,0.3,0.1,0.3,0.3c0,0.2-0.1,0.3-0.3,0.3s-0.3-0.1-0.3-0.3C55,180.4,55.1,180.2,55.3,180.2z
			"/>
		<path class="st30" d="M58.4,180.2c0.2,0,0.3,0.1,0.3,0.3c0,0.2-0.1,0.3-0.3,0.3s-0.3-0.1-0.3-0.3
			C58.1,180.4,58.2,180.2,58.4,180.2z"/>
		<path class="st30" d="M61.5,180.2c0.2,0,0.3,0.1,0.3,0.3c0,0.2-0.1,0.3-0.3,0.3c-0.2,0-0.3-0.1-0.3-0.3
			C61.2,180.4,61.3,180.2,61.5,180.2z"/>
		<path class="st30" d="M64.6,180.2c0.2,0,0.3,0.1,0.3,0.3c0,0.2-0.1,0.3-0.3,0.3c-0.2,0-0.3-0.1-0.3-0.3
			C64.3,180.4,64.4,180.2,64.6,180.2z"/>
		<path class="st30" d="M67.7,180.2c0.2,0,0.3,0.1,0.3,0.3c0,0.2-0.1,0.3-0.3,0.3c-0.2,0-0.3-0.1-0.3-0.3
			C67.3,180.4,67.5,180.2,67.7,180.2z"/>
		<path class="st30" d="M70.7,180.2c0.2,0,0.3,0.1,0.3,0.3c0,0.2-0.1,0.3-0.3,0.3c-0.2,0-0.3-0.1-0.3-0.3
			C70.4,180.4,70.6,180.2,70.7,180.2z"/>
		<path class="st30" d="M73.8,180.2c0.2,0,0.3,0.1,0.3,0.3c0,0.2-0.1,0.3-0.3,0.3c-0.2,0-0.3-0.1-0.3-0.3
			C73.5,180.4,73.7,180.2,73.8,180.2z"/>
		<path class="st30" d="M76.9,180.2c0.2,0,0.3,0.1,0.3,0.3c0,0.2-0.1,0.3-0.3,0.3c-0.2,0-0.3-0.1-0.3-0.3
			C76.6,180.4,76.7,180.2,76.9,180.2z"/>
		<path class="st30" d="M80,180.2c0.2,0,0.3,0.1,0.3,0.3c0,0.2-0.1,0.3-0.3,0.3c-0.2,0-0.3-0.1-0.3-0.3
			C79.7,180.4,79.8,180.2,80,180.2z"/>
		<path class="st30" d="M83.1,180.2c0.2,0,0.3,0.1,0.3,0.3c0,0.2-0.1,0.3-0.3,0.3c-0.2,0-0.3-0.1-0.3-0.3
			C82.8,180.4,82.9,180.2,83.1,180.2z"/>
		<path class="st30" d="M86.2,180.2c0.2,0,0.3,0.1,0.3,0.3c0,0.2-0.1,0.3-0.3,0.3c-0.2,0-0.3-0.1-0.3-0.3
			C85.9,180.4,86,180.2,86.2,180.2z"/>
		<path class="st30" d="M89.3,180.2c0.2,0,0.3,0.1,0.3,0.3c0,0.2-0.1,0.3-0.3,0.3c-0.2,0-0.3-0.1-0.3-0.3
			C88.9,180.4,89.1,180.2,89.3,180.2z"/>
		<path class="st30" d="M30.6,183.4c0.2,0,0.3,0.1,0.3,0.3c0,0.2-0.1,0.3-0.3,0.3c-0.2,0-0.3-0.1-0.3-0.3
			C30.3,183.5,30.4,183.4,30.6,183.4z"/>
		<circle class="st30" cx="33.7" cy="183.7" r="0.3"/>
		<path class="st30" d="M36.8,183.4c0.2,0,0.3,0.1,0.3,0.3c0,0.2-0.1,0.3-0.3,0.3c-0.2,0-0.3-0.1-0.3-0.3
			C36.5,183.5,36.6,183.4,36.8,183.4z"/>
		<circle class="st30" cx="39.9" cy="183.7" r="0.3"/>
		<circle class="st30" cx="43" cy="183.7" r="0.3"/>
		<path class="st30" d="M46,183.4c0.2,0,0.3,0.1,0.3,0.3c0,0.2-0.1,0.3-0.3,0.3c-0.2,0-0.3-0.1-0.3-0.3
			C45.7,183.5,45.9,183.4,46,183.4z"/>
		<circle class="st30" cx="49.1" cy="183.7" r="0.3"/>
		<circle class="st30" cx="52.2" cy="183.7" r="0.3"/>
		<circle class="st30" cx="55.3" cy="183.7" r="0.3"/>
		<path class="st30" d="M58.4,183.4c0.2,0,0.3,0.1,0.3,0.3c0,0.2-0.1,0.3-0.3,0.3s-0.3-0.1-0.3-0.3
			C58.1,183.5,58.2,183.4,58.4,183.4z"/>
		<path class="st30" d="M61.5,183.4c0.2,0,0.3,0.1,0.3,0.3c0,0.2-0.1,0.3-0.3,0.3c-0.2,0-0.3-0.1-0.3-0.3
			C61.2,183.5,61.3,183.4,61.5,183.4z"/>
		<circle class="st30" cx="64.6" cy="183.7" r="0.3"/>
		<path class="st30" d="M67.7,183.4c0.2,0,0.3,0.1,0.3,0.3c0,0.2-0.1,0.3-0.3,0.3c-0.2,0-0.3-0.1-0.3-0.3
			C67.3,183.5,67.5,183.4,67.7,183.4z"/>
		<circle class="st30" cx="70.7" cy="183.7" r="0.3"/>
		<circle class="st30" cx="73.8" cy="183.7" r="0.3"/>
		<path class="st30" d="M76.9,183.4c0.2,0,0.3,0.1,0.3,0.3c0,0.2-0.1,0.3-0.3,0.3c-0.2,0-0.3-0.1-0.3-0.3
			C76.6,183.5,76.7,183.4,76.9,183.4z"/>
		<path class="st30" d="M80,183.4c0.2,0,0.3,0.1,0.3,0.3c0,0.2-0.1,0.3-0.3,0.3c-0.2,0-0.3-0.1-0.3-0.3
			C79.7,183.5,79.8,183.4,80,183.4z"/>
		<path class="st30" d="M83.1,183.4c0.2,0,0.3,0.1,0.3,0.3c0,0.2-0.1,0.3-0.3,0.3c-0.2,0-0.3-0.1-0.3-0.3
			C82.8,183.5,82.9,183.4,83.1,183.4z"/>
		<path class="st30" d="M86.2,183.4c0.2,0,0.3,0.1,0.3,0.3c0,0.2-0.1,0.3-0.3,0.3c-0.2,0-0.3-0.1-0.3-0.3
			C85.9,183.5,86,183.4,86.2,183.4z"/>
		<path class="st30" d="M89.3,183.4c0.2,0,0.3,0.1,0.3,0.3c0,0.2-0.1,0.3-0.3,0.3c-0.2,0-0.3-0.1-0.3-0.3
			C88.9,183.5,89.1,183.4,89.3,183.4z"/>
		<path class="st30" d="M30.6,186.5c0.2,0,0.3,0.1,0.3,0.3c0,0.2-0.1,0.3-0.3,0.3c-0.2,0-0.3-0.1-0.3-0.3
			C30.3,186.7,30.4,186.5,30.6,186.5z"/>
		<path class="st30" d="M33.7,186.5c0.2,0,0.3,0.1,0.3,0.3c0,0.2-0.1,0.3-0.3,0.3c-0.2,0-0.3-0.1-0.3-0.3
			C33.4,186.7,33.5,186.5,33.7,186.5z"/>
		<path class="st30" d="M36.8,186.5c0.2,0,0.3,0.1,0.3,0.3c0,0.2-0.1,0.3-0.3,0.3c-0.2,0-0.3-0.1-0.3-0.3
			C36.5,186.7,36.6,186.5,36.8,186.5z"/>
		<path class="st30" d="M39.9,186.5c0.2,0,0.3,0.1,0.3,0.3c0,0.2-0.1,0.3-0.3,0.3c-0.2,0-0.3-0.1-0.3-0.3
			C39.6,186.7,39.7,186.5,39.9,186.5z"/>
		<path class="st30" d="M43,186.5c0.2,0,0.3,0.1,0.3,0.3c0,0.2-0.1,0.3-0.3,0.3s-0.3-0.1-0.3-0.3C42.7,186.7,42.8,186.5,43,186.5z"
			/>
		<path class="st30" d="M46,186.5c0.2,0,0.3,0.1,0.3,0.3c0,0.2-0.1,0.3-0.3,0.3c-0.2,0-0.3-0.1-0.3-0.3
			C45.7,186.7,45.9,186.5,46,186.5z"/>
		<path class="st30" d="M49.1,186.5c0.2,0,0.3,0.1,0.3,0.3c0,0.2-0.1,0.3-0.3,0.3s-0.3-0.1-0.3-0.3C48.8,186.7,49,186.5,49.1,186.5z
			"/>
		<path class="st30" d="M52.2,186.5c0.2,0,0.3,0.1,0.3,0.3c0,0.2-0.1,0.3-0.3,0.3s-0.3-0.1-0.3-0.3C51.9,186.7,52,186.5,52.2,186.5z
			"/>
		<path class="st30" d="M55.3,186.5c0.2,0,0.3,0.1,0.3,0.3c0,0.2-0.1,0.3-0.3,0.3S55,187,55,186.8C55,186.7,55.1,186.5,55.3,186.5z"
			/>
		<path class="st30" d="M58.4,186.5c0.2,0,0.3,0.1,0.3,0.3c0,0.2-0.1,0.3-0.3,0.3s-0.3-0.1-0.3-0.3
			C58.1,186.7,58.2,186.5,58.4,186.5z"/>
		<path class="st30" d="M61.5,186.5c0.2,0,0.3,0.1,0.3,0.3c0,0.2-0.1,0.3-0.3,0.3c-0.2,0-0.3-0.1-0.3-0.3
			C61.2,186.7,61.3,186.5,61.5,186.5z"/>
		<path class="st30" d="M64.6,186.5c0.2,0,0.3,0.1,0.3,0.3c0,0.2-0.1,0.3-0.3,0.3c-0.2,0-0.3-0.1-0.3-0.3
			C64.3,186.7,64.4,186.5,64.6,186.5z"/>
		<path class="st30" d="M67.7,186.5c0.2,0,0.3,0.1,0.3,0.3c0,0.2-0.1,0.3-0.3,0.3c-0.2,0-0.3-0.1-0.3-0.3
			C67.3,186.7,67.5,186.5,67.7,186.5z"/>
		<path class="st30" d="M70.7,186.5c0.2,0,0.3,0.1,0.3,0.3c0,0.2-0.1,0.3-0.3,0.3c-0.2,0-0.3-0.1-0.3-0.3
			C70.4,186.7,70.6,186.5,70.7,186.5z"/>
		<path class="st30" d="M73.8,186.5c0.2,0,0.3,0.1,0.3,0.3c0,0.2-0.1,0.3-0.3,0.3c-0.2,0-0.3-0.1-0.3-0.3
			C73.5,186.7,73.7,186.5,73.8,186.5z"/>
		<path class="st30" d="M76.9,186.5c0.2,0,0.3,0.1,0.3,0.3c0,0.2-0.1,0.3-0.3,0.3c-0.2,0-0.3-0.1-0.3-0.3
			C76.6,186.7,76.7,186.5,76.9,186.5z"/>
		<path class="st30" d="M80,186.5c0.2,0,0.3,0.1,0.3,0.3c0,0.2-0.1,0.3-0.3,0.3c-0.2,0-0.3-0.1-0.3-0.3
			C79.7,186.7,79.8,186.5,80,186.5z"/>
		<path class="st30" d="M83.1,186.5c0.2,0,0.3,0.1,0.3,0.3c0,0.2-0.1,0.3-0.3,0.3c-0.2,0-0.3-0.1-0.3-0.3
			C82.8,186.7,82.9,186.5,83.1,186.5z"/>
		<path class="st30" d="M86.2,186.5c0.2,0,0.3,0.1,0.3,0.3c0,0.2-0.1,0.3-0.3,0.3c-0.2,0-0.3-0.1-0.3-0.3
			C85.9,186.7,86,186.5,86.2,186.5z"/>
		<path class="st30" d="M89.3,186.5c0.2,0,0.3,0.1,0.3,0.3c0,0.2-0.1,0.3-0.3,0.3c-0.2,0-0.3-0.1-0.3-0.3
			C88.9,186.7,89.1,186.5,89.3,186.5z"/>
		<path class="st30" d="M30.6,189.7c0.2,0,0.3,0.1,0.3,0.3s-0.1,0.3-0.3,0.3c-0.2,0-0.3-0.1-0.3-0.3S30.4,189.7,30.6,189.7z"/>
		<circle class="st30" cx="33.7" cy="190" r="0.3"/>
		<path class="st30" d="M36.8,189.7c0.2,0,0.3,0.1,0.3,0.3s-0.1,0.3-0.3,0.3c-0.2,0-0.3-0.1-0.3-0.3S36.6,189.7,36.8,189.7z"/>
		<circle class="st30" cx="39.9" cy="190" r="0.3"/>
		<circle class="st30" cx="43" cy="190" r="0.3"/>
		<path class="st30" d="M46,189.7c0.2,0,0.3,0.1,0.3,0.3s-0.1,0.3-0.3,0.3c-0.2,0-0.3-0.1-0.3-0.3S45.9,189.7,46,189.7z"/>
		<circle class="st30" cx="49.1" cy="190" r="0.3"/>
		<circle class="st30" cx="52.2" cy="190" r="0.3"/>
		<circle class="st30" cx="55.3" cy="190" r="0.3"/>
		<path class="st30" d="M58.4,189.7c0.2,0,0.3,0.1,0.3,0.3s-0.1,0.3-0.3,0.3s-0.3-0.1-0.3-0.3S58.2,189.7,58.4,189.7z"/>
		<path class="st30" d="M61.5,189.7c0.2,0,0.3,0.1,0.3,0.3s-0.1,0.3-0.3,0.3c-0.2,0-0.3-0.1-0.3-0.3S61.3,189.7,61.5,189.7z"/>
		<circle class="st30" cx="64.6" cy="190" r="0.3"/>
		<path class="st30" d="M67.7,189.7c0.2,0,0.3,0.1,0.3,0.3s-0.1,0.3-0.3,0.3c-0.2,0-0.3-0.1-0.3-0.3S67.5,189.7,67.7,189.7z"/>
		<circle class="st30" cx="70.7" cy="190" r="0.3"/>
		<circle class="st30" cx="73.8" cy="190" r="0.3"/>
		<path class="st30" d="M76.9,189.7c0.2,0,0.3,0.1,0.3,0.3s-0.1,0.3-0.3,0.3c-0.2,0-0.3-0.1-0.3-0.3S76.7,189.7,76.9,189.7z"/>
		<path class="st30" d="M80,189.7c0.2,0,0.3,0.1,0.3,0.3s-0.1,0.3-0.3,0.3c-0.2,0-0.3-0.1-0.3-0.3S79.8,189.7,80,189.7z"/>
		<path class="st30" d="M83.1,189.7c0.2,0,0.3,0.1,0.3,0.3s-0.1,0.3-0.3,0.3c-0.2,0-0.3-0.1-0.3-0.3S82.9,189.7,83.1,189.7z"/>
		<path class="st30" d="M86.2,189.7c0.2,0,0.3,0.1,0.3,0.3s-0.1,0.3-0.3,0.3c-0.2,0-0.3-0.1-0.3-0.3S86,189.7,86.2,189.7z"/>
		<path class="st30" d="M89.3,189.7c0.2,0,0.3,0.1,0.3,0.3s-0.1,0.3-0.3,0.3c-0.2,0-0.3-0.1-0.3-0.3S89.1,189.7,89.3,189.7z"/>
		<path class="st30" d="M30.6,192.8c0.2,0,0.3,0.1,0.3,0.3c0,0.2-0.1,0.3-0.3,0.3c-0.2,0-0.3-0.1-0.3-0.3
			C30.3,193,30.4,192.8,30.6,192.8z"/>
		<path class="st30" d="M33.7,192.8c0.2,0,0.3,0.1,0.3,0.3c0,0.2-0.1,0.3-0.3,0.3c-0.2,0-0.3-0.1-0.3-0.3
			C33.4,193,33.5,192.8,33.7,192.8z"/>
		<path class="st30" d="M36.8,192.8c0.2,0,0.3,0.1,0.3,0.3c0,0.2-0.1,0.3-0.3,0.3c-0.2,0-0.3-0.1-0.3-0.3
			C36.5,193,36.6,192.8,36.8,192.8z"/>
		<path class="st30" d="M39.9,192.8c0.2,0,0.3,0.1,0.3,0.3c0,0.2-0.1,0.3-0.3,0.3c-0.2,0-0.3-0.1-0.3-0.3
			C39.6,193,39.7,192.8,39.9,192.8z"/>
		<path class="st30" d="M43,192.8c0.2,0,0.3,0.1,0.3,0.3c0,0.2-0.1,0.3-0.3,0.3s-0.3-0.1-0.3-0.3C42.7,193,42.8,192.8,43,192.8z"/>
		<path class="st30" d="M46,192.8c0.2,0,0.3,0.1,0.3,0.3c0,0.2-0.1,0.3-0.3,0.3c-0.2,0-0.3-0.1-0.3-0.3
			C45.7,193,45.9,192.8,46,192.8z"/>
		<path class="st30" d="M49.1,192.8c0.2,0,0.3,0.1,0.3,0.3c0,0.2-0.1,0.3-0.3,0.3s-0.3-0.1-0.3-0.3C48.8,193,49,192.8,49.1,192.8z"
			/>
		<path class="st30" d="M52.2,192.8c0.2,0,0.3,0.1,0.3,0.3c0,0.2-0.1,0.3-0.3,0.3s-0.3-0.1-0.3-0.3C51.9,193,52,192.8,52.2,192.8z"
			/>
		<path class="st30" d="M55.3,192.8c0.2,0,0.3,0.1,0.3,0.3c0,0.2-0.1,0.3-0.3,0.3s-0.3-0.1-0.3-0.3C55,193,55.1,192.8,55.3,192.8z"
			/>
		<path class="st30" d="M58.4,192.8c0.2,0,0.3,0.1,0.3,0.3c0,0.2-0.1,0.3-0.3,0.3s-0.3-0.1-0.3-0.3C58.1,193,58.2,192.8,58.4,192.8z
			"/>
		<path class="st30" d="M61.5,192.8c0.2,0,0.3,0.1,0.3,0.3c0,0.2-0.1,0.3-0.3,0.3c-0.2,0-0.3-0.1-0.3-0.3
			C61.2,193,61.3,192.8,61.5,192.8z"/>
		<path class="st30" d="M64.6,192.8c0.2,0,0.3,0.1,0.3,0.3c0,0.2-0.1,0.3-0.3,0.3c-0.2,0-0.3-0.1-0.3-0.3
			C64.3,193,64.4,192.8,64.6,192.8z"/>
		<path class="st30" d="M67.7,192.8c0.2,0,0.3,0.1,0.3,0.3c0,0.2-0.1,0.3-0.3,0.3c-0.2,0-0.3-0.1-0.3-0.3
			C67.3,193,67.5,192.8,67.7,192.8z"/>
		<path class="st30" d="M70.7,192.8c0.2,0,0.3,0.1,0.3,0.3c0,0.2-0.1,0.3-0.3,0.3c-0.2,0-0.3-0.1-0.3-0.3
			C70.4,193,70.6,192.8,70.7,192.8z"/>
		<path class="st30" d="M73.8,192.8c0.2,0,0.3,0.1,0.3,0.3c0,0.2-0.1,0.3-0.3,0.3c-0.2,0-0.3-0.1-0.3-0.3
			C73.5,193,73.7,192.8,73.8,192.8z"/>
		<path class="st30" d="M76.9,192.8c0.2,0,0.3,0.1,0.3,0.3c0,0.2-0.1,0.3-0.3,0.3c-0.2,0-0.3-0.1-0.3-0.3
			C76.6,193,76.7,192.8,76.9,192.8z"/>
		<path class="st30" d="M80,192.8c0.2,0,0.3,0.1,0.3,0.3c0,0.2-0.1,0.3-0.3,0.3c-0.2,0-0.3-0.1-0.3-0.3
			C79.7,193,79.8,192.8,80,192.8z"/>
		<path class="st30" d="M83.1,192.8c0.2,0,0.3,0.1,0.3,0.3c0,0.2-0.1,0.3-0.3,0.3c-0.2,0-0.3-0.1-0.3-0.3
			C82.8,193,82.9,192.8,83.1,192.8z"/>
		<path class="st30" d="M86.2,192.8c0.2,0,0.3,0.1,0.3,0.3c0,0.2-0.1,0.3-0.3,0.3c-0.2,0-0.3-0.1-0.3-0.3
			C85.9,193,86,192.8,86.2,192.8z"/>
		<path class="st30" d="M89.3,192.8c0.2,0,0.3,0.1,0.3,0.3c0,0.2-0.1,0.3-0.3,0.3c-0.2,0-0.3-0.1-0.3-0.3
			C88.9,193,89.1,192.8,89.3,192.8z"/>
		<path class="st11" d="M51.9,192.8l-1.6-1.6c0,0-0.2,0.1-0.5,0.4C50.5,192.1,51.2,192.5,51.9,192.8z"/>
		<path class="st11" d="M51.9,192.8l-1.6-1.6c0,0-0.2,0.1-0.5,0.4C50.5,192.1,51.2,192.5,51.9,192.8z"/>
		<path class="st11" d="M66,192.8l1.6-1.6c0,0,0.2,0.1,0.5,0.4C67.5,192.1,66.8,192.5,66,192.8z"/>
		<path class="st11" d="M66,192.8l1.6-1.6c0,0,0.2,0.1,0.5,0.4C67.5,192.1,66.8,192.5,66,192.8z"/>
		<path class="st31" d="M64.5,190l0.1,0h0l0,0c0.6,0.2,1.8,0.6,3,1.2c0.1,0.1,4.5,3.4,4.7,3.6c-2.6,1.7-10,1.1-13.4,1.1
			c-3.4,0-10.3,0.6-12.9-1.1c0.2-0.2,4.2-3.5,4.3-3.6c1.2-0.6,2.4-1,3-1.2l0,0h0l0.1,0l0,0c1.2-0.2,2.3-0.3,2.3-0.3l3.2,0.5l0,0l0,0
			l3.2-0.5C62.2,189.7,63.3,189.7,64.5,190L64.5,190z"/>
		<path class="st32" d="M61.6,182.6l-0.1,1.8c0,0,0,3.7,0,4.3c0,0.3,0.3,0.7,0.7,1c-2.3,2.5-4.2,2.5-6.5,0c0.4-0.3,0.7-0.7,0.7-1
			c0-0.6,0-4.3,0-4.3l-0.1-1.8c0,0,1.3,0.2,2.6,0.6C60.3,182.9,61.6,182.6,61.6,182.6z"/>
		<path class="st33" d="M50.6,172.4c0,0-0.4,0.8-0.4,1.6c0,0.7,1.6,1.1,2.1,1.1c0.5,0,15.1,0.5,15.1,0.5s0.5-0.1,0.5-0.5
			c0-0.4-2.5-5.9-2.5-5.9L50.6,172.4z"/>
		<path class="st32" d="M51,177.1c1.3,0,2.3,1,2.3,2.3c0,1.3-1,2.3-2.3,2.3c-1.3,0-2.3-1-2.3-2.3C48.7,178.1,49.7,177.1,51,177.1z"
			/>
		<path class="st32" d="M67,177.1c1.3,0,2.3,1,2.3,2.3c0,1.3-1,2.3-2.3,2.3c-1.3,0-2.3-1-2.3-2.3C64.6,178.1,65.7,177.1,67,177.1z"
			/>
		<path class="st15" d="M59,164.8L59,164.8c4.4,0,7.9,3.6,7.9,7.9v7.2c0,4.4-3.6,7.9-7.9,7.9l0,0c-4.4,0-7.9-3.6-7.9-7.9v-7.2
			C51.1,168.3,54.7,164.8,59,164.8z"/>
		<path class="st33" d="M66.1,172.6c0,0,0,1.5,0,2.5c0,0.4,0.7,4.4,0.8,4.4c0,0,0.1-2.1,0.5-2.4l1.2-6.2c-0.3,0.4-2,0.9-2.6,1.1
			C66,172.2,66.1,172.4,66.1,172.6z"/>
		<path class="st33" d="M52.6,172.1c0,0,0,1.1,0,1.8c0,0.7-0.3,1-0.6,1.3c0,0-0.4,3.2-0.8,3.3l-1.4-6.7c0.2,0.3,2.5-0.3,2.9-0.1
			C52.6,171.9,52.6,172,52.6,172.1z"/>
		<path class="st33" d="M67.9,175.1c-0.5-0.6-1.1-1.1-1.8-1.5l0,0l0,0c-0.1,0-0.1-0.1-0.2-0.1c-1.4-0.8-1.9-1.8-1.9-1.8
			c-0.7,0.5-3.4,0.4-4.4,0.3c-0.1,0-0.2,0-0.3,0l0,0l0,0l0,0c-4.5-0.2-8.9,0.9-9,2.1c-3.9-8.3,5.9-16.2,14.6-7.2
			C69.5,167,69,171.8,67.9,175.1z"/>
		<path class="st34" d="M29.3,156.9h61.3c1,0,2,0.4,2.6,1.1c0.7,0.7,1.1,1.6,1.1,2.6v33.5c0,1-0.4,2-1.1,2.6l0,0
			c-0.7,0.7-1.6,1.1-2.6,1.1H29.3c-1,0-2-0.4-2.6-1.1l0,0c-0.7-0.7-1.1-1.6-1.1-2.6v-33.5c0-1,0.4-2,1.1-2.6c0,0,0.1-0.1,0.1-0.1
			C27.4,157.3,28.3,156.9,29.3,156.9L29.3,156.9z M90.6,159.9H29.3c-0.2,0-0.4,0.1-0.5,0.2l0,0c-0.1,0.1-0.2,0.3-0.2,0.6v33.5
			c0,0.2,0.1,0.4,0.2,0.6l0,0c0.1,0.1,0.3,0.2,0.6,0.2h61.3c0.2,0,0.4-0.1,0.6-0.2l0,0l0,0c0.1-0.1,0.2-0.3,0.2-0.6v-33.5
			c0-0.2-0.1-0.4-0.2-0.6C91,159.9,90.8,159.9,90.6,159.9z"/>
		<path class="st35" d="M93.9,153.9H75.4c-1.3,0-2.4,1.1-2.4,2.4v10.1v0.7v6.4c0,0.1,0.1,0.2,0.2,0.3c0.1,0,0.2,0,0.3-0.1l4.2-4.2
			h16.3c1.3,0,2.4-1.1,2.4-2.4v-10.8C96.3,155,95.2,153.9,93.9,153.9z"/>
		<path class="st22" d="M90.5,162.8c0.8,0,1.4-0.6,1.4-1.4c0-0.8-0.6-1.4-1.4-1.4c-0.8,0-1.4,0.6-1.4,1.4
			C89,162.2,89.7,162.8,90.5,162.8z"/>
		<path class="st22" d="M84.6,162.8c0.8,0,1.4-0.6,1.4-1.4c0-0.8-0.6-1.4-1.4-1.4c-0.8,0-1.4,0.6-1.4,1.4
			C83.2,162.2,83.8,162.8,84.6,162.8z"/>
		<path class="st22" d="M78.8,162.8c0.8,0,1.4-0.6,1.4-1.4c0-0.8-0.6-1.4-1.4-1.4c-0.8,0-1.4,0.6-1.4,1.4
			C77.4,162.2,78,162.8,78.8,162.8z"/>
	</g>
	<g>
		<path class="st36" d="M293.6,159.1h-63.9c-0.2,0-0.4,0.1-0.5,0.2l0,0c-0.2,0.2-0.2,0.4-0.2,0.6v34.9c0,0.2,0.1,0.4,0.2,0.6l0,0
			c0.1,0.1,0.4,0.2,0.6,0.2h63.9c0.2,0,0.4-0.1,0.6-0.2l0,0l0,0c0.1-0.1,0.2-0.4,0.2-0.6v-34.9c0-0.2-0.1-0.4-0.2-0.6
			C294,159.2,293.8,159.1,293.6,159.1z"/>
		<path class="st36" d="M292.1,159.1H292v0.2h-6h0h-6v-0.2h-0.1v0.2h-6h0h-6v-0.2h-0.1v0.2h-6h0h-6v-0.2h-0.1v0.2h-6h0h-6v-0.2h-0.1
			v0.2h-6h0h-6v-0.2h-0.1v0.2h-2l0,0c0,0,0,0-0.1,0.1h2.2h0h0h6v3.5h-6h0h-2.4v0.1h2.3v3.5h-2.3v0.1h2.4h0h0h6v3.5h-6h0h-2.4v0.1
			h2.3v3.5h-2.3v0.1h2.4h0h0h6v3.5h-6h0h-2.4v0.1h2.3v3.5h-2.3v0.1h2.4h0h0h6v3.5h-6h0h-2.4v0.1h2.3v3.5h-2.3v0.1h2.4h0h0h6v3.5h-6
			h0h-2.4v0.1h2.3v3.5H229c0,0,0,0,0.1,0.1l0,0c0,0,0,0,0,0h2.1h0h0h6v0.2h0.1v-0.2h6h0h0h6v0.2h0.1v-0.2h6h0h0h6v0.2h0.1v-0.2h6h0
			h0h6v0.2h0.1v-0.2h6h0h0h6v0.2h0.1v-0.2h6h0h0h2.1c0,0,0,0,0.1,0l0,0l0,0c0,0,0,0,0.1-0.1h-2.1v-3.5h2.3v-0.1H292h0h-6v-3.5h6h0h0
			h2.4v-0.1h-2.3v-3.5h2.3v-0.1H292h0h-6V181h6h0h0h2.4v-0.1h-2.3v-3.5h2.3v-0.1H292h0h-6v-3.5h6h0h0h2.4v-0.1h-2.3v-3.5h2.3v-0.1
			H292h0h-6v-3.5h6h0h0h2.4v-0.1h-2.3V163h2.3v-0.1H292h0h-6v-3.5h6h0h0h2.2c0,0,0,0-0.1-0.1c0,0,0,0-0.1,0h-2V159.1L292.1,159.1z
			 M292,191.9v3.5h-6h0h-6v-3.5h6h0h0H292L292,191.9z M279.8,191.9v3.5h-6h0h-6v-3.5h6h0h0H279.8L279.8,191.9z M267.6,191.9v3.5h-6
			h0h-6v-3.5h6h0h0H267.6L267.6,191.9z M255.4,191.9v3.5h-6h0h-6v-3.5h6h0h0H255.4L255.4,191.9z M243.3,191.9v3.5h-6h0h-6v-3.5h6h0
			h0H243.3L243.3,191.9z M285.9,188.3v3.5h-6h0h-6v-3.5h6h0h0H285.9L285.9,188.3z M273.7,188.3v3.5h-6h0h-6v-3.5h6h0h0H273.7
			L273.7,188.3z M261.5,188.3v3.5h-6h0h-6v-3.5h6h0h0H261.5L261.5,188.3z M249.4,188.3v3.5h-6h0h-6v-3.5h6h0h0H249.4L249.4,188.3z
			 M292,184.7v3.5h-6h0h-6v-3.5h6h0h0H292L292,184.7z M279.8,184.7v3.5h-6h0h-6v-3.5h6h0h0H279.8L279.8,184.7z M267.6,184.7v3.5h-6
			h0h-6v-3.5h6h0h0H267.6L267.6,184.7z M255.4,184.7v3.5h-6h0h-6v-3.5h6h0h0H255.4L255.4,184.7z M243.3,184.7v3.5h-6h0h-6v-3.5h6h0
			h0H243.3L243.3,184.7z M285.9,181v3.5h-6h0h-6V181h6h0h0H285.9L285.9,181z M273.7,181v3.5h-6h0h-6V181h6h0h0H273.7L273.7,181z
			 M261.5,181v3.5h-6h0h-6V181h6h0h0H261.5L261.5,181z M249.4,181v3.5h-6h0h-6V181h6h0h0H249.4L249.4,181z M292,177.4v3.5h-6h0h-6
			v-3.5h6h0h0H292L292,177.4z M279.8,177.4v3.5h-6h0h-6v-3.5h6h0h0H279.8L279.8,177.4z M267.6,177.4v3.5h-6h0h-6v-3.5h6h0h0H267.6
			L267.6,177.4z M255.4,177.4v3.5h-6h0h-6v-3.5h6h0h0H255.4L255.4,177.4z M243.3,177.4v3.5h-6h0h-6v-3.5h6h0h0H243.3L243.3,177.4z
			 M285.9,173.8v3.5h-6h0h-6v-3.5h6h0h0H285.9L285.9,173.8z M273.7,173.8v3.5h-6h0h-6v-3.5h6h0h0H273.7L273.7,173.8z M261.5,173.8
			v3.5h-6h0h-6v-3.5h6h0h0H261.5L261.5,173.8z M249.4,173.8v3.5h-6h0h-6v-3.5h6h0h0H249.4L249.4,173.8z M292,170.2v3.5h-6h0h-6v-3.5
			h6h0h0H292L292,170.2z M279.8,170.2v3.5h-6h0h-6v-3.5h6h0h0H279.8L279.8,170.2z M267.6,170.2v3.5h-6h0h-6v-3.5h6h0h0H267.6
			L267.6,170.2z M255.4,170.2v3.5h-6h0h-6v-3.5h6h0h0H255.4L255.4,170.2z M243.3,170.2v3.5h-6h0h-6v-3.5h6h0h0H243.3L243.3,170.2z
			 M285.9,166.6v3.5h-6h0h-6v-3.5h6h0h0H285.9L285.9,166.6z M273.7,166.6v3.5h-6h0h-6v-3.5h6h0h0H273.7L273.7,166.6z M261.5,166.6
			v3.5h-6h0h-6v-3.5h6h0h0H261.5L261.5,166.6z M249.4,166.6v3.5h-6h0h-6v-3.5h6h0h0H249.4L249.4,166.6z M292,163v3.5h-6h0h-6V163h6
			h0h0H292L292,163z M279.8,163v3.5h-6h0h-6V163h6h0h0H279.8L279.8,163z M267.6,163v3.5h-6h0h-6V163h6h0h0H267.6L267.6,163z
			 M255.4,163v3.5h-6h0h-6V163h6h0h0H255.4L255.4,163z M243.3,163v3.5h-6h0h-6V163h6h0h0H243.3L243.3,163z M285.9,159.4v3.5h-6h0h-6
			v-3.5h6h0h0H285.9L285.9,159.4z M273.7,159.4v3.5h-6h0h-6v-3.5h6h0h0H273.7L273.7,159.4z M261.5,159.4v3.5h-6h0h-6v-3.5h6h0h0
			H261.5L261.5,159.4z M249.4,159.4v3.5h-6h0h-6v-3.5h6h0h0H249.4z"/>
		<path class="st37" d="M234.3,174.1v-3.1h10.9v3.1H234.3L234.3,174.1z M245.2,174.1v-3.1h10.9v3.1H245.2L245.2,174.1z M250.6,170.9
			h-10.9v-3.1h10.9V170.9L250.6,170.9z M250.7,170.9v-3.1h10.9v3.1H250.7L250.7,170.9z M267,167.6h-10.9v-3.1H267V167.6L267,167.6z
			 M267.1,167.6v-3.1H278v3.1H267.1L267.1,167.6z M272.5,164.4h-10.9v-3.1h10.9V164.4L272.5,164.4z M272.6,164.4v-3.1h10.9v3.1
			H272.6L272.6,164.4z M288.9,161.1h-10.9v-2H278v2h-10.9v-2H267v2h-10.9v-2h-0.1v2h-10.9v-2h-0.1v2h-10.9v-2h-0.1v2h-5.4v3.3h5.4
			v3.1h-5.4v3.3h5.4v3.1h-5.4v3.3h5.4v3.1h-5.4v3.3h5.4v3.1h-5.4v3.3h5.4v3.1h-5.4l0,1.4v-1.3h10.9v2h0.1v-2h10.9v2h0.1v-2h10.9v2
			h0.1v-2h10.9v2h0.1v-2h10.9v2h0.1v-2h10.9v1.3l0-1.4H289v-3.1h5.4v-3.3H289v-3.1h5.4v-3.3H289v-3.1h5.4v-3.3H289v-3.1h5.4v-3.3
			H289v-3.1h5.4v-3.3H288.9l0.1-2h-0.1V161.1L288.9,161.1z M228.8,174.2h10.9v3.1h-10.9V174.2L228.8,174.2z M239.7,177.3v-3.1h10.9
			v3.1H239.7L239.7,177.3z M234.3,177.4h10.9v3.1h-10.9V177.4L234.3,177.4z M245.2,180.6v-3.1h10.9v3.1H245.2L245.2,180.6z
			 M250.7,180.7h10.9v3.1h-10.9V180.7L250.7,180.7z M261.6,183.8v-3.1h10.9v3.1H261.6L261.6,183.8z M256.2,183.9H267v3.1h-10.9
			V183.9L256.2,183.9z M267.1,187.1v-3.1H278v3.1H267.1L267.1,187.1z M272.6,187.2h10.9v3.1h-10.9V187.2L272.6,187.2z M283.5,190.3
			v-3.1h10.9v3.1H283.5L283.5,190.3z M278.1,190.4h10.9v3.1h-10.9V190.4L278.1,190.4z M239.7,180.7h10.9v3.1h-10.9V180.7
			L239.7,180.7z M261.6,187.2h10.9v3.1h-10.9V187.2L261.6,187.2z M267.1,190.4H278v3.1h-10.9V190.4L267.1,190.4z M245.2,183.9h10.9
			v3.1h-10.9V183.9L245.2,183.9z M250.7,187.2h10.9v3.1h-10.9V187.2L250.7,187.2z M256.2,190.4H267v3.1h-10.9V190.4L256.2,190.4z
			 M234.3,183.9h10.9v3.1h-10.9V183.9L234.3,183.9z M239.7,187.2h10.9v3.1h-10.9V187.2L239.7,187.2z M245.2,190.4h10.9v3.1h-10.9
			V190.4L245.2,190.4z M228.8,180.7h10.9v3.1h-10.9V180.7L228.8,180.7z M228.8,187.2h10.9v3.1h-10.9V187.2L228.8,187.2z
			 M234.3,190.4h10.9v3.1h-10.9V190.4L234.3,190.4z M250.7,177.3v-3.1h10.9v3.1H250.7L250.7,177.3z M256.2,180.6v-3.1H267v3.1H256.2
			L256.2,180.6z M267.1,180.6v-3.1H278v3.1H267.1L267.1,180.6z M272.6,183.8v-3.1h10.9v3.1H272.6L272.6,183.8z M283.5,183.8v-3.1
			h10.9v3.1H283.5L283.5,183.8z M278.1,183.9h10.9v3.1h-10.9V183.9L278.1,183.9z M261.6,177.3v-3.1h10.9v3.1H261.6L261.6,177.3z
			 M272.6,177.3v-3.1h10.9v3.1H272.6L272.6,177.3z M278.1,177.4h10.9v3.1h-10.9V177.4L278.1,177.4z M283.5,174.2h10.9v3.1h-10.9
			V174.2L283.5,174.2z M256.2,174.1v-3.1H267v3.1H256.2L256.2,174.1z M267.1,174.1v-3.1H278v3.1H267.1L267.1,174.1z M278.1,174.1
			v-3.1h10.9v3.1H278.1L278.1,174.1z M272.5,170.9h-10.9v-3.1h10.9V170.9L272.5,170.9z M272.6,170.9v-3.1h10.9v3.1H272.6
			L272.6,170.9z M283.5,170.9v-3.1h10.9v3.1H283.5L283.5,170.9z M239.6,170.9h-10.9v-3.1h10.9V170.9L239.6,170.9z M278.1,167.6v-3.1
			h10.9v3.1H278.1L278.1,167.6z M256.1,167.6h-10.9v-3.1h10.9V167.6L256.1,167.6z M245.1,167.6h-10.9v-3.1h10.9V167.6L245.1,167.6z
			 M283.5,164.4v-3.1h10.9v3.1H283.5L283.5,164.4z M261.5,164.4h-10.9v-3.1h10.9V164.4L261.5,164.4z M250.6,164.4h-10.9v-3.1h10.9
			V164.4L250.6,164.4z M239.6,164.4h-10.9v-3.1h10.9V164.4z"/>
		<path class="st15" d="M267.7,187.2l-1.4,1.1c0,0-1.9,5.2-2.7,7.3h5.1c1.2-2.7,2.4-5.6,2.4-5.6L267.7,187.2z"/>
		<path class="st12" d="M265.5,174.3c0,0,0.3,4.1-0.8,6.8c0,0-0.4,0.7,0.2,1.2c0.6,0.5,4,2.6,9.5,2.6c5.5,0,10.1-5.1,10.2-5.7
			c0.1-0.6-2.3-4.4-2.6-7.9L265.5,174.3z"/>
		<path class="st38" d="M273.6,181.9l-1.2-0.9c0,0-2.4,0.3-4.5,3.9c0,0-1.5,2.5-1.6,2.7c-0.1,0.2-0.1,0.5-0.1,0.5s2.1,2.9,4.4,2.8
			C272.9,190.8,273.6,181.9,273.6,181.9z"/>
		<path class="st39" d="M271,181.8c0,0-0.9,1-1.3,2.9c-0.4,1.9,0.5,7.9,0.5,8.7c0,0.5,0.6,1.5,1.2,2.3H286v-11.2
			c-1.8-2.1-4.1-3.8-7.6-3.8C278.4,180.6,272.6,180,271,181.8z"/>
		<path class="st40" d="M289.6,195.7l-0.2-1l-1-6.9l0,0l-4.1,2.7c0,0-0.2,0.8-0.5,2.6c-0.2,0.9-0.7,1.8-1.5,2.5H289.6z"/>
		<path class="st14" d="M277.4,179.5c0,1,0,2.1,0,2.8c0,1.6-1.1,2.6-2.5,2.6c-0.1,0-0.1,0-0.2,0c-0.1,0-0.1,0-0.2,0
			c-1.5,0-2.5-1.1-2.5-2.6c0-0.7,0-1.8,0-2.8c0.5-0.5,1.6-1.2,2.7-1.5C275.7,178.3,276.9,178.9,277.4,179.5z"/>
		<path class="st14" d="M268,175.1c1,0,1.8,0.8,1.8,1.8c0,1-0.8,1.8-1.8,1.8c-1,0-1.8-0.8-1.8-1.8C266.2,175.9,267,175.1,268,175.1z
			"/>
		<path class="st14" d="M280.7,174.9c0,0,0.1,0,0.1,0h0l0,0c0.8,0.2,1.4,0.9,1.4,1.7c0,1-0.8,1.8-1.8,1.8c-1,0-1.8-0.8-1.8-1.8
			c0-0.6,0.3-1.1,0.7-1.4c0,0.5,0,1.2,0.7,1.3l0-1C280,175.1,280.4,174.9,280.7,174.9z"/>
		<path class="st15" d="M273.6,165.8L273.6,165.8c3.4-0.1,6.2,2.7,6.3,6.1l0.1,5.6c0.1,3.4-2.7,6.3-6.1,6.3l0,0
			c-3.4,0.1-6.3-2.7-6.3-6.1l-0.1-5.6C267.5,168.7,270.2,165.9,273.6,165.8z"/>
		<path class="st41" d="M273.6,165.8L273.6,165.8c3.4-0.1,6.2,2.7,6.3,6.1l0.1,5.6c0.1,3.4-2.7,6.2-6.1,6.3l0,0c-0.1,0-0.3,0-0.4,0
			c4-0.2,4.6-4,4.7-6.4c0.1-2.4-1.1-4.9-1.8-5.9c-0.7-0.9-2.4-0.4-3.2,0.8c-0.8,1.2-2.6,2.2-2.7,2.2c0,0-0.9,0.1-0.9,0.1l-0.7-2.6
			c0,0,1.6-3.7,2.7-5.9C272.3,166,272.9,165.9,273.6,165.8z"/>
		<path class="st12" d="M280,174.5l-0.6,0.1c0,0-0.6,1.8,0.6,1.9l0-1c0-0.1,0-0.1,0-0.2V174.5z"/>
		<path class="st22" d="M274.1,179.4c0,0.9-0.7,1.6-1.5,1.7c-0.9,0-1.6-0.7-1.7-1.5h0c0-0.2,0.1-0.3,0.3-0.3l2.6-0.1
			C274,179.1,274.1,179.2,274.1,179.4L274.1,179.4z"/>
		<path class="st12" d="M274.8,167.5l0.5,0.9c0,0,1.3-0.6,1.7,1.3c0.4,1.8,1.2,6.7,5.2,5.2c0,0,0.1-6-1.9-7.7
			C278.3,165.5,274.8,167.5,274.8,167.5z"/>
		<path class="st42" d="M277.4,171.3c0.6,2.1,1.7,4.7,4.8,3.6c0,0,0-0.5,0-1.2C278.8,175.2,277.4,171.4,277.4,171.3z"/>
		<path class="st12" d="M277.4,171.3c0.6,2.1,1.7,4.7,4.8,3.6c0,0,0-0.5,0-1.2C278.8,175.2,277.4,171.4,277.4,171.3z"/>
		<path class="st33" d="M277.4,168.3L277.4,168.3c-0.1,0-0.1,0-0.2,0c-1.5-0.4-2.4,1-3.5,2.7c-1.1,1.7-2.3,3.6-4.5,4.3
			c-0.2,0.1-0.4,0.2-0.6,0.3c-3.7,1.4-6.7-3.3-4.1-7.6c2.8-4.6,10.9-7.3,13.3-1.7C277.8,166.2,278.3,167.4,277.4,168.3L277.4,168.3z
			 M274.9,168.7c-1.9,1.1-2.9,3.9-4.7,5.6c1.4-0.9,2.3-2.3,3.1-3.6C273.9,170,274.4,169.2,274.9,168.7z"/>
		<path class="st12" d="M277.4,168.3L277.4,168.3c-0.1,0-0.1,0-0.2,0c-1.5-0.4-2.4,1-3.5,2.7c-1.1,1.7-2.3,3.6-4.5,4.3
			c-0.2,0.1-0.4,0.2-0.6,0.3c-2.5,1-4.8-1-5.1-3.7c0,0.1,0.5,2.3,2.4,2.6c1.9,0.3,4.6-2,5.9-4.3c1.3-2.3,3.1-3.1,4.2-3
			c1.1,0,1.8-0.7,1.1-2c0.3,0.4,0.5,0.8,0.7,1.3C277.8,166.2,278.3,167.4,277.4,168.3L277.4,168.3z M274.9,168.7
			c-1.9,1.1-2.9,3.9-4.7,5.6c1.4-0.9,2.3-2.3,3.1-3.6C273.9,170,274.4,169.2,274.9,168.7z"/>
		<path class="st15" d="M288.6,189.9l2.2,1.6c0,0,1,2.1,1.9,4.2h-7.1c-0.8-1.2-1.4-2.1-1.4-2.1L288.6,189.9z"/>
		<path class="st38" d="M280.6,180.9c0,0,3.2,0.2,6.5,4c0,0,2.1,2.8,3.6,5.4c0,0,0.2,0.5,0.1,1.1c0,0-4-0.4-5.7,3.4
			c0,0-0.4,0.1-0.6,0c-0.2-0.1-4.6-5.6-5.2-6.3C278.7,187.8,276.3,182.7,280.6,180.9z"/>
		<path class="st34" d="M230.9,156.9h61.3c1,0,2,0.4,2.6,1.1c0.7,0.7,1.1,1.6,1.1,2.6v33.5c0,1-0.4,2-1.1,2.6l0,0
			c-0.7,0.7-1.6,1.1-2.6,1.1h-61.3c-1,0-2-0.4-2.6-1.1l0,0c-0.7-0.7-1.1-1.6-1.1-2.6v-33.5c0-1,0.4-2,1.1-2.6c0,0,0.1-0.1,0.1-0.1
			C229.1,157.3,230,156.9,230.9,156.9L230.9,156.9z M292.2,159.9h-61.3c-0.2,0-0.4,0.1-0.5,0.2l0,0c-0.1,0.1-0.2,0.3-0.2,0.6v33.5
			c0,0.2,0.1,0.4,0.2,0.6l0,0c0.1,0.1,0.3,0.2,0.6,0.2h61.3c0.2,0,0.4-0.1,0.6-0.2l0,0l0,0c0.1-0.1,0.2-0.3,0.2-0.6v-33.5
			c0-0.2-0.1-0.4-0.2-0.6C292.7,159.9,292.5,159.9,292.2,159.9z"/>
		<path class="st37" d="M238.6,165.4H256c0.8,0,1.6,0.3,2.2,0.9c0.6,0.6,0.9,1.3,0.9,2.2v15.2c0,0.1,0,0.3-0.1,0.4
			c-0.1,0.1-0.2,0.2-0.3,0.2h0c-0.1,0.1-0.3,0.1-0.4,0c-0.1,0-0.2-0.1-0.3-0.2l-4.5-4.5h-14.8c-0.8,0-1.6-0.3-2.2-0.9
			c-0.6-0.6-0.9-1.3-0.9-2.2v-8c0-0.8,0.3-1.6,0.9-2.2C237,165.8,237.7,165.4,238.6,165.4z"/>
		<path class="st9" d="M238.1,164.8h17.4c0.8,0,1.6,0.3,2.2,0.9c0.6,0.6,0.9,1.3,0.9,2.2V183c0,0.1,0,0.3-0.1,0.4
			c-0.1,0.1-0.2,0.2-0.3,0.2h0c-0.1,0.1-0.3,0.1-0.4,0c-0.1,0-0.2-0.1-0.3-0.2l-4.5-4.5h-14.8c-0.8,0-1.6-0.3-2.2-0.9
			c-0.6-0.6-0.9-1.3-0.9-2.2v-8c0-0.8,0.3-1.6,0.9-2.2C236.5,165.1,237.3,164.8,238.1,164.8L238.1,164.8z M255.5,165.5h-17.4
			c-0.6,0-1.2,0.3-1.7,0.7c-0.4,0.4-0.7,1-0.7,1.7v8c0,0.6,0.3,1.2,0.7,1.7c0.4,0.4,1,0.7,1.7,0.7h15.1l4.6,4.6v-15
			c0-0.6-0.3-1.2-0.7-1.7C256.8,165.8,256.2,165.5,255.5,165.5z"/>
		<path class="st9" d="M238,167.8c-0.1,0-0.2-0.1-0.2-0.2c0-0.1,0.1-0.2,0.2-0.2h17.7c0.1,0,0.2,0.1,0.2,0.2c0,0.1-0.1,0.2-0.2,0.2
			H238z"/>
		<path class="st9" d="M238,169.7c-0.1,0-0.2-0.1-0.2-0.2c0-0.1,0.1-0.2,0.2-0.2h1.9c0.1,0,0.2,0.1,0.2,0.2c0,0.1-0.1,0.2-0.2,0.2
			H238L238,169.7z M242.3,169.7c-0.1,0-0.2-0.1-0.2-0.2c0-0.1,0.1-0.2,0.2-0.2h13.3c0.1,0,0.2,0.1,0.2,0.2c0,0.1-0.1,0.2-0.2,0.2
			H242.3z"/>
		<path class="st9" d="M238,171.6c-0.1,0-0.2-0.1-0.2-0.2c0-0.1,0.1-0.2,0.2-0.2h17.7c0.1,0,0.2,0.1,0.2,0.2c0,0.1-0.1,0.2-0.2,0.2
			H238z"/>
		<path class="st9" d="M242.9,174.2c-0.1,0-0.2-0.1-0.2-0.2c0-0.1,0.1-0.2,0.2-0.2h12.8c0.1,0,0.2,0.1,0.2,0.2
			c0,0.1-0.1,0.2-0.2,0.2H242.9z"/>
		<path class="st9" d="M248.6,176.3c-0.1,0-0.2-0.1-0.2-0.2c0-0.1,0.1-0.2,0.2-0.2h7.1c0.1,0,0.2,0.1,0.2,0.2c0,0.1-0.1,0.2-0.2,0.2
			H248.6z"/>
		<path class="st9" d="M244.5,176.3c-0.1,0-0.2-0.1-0.2-0.2c0-0.1,0.1-0.2,0.2-0.2h2.5c0.1,0,0.2,0.1,0.2,0.2c0,0.1-0.1,0.2-0.2,0.2
			H244.5z"/>
	</g>
	<g>
		<path class="st22" d="M105.6,112.7h108.6c1.8,0,3.3,1.5,3.3,3.3v78.4c0,1.8-1.5,3.3-3.3,3.3H105.6c-1.8,0-3.3-1.5-3.3-3.3v-78.4
			C102.2,114.2,103.7,112.7,105.6,112.7z"/>
		<g>
			<path class="st43" d="M105.6,112.7h108.6c1.8,0,3.3,1.5,3.3,3.3v78.4c0,1.8-1.5,3.3-3.3,3.3H105.6c-1.8,0-3.3-1.5-3.3-3.3v-78.4
				C102.2,114.2,103.7,112.7,105.6,112.7z"/>
			<path class="st44" d="M118.1,112.7h0.2v1.3h13.8h0h13.8v-1.3h0.2v1.3h13.8h0h13.8v-1.3h0.2v1.3h13.8h0h13.8v-1.3h0.2v1.3h13.8h0
				h1.3c0.1,0.1,0.1,0.2,0.2,0.2h-1.4v8h1.9v0.2h-2h0h0h-13.8v8h13.8h0h2v0.2h-1.9v8h1.9v0.2h-2h0h0h-13.8v8h13.8h0h2v0.2h-1.9v8
				h1.9v0.2h-2h0h0h-13.8v8h13.8h0h2v0.2h-1.9v8h1.9v0.2h-2h0h0h-13.8v8h13.8h0h2v0.2h-1.9v8h1.9v0.2h-2h0h0h-13.8v8h13.8h0h1.5
				c-0.1,0.1-0.1,0.2-0.2,0.2h-1.2v1c-0.1,0-0.2,0.1-0.2,0.1v-1.1h-13.8h0h0h-13.8v1.3h-0.2v-1.3h-13.8h0h0H160v1.3h-0.2v-1.3H146h0
				h0h-13.8v1.3H132v-1.3h-13.8h0h0h-13.8v1.1c-0.1,0-0.2-0.1-0.2-0.1v-1H103c-0.1-0.1-0.1-0.2-0.2-0.2h1.5h0h13.8v-8h-13.8h0h0h-2
				v-0.2h1.9v-8h-1.9v-0.2h2h0h13.8v-8h-13.8h0h0h-2v-0.2h1.9v-8h-1.9v-0.2h2h0h13.8v-8h-13.8h0h0h-2v-0.2h1.9v-8h-1.9v-0.2h2h0
				h13.8v-8h-13.8h0h0h-2v-0.2h1.9v-8h-1.9v-0.2h2h0h13.8v-8h-13.8h0h0h-2v-0.2h1.9v-8h-1.4c0.1-0.1,0.1-0.2,0.2-0.2h1.3h0h13.8
				V112.7L118.1,112.7z M201.5,188.3h-13.8h0h0h-13.8v8h13.8h0h13.8V188.3L201.5,188.3z M173.7,188.3h-13.8h0h0h-13.8v8h13.8h0h13.8
				V188.3L173.7,188.3z M145.9,188.3h-13.8h0h0h-13.8v8h13.8h0h13.8V188.3L145.9,188.3z M215.4,180.1h-13.8h0h0h-13.8v8h13.8h0h13.8
				V180.1L215.4,180.1z M187.6,180.1h-13.8h0h0H160v8h13.8h0h13.8V180.1L187.6,180.1z M159.8,180.1H146h0h0h-13.8v8H146h0h13.8
				V180.1L159.8,180.1z M132,180.1h-13.8h0h0h-13.8v8h13.8h0H132V180.1L132,180.1z M201.5,171.9h-13.8h0h0h-13.8v8h13.8h0h13.8
				V171.9L201.5,171.9z M173.7,171.9h-13.8h0h0h-13.8v8h13.8h0h13.8V171.9L173.7,171.9z M145.9,171.9h-13.8h0h0h-13.8v8h13.8h0h13.8
				V171.9L145.9,171.9z M215.4,163.6h-13.8h0h0h-13.8v8h13.8h0h13.8V163.6L215.4,163.6z M187.6,163.6h-13.8h0h0H160v8h13.8h0h13.8
				V163.6L187.6,163.6z M159.8,163.6H146h0h0h-13.8v8H146h0h13.8V163.6L159.8,163.6z M132,163.6h-13.8h0h0h-13.8v8h13.8h0H132V163.6
				L132,163.6z M201.5,155.4h-13.8h0h0h-13.8v8h13.8h0h13.8V155.4L201.5,155.4z M173.7,155.4h-13.8h0h0h-13.8v8h13.8h0h13.8V155.4
				L173.7,155.4z M145.9,155.4h-13.8h0h0h-13.8v8h13.8h0h13.8V155.4L145.9,155.4z M215.4,147.2h-13.8h0h0h-13.8v8h13.8h0h13.8V147.2
				L215.4,147.2z M187.6,147.2h-13.8h0h0H160v8h13.8h0h13.8V147.2L187.6,147.2z M159.8,147.2H146h0h0h-13.8v8H146h0h13.8V147.2
				L159.8,147.2z M132,147.2h-13.8h0h0h-13.8v8h13.8h0H132V147.2L132,147.2z M201.5,138.9h-13.8h0h0h-13.8v8h13.8h0h13.8V138.9
				L201.5,138.9z M173.7,138.9h-13.8h0h0h-13.8v8h13.8h0h13.8V138.9L173.7,138.9z M145.9,138.9h-13.8h0h0h-13.8v8h13.8h0h13.8V138.9
				L145.9,138.9z M215.4,130.7h-13.8h0h0h-13.8v8h13.8h0h13.8V130.7L215.4,130.7z M187.6,130.7h-13.8h0h0H160v8h13.8h0h13.8V130.7
				L187.6,130.7z M159.8,130.7H146h0h0h-13.8v8H146h0h13.8V130.7L159.8,130.7z M132,130.7h-13.8h0h0h-13.8v8h13.8h0H132V130.7
				L132,130.7z M201.5,122.5h-13.8h0h0h-13.8v8h13.8h0h13.8V122.5L201.5,122.5z M173.7,122.5h-13.8h0h0h-13.8v8h13.8h0h13.8V122.5
				L173.7,122.5z M145.9,122.5h-13.8h0h0h-13.8v8h13.8h0h13.8V122.5L145.9,122.5z M215.4,114.2h-13.8h0h0h-13.8v8h13.8h0h13.8V114.2
				L215.4,114.2z M187.6,114.2h-13.8h0h0H160v8h13.8h0h13.8V114.2L187.6,114.2z M159.8,114.2H146h0h0h-13.8v8H146h0h13.8V114.2
				L159.8,114.2z M132,114.2h-13.8h0h0h-13.8v8h13.8h0H132V114.2z"/>
		</g>
		<rect x="162.3" y="112.7" class="st45" width="1.4" height="85.1"/>
		<path class="st46" d="M163.7,197.9v-85.1h50.5c1.8,0,3.3,1.5,3.3,3.3v78.4c0,1.8-1.5,3.3-3.3,3.3H163.7z"/>
		<rect x="163.7" y="112.7" class="st22" width="15.4" height="85.1"/>
		<path class="st47" d="M191.2,112.7h6l-6,5.6V112.7L191.2,112.7z M206.6,112.7l-15.4,14.2v10.3l25.4-23.5c-0.6-0.7-1.5-1.1-2.4-1.1
			H206.6L206.6,112.7z M217.5,190.2v4.3c0,1.8-1.5,3.3-3.3,3.3h-4.9L217.5,190.2z"/>
		<polygon class="st48" points="191.2,197.9 191.2,157.6 191.2,152.6 191.2,112.7 196.4,112.7 196.4,123.3 217.5,123.3 217.5,127.6 
			196.4,127.6 196.4,152.6 196.4,157.6 196.4,172 217.5,172 217.5,176.3 196.4,176.3 196.4,197.9 		"/>
		<polygon class="st22" points="189.7,197.9 189.7,156.4 189.7,151.5 189.7,112.7 194.9,112.7 194.9,122.2 217.5,122.2 217.5,126.4 
			194.9,126.4 194.9,151.5 194.9,156.4 194.9,170.9 217.5,170.9 217.5,175.1 194.9,175.1 194.9,197.9 		"/>
		<rect x="179.1" y="112.7" class="st48" width="1.4" height="85.1"/>
		<path class="st12" d="M145.3,141.9c9.5-11.4-2.9-28.2-10.4-19.6c-3.8,4.3-8.8,2.6-8.8,7.2c0,0-0.7-0.7-1.3-0.5
			c-0.6,0.2,0.2,1.5,0.2,1.5s-2,1.5-2.3,2.6c-0.3,1.2,2,6.5,1.8,8l1.3-4.5l5.4-4.8l9.8-0.6l4.2,4.7L145.3,141.9z"/>
		<polygon class="st49" points="129.7,154.1 128,155.1 129.7,155.9 		"/>
		<path class="st33" d="M137.3,167.8c0,0,1.9,4.7,3.2,4.8c0.5,0,4.5,6.4,8.6,5.1c1.1-0.3,1.5-8,2.7-8.4c6.5-2.1,13.4-4.4,14.4-4.9
			c1.8-0.9,4.1-3.4,5.6-8.7c1.5-5.3,5.7-17.8,5.7-18.1c0-0.3-4-1.3-4.7-1.1c0,0-0.3,0-0.4,0.5c-0.2,0.5-10.1,17.6-10.7,18.8
			c-0.6,1.2-19.1,2.4-20.5,2.8C139.8,158.9,133.3,161.6,137.3,167.8z"/>
		<path class="st50" d="M136.1,155.4l6.6,4.7c0,0,4.7,18.4,4.7,19.2c0,0.8,1.8,11,1.8,11s-0.8,4-2.1,4.3c-2,0.5-4.9-2.7-5.4-4.2
			c-0.9-2.5-11.5-20.5-12-23.3c-0.5-2.8,0.7-9.5,1.4-10.2C131.7,156.1,136.1,155.4,136.1,155.4z"/>
		<polygon class="st14" points="137.3,158.3 138.2,156.3 137.9,155.1 137.9,151.4 129.4,148 129.4,156.8 		"/>
		<path class="st22" d="M129.4,154.5c0,0-0.8,0.3-1,0.4c-0.2,0.1,8.1,2.9,8.9,3.4c0,0-1,0.8-1.2,1c-0.2,0.2-2.7,5.4-3,5.9l-5.7-6.4
			c0,0,0.4-3.8,0.4-4c0.1-0.2,1.6-0.5,1.6-0.5V154.5z"/>
		<path class="st12" d="M142.1,158.4c0,0,0.7,0.4,2.1,0.4c1.9,0.1,5.1,8.1,6.1,11.3c3.3,9.8,1.4,24,1.4,26.9c0,1,0,0.4,0,0.8h-4.8
			c0.3-4.3-1.4-5.6-1.4-5.6l-0.1-13.6l-1.8-16L142.1,158.4z"/>
		<path class="st12" d="M126,160.5c0,0-8.3,4.4-8.5,4.9c-0.3,0.5,4,24.1,6.4,32.5h25.1c0-0.1-10.4-22.7-11.3-24.7
			C137.7,173.2,131.2,161.1,126,160.5z"/>
		<path class="st33" d="M140.3,157.4c0,0,1.9,0.3,2.4,0.6c0.5,0.3,4.2,6.4,4.3,6.9c0,0,0.1,0.2-0.2,0.4c-0.2,0.1-1,0.6-1.1,0.7
			c-0.1,0.1,1.3,0.2,1.3,0.2s0.2,0.1,0.1,0.3c0,0.2-1.4,25.9-1.4,25.9c-0.6-5.8-0.3-16.6-1.8-24.5c-0.8-4.3-4.4-8.9-4.1-9.5
			L140.3,157.4z"/>
		<path class="st33" d="M127.4,158.3c5.1,7,15.4,24.6,17.4,32c-1.5-2-16-16-15.7-17c0.1-0.2,3.4-4,3.4-4s-4,0.6-4.4,0.6
			c-0.4,0-3.2-8.4-3.2-8.7C124.9,160.9,127.4,158.3,127.4,158.3z"/>
		<path class="st22" d="M137.9,155.1c0,0,1.3,0.5,1.6,0.7c0.3,0.2,2.7,6.4,2.9,6.9c0.2,0.5-4-3.9-4.2-4c-0.2-0.1-0.6,0.1-0.6,0.1
			l-0.3-0.4L137.9,155.1z"/>
		<path class="st14" d="M144.7,139.8c-1.6,0.1-2.9,1.5-2.8,3.1c0,1.6,1.4,2.9,3,2.8c1.6-0.1,2.9-1.5,2.8-3.1
			C147.6,141,146.3,139.8,144.7,139.8z"/>
		<path class="st14" d="M124.9,141c-1.6,0.1-2.9,1.5-2.8,3.1c0,1.6,1.4,2.9,3,2.8c1.6-0.1,2.9-1.5,2.8-3.1
			C127.8,142.1,126.5,140.9,124.9,141z"/>
		<path class="st15" d="M135.1,125.5L135.1,125.5c-5.4,0.3-9.8,5.1-9.7,10.6l0.2,9.1c0.1,5.5,4.7,9.8,10.1,9.5h0
			c5.4-0.3,9.8-5.1,9.7-10.6l-0.1-4.6l-0.1-4.6C145.1,129.5,140.5,125.2,135.1,125.5z"/>
		<path class="st41" d="M131,126.7L131,126.7c-3.4,1.8-5.7,5.4-5.6,9.5l0.2,9.1c0.1,5.5,4.7,9.8,10.1,9.5h0c1.3-0.1,2.4-0.4,3.5-0.9
			c-9.7,0.6-10.9-6-11.1-11.6c-0.2-8.3,8.8-5.8,16-6.2c0.3,0,0.6,0,0.9-0.1l0-1c0-0.9-0.2-1.8-0.4-2.6c-4-2.3-9.5-5.2-12-5.6
			C132,126.7,131.5,126.7,131,126.7L131,126.7C131.1,126.7,131.1,126.7,131,126.7z"/>
		<path class="st12" d="M126.6,139c0,0,2.3-0.7,2.3-3.3c0.9,1.4,3.1,1.6,1.9-0.6c0,0,0,0,0,0c10.4,1.6,14.5-4,14.5,3.1
			c0.6-4.8,0.6-13.6-5.8-14.5c-3-0.4-9.7,2.7-10.2,2.9c-1.2,0.5-5,7.3-5,7.3L126.6,139z"/>
		<path class="st12" d="M126.7,136.2l0.5,2.6c0,0,0,1,0,1.5c0,0.5-0.2,1.4-0.7,1.5c0,0,0,0.7,0,1.1c0,0.4-0.2,1.2-0.9,1.2l0-1.9
			c0,0,0-1.2-0.9-1.2l-0.7-6.2l3,0L126.7,136.2z"/>
		<path class="st33" d="M117.8,165c0,0-1.2,1.7-1.7,3.1c-0.4,1.4-4.5,20.3-5.3,29.8h9.9c1.1-7.9,5.7-23.2,5.7-24.8
			C126.5,171.5,125.7,162.4,117.8,165z"/>
		<path class="st12" d="M126.6,133.1c0,0.1,0.2,0.1,0.2,0.1c0.1,0,0.1-0.2,0.1-0.2c0,0-1.8-3.2,0.3-7.7c0-0.1,0-0.2-0.1-0.2
			c-0.1,0-0.2,0-0.2,0.1C124.7,129.7,126.6,133.1,126.6,133.1z"/>
		<path class="st12" d="M146.9,138.5c-0.1,0.1-0.2,0.1-0.2,0c-0.1-0.1-0.1-0.2,0-0.2c0,0,2.8-2.4,2.3-7.3c0-0.1,0.1-0.2,0.2-0.2
			c0.1,0,0.2,0.1,0.2,0.2C149.9,136,147,138.5,146.9,138.5z"/>
		<path class="st12" d="M145.4,144.2c0,0,0.3,0.9,0.3,1.3c0,0.5-0.3,5.2-0.6,6.8c-0.3,1.5-3.5,4.4-8.6,4.1c-5.1-0.3-8.7-3.7-9.6-5.4
			c-0.8-1.7-1.5-4-1.4-6.9l0.9-1.2c0,0,0,1.7,0,2.2c0,0.4,1.6,2.8,2.2,3.1c0.7,0.4,4-3,6.1-3c2.1,0,5.1,0,5.7,0s0.3,0,0.9,0
			s1.4,1,1.7,1.5C143.4,147.2,145.5,146.6,145.4,144.2L145.4,144.2z M140.1,146.9h-3.4c-1.1,0-1.9,0.9-1.9,1.9v0
			c0,1.1,0.9,1.9,1.9,1.9h3.4c1.1,0,1.9-0.9,1.9-1.9v0C142,147.8,141.1,146.9,140.1,146.9z"/>
		<path class="st33" d="M105.6,111.2h108.6c1.3,0,2.5,0.5,3.4,1.4c0,0,0.1,0.1,0.1,0.1c0.8,0.9,1.3,2,1.3,3.3v78.4
			c0,1.3-0.5,2.5-1.4,3.4l0,0c-0.9,0.9-2.1,1.4-3.4,1.4H105.6c-1.3,0-2.5-0.5-3.4-1.4l0,0c-0.9-0.9-1.4-2.1-1.4-3.4v-78.4
			c0-1.3,0.5-2.5,1.4-3.4l0,0C103.1,111.8,104.3,111.2,105.6,111.2L105.6,111.2z M214.2,114.2H105.6c-0.5,0-1,0.2-1.3,0.5l0,0
			c-0.3,0.3-0.5,0.8-0.5,1.3v78.4c0,0.5,0.2,1,0.5,1.3l0,0c0.3,0.3,0.8,0.5,1.3,0.5h108.6c0.5,0,1-0.2,1.3-0.6l0,0l0,0
			c0.3-0.3,0.5-0.8,0.5-1.3v-78.4c0-0.5-0.2-0.9-0.5-1.3l-0.1-0.1C215.2,114.4,214.7,114.2,214.2,114.2z"/>
		<path class="st33" d="M212.7,147c0.3,0,0.6-0.3,0.6-0.6s-0.3-0.6-0.6-0.6h-19.6c-0.3,0-0.6,0.3-0.6,0.6s0.3,0.6,0.6,0.6H212.7z"/>
		<path class="st33" d="M212.5,150.8c0.3,0,0.6-0.3,0.6-0.6c0-0.3-0.3-0.6-0.6-0.6H205c-0.3,0-0.6,0.3-0.6,0.6
			c0,0.3,0.3,0.6,0.6,0.6H212.5z"/>
		<path class="st33" d="M212.7,154.8c0.3,0,0.6-0.3,0.6-0.6c0-0.3-0.3-0.6-0.6-0.6h-7.8c-0.3,0-0.6,0.3-0.6,0.6
			c0,0.3,0.3,0.6,0.6,0.6H212.7z"/>
		<path class="st33" d="M212.7,158.4c0.3,0,0.6-0.3,0.6-0.6c0-0.3-0.3-0.6-0.6-0.6H197c-0.3,0-0.6,0.3-0.6,0.6
			c0,0.3,0.3,0.6,0.6,0.6H212.7z"/>
		<path class="st33" d="M213.1,162.2c0.1,0,0.2-0.3,0.2-0.6c0-0.3-0.1-0.6-0.2-0.6h-7c-0.1,0-0.2,0.3-0.2,0.6c0,0.3,0.1,0.6,0.2,0.6
			H213.1z"/>
		<path class="st33" d="M212.7,166.3c0.3,0,0.6-0.3,0.6-0.6c0-0.3-0.3-0.6-0.6-0.6h-25.2c-0.3,0-0.6,0.3-0.6,0.6
			c0,0.3,0.3,0.6,0.6,0.6H212.7z"/>
		<path class="st35" d="M209.5,121.9h-21.3c-1,0-2,0.4-2.7,1.1c-0.7,0.7-1.1,1.6-1.1,2.7v18.5c0,0.2,0,0.3,0.1,0.4
			c0.1,0.1,0.2,0.2,0.4,0.3h0c0.2,0.1,0.3,0.1,0.5,0c0.2,0,0.3-0.1,0.4-0.2l5.5-5.5h18.1c1,0,2-0.4,2.7-1.1c0.7-0.7,1.1-1.6,1.1-2.7
			v-9.8c0-1-0.4-2-1.1-2.7C211.5,122.3,210.6,121.9,209.5,121.9z"/>
		<path class="st22" d="M209.7,125.6c0.1,0,0.2-0.1,0.2-0.2c0-0.1-0.1-0.2-0.2-0.2h-21.6c-0.1,0-0.2,0.1-0.2,0.2
			c0,0.1,0.1,0.2,0.2,0.2H209.7z"/>
		<path class="st22" d="M209.7,127.9c0.1,0,0.2-0.1,0.2-0.2c0-0.1-0.1-0.2-0.2-0.2h-2.3c-0.1,0-0.2,0.1-0.2,0.2
			c0,0.1,0.1,0.2,0.2,0.2H209.7L209.7,127.9z M204.4,127.9c0.1,0,0.2-0.1,0.2-0.2c0-0.1-0.1-0.2-0.2-0.2h-16.3
			c-0.1,0-0.2,0.1-0.2,0.2c0,0.1,0.1,0.2,0.2,0.2H204.4z"/>
		<path class="st22" d="M209.7,130.2c0.1,0,0.2-0.1,0.2-0.2c0-0.1-0.1-0.2-0.2-0.2h-21.6c-0.1,0-0.2,0.1-0.2,0.2
			c0,0.1,0.1,0.2,0.2,0.2H209.7z"/>
		<path class="st22" d="M203.7,133.4c0.1,0,0.2-0.1,0.2-0.2s-0.1-0.2-0.2-0.2h-15.6c-0.1,0-0.2,0.1-0.2,0.2s0.1,0.2,0.2,0.2H203.7z"
			/>
		<path class="st22" d="M196.7,135.9c0.1,0,0.2-0.1,0.2-0.2c0-0.1-0.1-0.2-0.2-0.2h-8.6c-0.1,0-0.2,0.1-0.2,0.2
			c0,0.1,0.1,0.2,0.2,0.2H196.7z"/>
		<path class="st22" d="M201.7,135.9c0.1,0,0.2-0.1,0.2-0.2c0-0.1-0.1-0.2-0.2-0.2h-3.1c-0.1,0-0.2,0.1-0.2,0.2
			c0,0.1,0.1,0.2,0.2,0.2H201.7z"/>
		<path class="st33" d="M212.7,173.9c0.3,0,0.6-0.3,0.6-0.6c0-0.3-0.3-0.6-0.6-0.6h-19.6c-0.3,0-0.6,0.3-0.6,0.6
			c0,0.3,0.3,0.6,0.6,0.6H212.7z"/>
		<path class="st33" d="M212.5,177.7c0.3,0,0.6-0.3,0.6-0.6s-0.3-0.6-0.6-0.6H205c-0.3,0-0.6,0.3-0.6,0.6s0.3,0.6,0.6,0.6H212.5z"/>
		<path class="st33" d="M212.7,181.7c0.3,0,0.6-0.3,0.6-0.6c0-0.3-0.3-0.6-0.6-0.6h-7.8c-0.3,0-0.6,0.3-0.6,0.6
			c0,0.3,0.3,0.6,0.6,0.6H212.7z"/>
		<path class="st33" d="M212.7,185.3c0.3,0,0.6-0.3,0.6-0.6c0-0.3-0.3-0.6-0.6-0.6H197c-0.3,0-0.6,0.3-0.6,0.6
			c0,0.3,0.3,0.6,0.6,0.6H212.7z"/>
		<path class="st33" d="M213.1,189.1c0.1,0,0.2-0.3,0.2-0.6c0-0.3-0.1-0.6-0.2-0.6h-7c-0.1,0-0.2,0.3-0.2,0.6c0,0.3,0.1,0.6,0.2,0.6
			H213.1z"/>
		<path class="st33" d="M212.7,193.2c0.3,0,0.6-0.3,0.6-0.6c0-0.3-0.3-0.6-0.6-0.6h-25.2c-0.3,0-0.6,0.3-0.6,0.6
			c0,0.3,0.3,0.6,0.6,0.6H212.7z"/>
		<g>
			<path class="st15" d="M170.5,134.3c-0.3-1.5-1.7-4.8-2-5.1c-0.4-0.5,1.9-1.9,2.7,0.4c0,0,1.1,1.5,1.5,1.2
				c0.4-0.2,1.3-5.9,1.3-6.7c0.1-0.7,1-0.8,1.3-0.6c0.2,0.2,0,1.1,0,2.4c-0.1,1.3-0.1,2.1,0,2.3c0.3,0.4,1.9-4.5,2.4-4.8
				c0.4-0.2,1.5,0.3,1.4,0.9c-0.1,0.7-1.8,4.6-1.9,5.2c-0.1,0.6,0.3,0.3,0.5-0.1c0.3-0.3,2.6-4.2,2.9-4.4c0.3-0.2,1.3,0.4,1.1,1.1
				c-0.2,0.7-2.5,4.6-2.4,4.9c0,0.3,0.2,0.3,1-0.2c0.7-0.5,2.2-1.6,2.6-1.5c0.3,0,0.6,0.8,0,1.5c-0.6,0.7-2.2,2.4-2.4,2.6
				c-1,1.5-1.6,3.1-2.5,4.2c-0.4,0.4-0.8,0.7-1.3,0.9C173.5,139.7,171.1,137.4,170.5,134.3z"/>
			<path class="st41" d="M178.2,137.5c-0.1,0.1-0.1,0.2-0.2,0.3c-0.3,0.3-0.7,0.6-1.2,0.8c0,0-0.1,0-0.1,0c-2.1,0.8-3.8,0-5-1.4
				c-0.6-0.8-1-1.7-1.2-2.8c0,0,0-0.1,0-0.1C171.9,137.3,175.1,138.4,178.2,137.5z"/>
		</g>
	</g>
	<g>
		<path class="st4" d="M165.4,93.2h-9.1c-1.2,0-2.3-1-2.3-2.3v-6.7c0-1.2,1-2.3,2.3-2.3h9.1c1.2,0,2.3,1,2.3,2.3v6.7
			C167.6,92.1,166.6,93.2,165.4,93.2z"/>
		<polygon class="st4" points="172.6,83.7 172.6,91.4 168.5,89.4 168.5,85.6 		"/>
	</g>
</g>
</svg>
