<?xml version="1.0" encoding="utf-8"?>
<!-- Generator: Adobe Illustrator 24.1.1, SVG Export Plug-In . SVG Version: 6.00 Build 0)  -->
<svg version="1.1" id="Layer_1" xmlns="http://www.w3.org/2000/svg" xmlns:xlink="http://www.w3.org/1999/xlink" x="0px" y="0px"
	 viewBox="0 0 100 100" style="enable-background:new 0 0 100 100;" xml:space="preserve">
<style type="text/css">
	.st0{fill:#008AFC;}
</style>
<path class="st0" d="M83.9,6.4H16.1c-5.3,0-9.7,4.4-9.7,9.7v67.8c0,5.3,4.3,9.7,9.7,9.7h67.8c5.3,0,9.7-4.4,9.7-9.7V16.1
	C93.6,10.8,89.2,6.4,83.9,6.4z M83.9,83.9H16.1V69.4h17.2C36.7,75.1,42.9,79,50,79s13.3-3.9,16.7-9.7h17.1V83.9z M83.9,59.7H59.7
	c0,5.3-4.4,9.7-9.7,9.7s-9.7-4.4-9.7-9.7H16.1V16.1h67.8V59.7z"/>
</svg>
