<?xml version="1.0" encoding="utf-8"?>
<!-- Generator: Adobe Illustrator 24.1.1, SVG Export Plug-In . SVG Version: 6.00 Build 0)  -->
<svg version="1.1" id="Layer_1" xmlns="http://www.w3.org/2000/svg" xmlns:xlink="http://www.w3.org/1999/xlink" x="0px" y="0px"
	 viewBox="0 0 100 100" style="enable-background:new 0 0 100 100;" xml:space="preserve">
<style type="text/css">
	.st0{fill:#FFFFFF;}
</style>
<g>
	<g>
		<path class="st0" d="M50,3c6.7,0,12.1,5.2,12.4,11.8C74,19.8,81.8,31.2,81.8,44.2v17.9c5.2,0.4,9.3,4.8,9.3,10.1
			c0,5.6-4.5,10.1-10.1,10.1H19c-5.6,0-10.1-4.5-10.1-10.1c0-5.3,4.1-9.7,9.3-10.1V44.2c0-13,7.8-24.4,19.4-29.3
			C37.9,8.3,43.3,3,50,3z M42.6,21.2c-9.9,3.2-16.7,12.4-16.7,22.9v18.6c0,3.9-3.1,7-7,7c-1.3,0-2.3,1-2.3,2.3c0,1.3,1,2.3,2.3,2.3
			H81c1.3,0,2.3-1,2.3-2.3c0-1.3-1.1-2.3-2.3-2.3c-3.9,0-7-3.1-7-7V44.2c0-10.5-6.8-19.8-16.7-22.9l-2.7-0.9v-5
			c0-2.6-2.1-4.6-4.7-4.6c-2.6,0-4.7,2.1-4.7,4.6v5L42.6,21.2z M35.2,82.2H43c0,3.9,3.1,7,7,7s7-3.1,7-7h7.8
			C64.8,90.4,58.1,97,50,97S35.2,90.4,35.2,82.2z"/>
	</g>
</g>
</svg>
