<?xml version="1.0" encoding="utf-8"?>
<!-- Generator: Adobe Illustrator 24.1.1, SVG Export Plug-In . SVG Version: 6.00 Build 0)  -->
<svg version="1.1" id="Layer_1" xmlns="http://www.w3.org/2000/svg" xmlns:xlink="http://www.w3.org/1999/xlink" x="0px" y="0px"
	 viewBox="0 0 100 100" style="enable-background:new 0 0 100 100;" xml:space="preserve">
<style type="text/css">
	.st0{fill:#5A5A5A;}
</style>
<g>
	<path class="st0" d="M99.1,48.1c-9-11-28.2-23.9-49.1-23.9c-21,0-40.1,12.9-49.1,23.9c-0.9,1.1-0.9,2.6,0,3.7
		C10.2,63.1,29.4,75.7,50,75.7c21.4,0,40.4-13.3,49.1-23.9C100,50.8,100,49.2,99.1,48.1z M69.9,50c0,11-8.9,19.9-19.9,19.9
		C39,69.9,30.1,61,30.1,50c0-11,8.9-19.9,19.9-19.9C61,30.1,69.9,39,69.9,50L69.9,50z M7.1,50c3.3-3.4,11.2-10.8,22.4-15.6
		c-7,9.2-7,21.9,0,31.1C21,62,13.2,56.3,7.1,50z M70.5,65.6c7-9.2,7-21.9,0-31.1C79,38,86.8,43.7,92.9,50
		C89.6,53.4,81.6,60.8,70.5,65.6z"/>
	<path class="st0" d="M40,50c0,5.5,4.5,10,10,10c5.5,0,10-4.5,10-10s-4.5-10-10-10C44.5,40,40,44.5,40,50z M54.1,50
		c0,2.3-1.8,4.1-4.1,4.1c-2.3,0-4.1-1.8-4.1-4.1s1.8-4.1,4.1-4.1C52.3,45.9,54.1,47.7,54.1,50z"/>
</g>
</svg>
