<?xml version="1.0" encoding="utf-8"?>
<!-- Generator: Adobe Illustrator 24.1.1, SVG Export Plug-In . SVG Version: 6.00 Build 0)  -->
<svg version="1.1" id="Layer_1" xmlns="http://www.w3.org/2000/svg" xmlns:xlink="http://www.w3.org/1999/xlink" x="0px" y="0px"
	 viewBox="0 0 100 100" style="enable-background:new 0 0 100 100;" xml:space="preserve">
<style type="text/css">
	.st0{fill:#5A5A5A;}
</style>
<g>
	<g>
		<path class="st0" d="M50,98c-1.7,0-3.1-1.4-3.1-3.1v-24c0-1.7,1.4-3.1,3.1-3.1s3.1,1.4,3.1,3.1v24C53.1,96.6,51.7,98,50,98z"/>
	</g>
	<g>
		<path class="st0" d="M67.7,98c-0.6,0-1.2-0.2-1.7-0.5L48.3,86c-1.5-0.9-1.9-2.9-0.9-4.3c0.9-1.5,2.9-1.9,4.3-0.9l17.7,11.5
			c1.5,0.9,1.9,2.9,0.9,4.3C69.7,97.4,68.7,98,67.7,98L67.7,98z"/>
	</g>
	<g>
		<path class="st0" d="M32.3,98c-1,0-2-0.5-2.6-1.4c-0.9-1.5-0.5-3.4,0.9-4.3l17.7-11.5c1.4-0.9,3.4-0.5,4.3,0.9
			c0.9,1.5,0.5,3.4-0.9,4.3L34,97.5C33.5,97.8,32.9,98,32.3,98L32.3,98z"/>
	</g>
	<g>
		<path class="st0" d="M86.7,20.8H13.3c-5.2,0-9.4-4.2-9.4-9.4S8.1,2,13.3,2h73.5c5.2,0,9.4,4.2,9.4,9.4S91.9,20.8,86.7,20.8z
			 M13.3,8.3c-1.7,0-3.1,1.4-3.1,3.1s1.4,3.1,3.1,3.1h73.5c1.7,0,3.1-1.4,3.1-3.1s-1.4-3.1-3.1-3.1H13.3z"/>
	</g>
	<g>
		<path class="st0" d="M81.5,72.9H18.5c-4,0-7.3-3.3-7.3-7.3v-48c0-1.7,1.4-3.1,3.1-3.1h71.4c1.7,0,3.1,1.4,3.1,3.1v48
			C88.8,69.7,85.6,72.9,81.5,72.9z M17.4,20.8v44.8c0,0.6,0.5,1,1,1h63.1c0.6,0,1-0.5,1-1V20.8H17.4z"/>
	</g>
	<g>
		<path class="st0" d="M28.1,60.4c-0.8,0-1.6-0.3-2.2-0.9c-1.2-1.2-1.2-3.2,0.1-4.4l15.9-15.5c1-1,2.7-1.2,3.9-0.4l9.6,6.2
			l14.1-17.2c1.1-1.3,3.1-1.5,4.4-0.4c1.3,1.1,1.5,3.1,0.4,4.4L58.4,51.5c-1,1.2-2.8,1.5-4.1,0.6l-9.8-6.4L30.3,59.5
			C29.7,60.1,28.9,60.4,28.1,60.4z"/>
	</g>
</g>
</svg>
