<?xml version="1.0" encoding="utf-8"?>
<!-- Generator: Adobe Illustrator 24.1.1, SVG Export Plug-In . SVG Version: 6.00 Build 0)  -->
<svg version="1.1" id="Layer_1" xmlns="http://www.w3.org/2000/svg" xmlns:xlink="http://www.w3.org/1999/xlink" x="0px" y="0px"
	 viewBox="0 0 100 100" style="enable-background:new 0 0 100 100;" xml:space="preserve">
<style type="text/css">
	.st0{clip-path:url(#SVGID_2_);fill:#FFFFFF;}
</style>
<g>
	<g>
		<defs>
			<rect id="SVGID_1_" x="4.4" y="2.4" width="91.2" height="97.2"/>
		</defs>
		<use xlink:href="#SVGID_1_"  style="overflow:visible;fill:#FFFFFF;"/>
		<clipPath id="SVGID_2_">
			<use xlink:href="#SVGID_1_"  style="overflow:visible;"/>
		</clipPath>
		<path class="st0" d="M94.4,89.2L71.9,65.7c5.8-6.9,9-15.6,9-24.6c0-21.1-17.1-38.2-38.2-38.2C21.5,2.9,4.4,20.1,4.4,41.2
			c0,21.1,17.1,38.2,38.2,38.2c7.9,0,15.5-2.4,21.9-6.9l22.7,23.6c0.9,1,2.2,1.5,3.6,1.5c1.3,0,2.5-0.5,3.4-1.4
			C96.2,94.3,96.3,91.2,94.4,89.2L94.4,89.2z M42.6,12.9c15.6,0,28.3,12.7,28.3,28.2c0,15.6-12.7,28.3-28.3,28.3
			c-15.6,0-28.2-12.7-28.2-28.3C14.4,25.6,27,12.9,42.6,12.9L42.6,12.9z M42.6,12.9"/>
	</g>
</g>
</svg>
