<?xml version="1.0" encoding="utf-8"?>
<!-- Generator: Adobe Illustrator 24.1.1, SVG Export Plug-In . SVG Version: 6.00 Build 0)  -->
<svg version="1.1" id="Layer_1" xmlns="http://www.w3.org/2000/svg" xmlns:xlink="http://www.w3.org/1999/xlink" x="0px" y="0px"
	 viewBox="0 0 100 100" style="enable-background:new 0 0 100 100;" xml:space="preserve">
<style type="text/css">
	.st0{fill:#008AFC;stroke:#008AFC;stroke-width:3;stroke-miterlimit:10;}
</style>
<g>
	<g>
		<path class="st0" d="M95.6,50.7c0-1.1-0.6-2.1-1.6-2.5L8.7,10.9c-1-0.4-2.1-0.2-2.9,0.5s-1.1,1.8-0.7,2.8l12.1,35.9L4.5,85.8
			c-0.3,1-0.1,2.1,0.6,2.8c0,0,0,0,0.1,0.1c0.8,0.7,1.9,0.9,2.9,0.5l85.8-36C95,52.7,95.6,51.8,95.6,50.7z M12.2,18.2l67.7,29.6
			L22,47.4L12.2,18.2z M11.7,81.8l10.3-29l57.8,0.5L11.7,81.8z"/>
	</g>
</g>
</svg>
