<?xml version="1.0" encoding="utf-8"?>
<!-- Generator: Adobe Illustrator 24.1.1, SVG Export Plug-In . SVG Version: 6.00 Build 0)  -->
<svg version="1.1" id="Layer_1" xmlns="http://www.w3.org/2000/svg" xmlns:xlink="http://www.w3.org/1999/xlink" x="0px" y="0px"
	 viewBox="0 0 100 100" style="enable-background:new 0 0 100 100;" xml:space="preserve">
<style type="text/css">
	.st0{fill:#20CFE0;}
	.st1{fill:#FFFFFF;}
</style>
<g>
	<path class="st0" d="M84.6,94H15.4c-6.6,0-12-5.4-12-12V18c0-6.6,5.4-12,12-12h69.2c6.6,0,12,5.4,12,12v64
		C96.6,88.6,91.2,94,84.6,94z"/>
	<g>
		<g>
			<g>
				<path class="st1" d="M77,16.2H23c-4.9,0-9,4.1-9,9v49.6c0,4.9,4.1,9,9,9h53.9c4.9,0,9-4.1,9-9V25.2C86,20.3,81.9,16.2,77,16.2z
					 M80,74.8c0,1.6-1.3,3-3,3H23c-1.6,0-3-1.3-3-3V25.2c0-1.6,1.3-3,3-3h53.9c1.6,0,3,1.3,3,3L80,74.8L80,74.8z"/>
			</g>
		</g>
	</g>
	<circle class="st1" cx="31.6" cy="44.1" r="2.9"/>
	<path class="st1" d="M69.2,44.5c0-1.4-1.1-2.5-2.5-2.5H42.3c-1.4,0-2.5,1.1-2.5,2.5s1.1,2.5,2.5,2.5h24.4
		C68.1,47,69.2,45.9,69.2,44.5z"/>
	<circle class="st1" cx="31.6" cy="32.5" r="2.9"/>
	<path class="st1" d="M66.3,30.1H42.5c-1.3,0-2.4,1.1-2.4,2.4s1.1,2.4,2.4,2.4h23.8c1.3,0,2.4-1.1,2.4-2.4
		C68.7,31.2,67.6,30.1,66.3,30.1z"/>
	<circle class="st1" cx="31.8" cy="67.9" r="2.9"/>
	<path class="st1" d="M69.4,68.3c0-1.4-1.1-2.5-2.5-2.5H42.5c-1.4,0-2.5,1.1-2.5,2.5s1.1,2.5,2.5,2.5h24.4
		C68.3,70.8,69.4,69.7,69.4,68.3z"/>
	<circle class="st1" cx="31.8" cy="56.3" r="2.9"/>
	<path class="st1" d="M66.4,53.9H42.6c-1.3,0-2.4,1.1-2.4,2.4s1.1,2.4,2.4,2.4h23.8c1.3,0,2.4-1.1,2.4-2.4
		C68.9,55,67.8,53.9,66.4,53.9z"/>
</g>
</svg>
