<?xml version="1.0" encoding="utf-8"?>
<!-- Generator: Adobe Illustrator 24.1.1, SVG Export Plug-In . SVG Version: 6.00 Build 0)  -->
<svg version="1.1" id="Layer_1" xmlns="http://www.w3.org/2000/svg" xmlns:xlink="http://www.w3.org/1999/xlink" x="0px" y="0px"
	 viewBox="0 0 100 100" style="enable-background:new 0 0 100 100;" xml:space="preserve">
<style type="text/css">
	.st0{fill:#008AFC;}
	.st1{fill:none;stroke:#008AFC;stroke-width:5;stroke-miterlimit:10;}
</style>
<g>
	<path class="st0" d="M1.9,16.1v67.3c0,4,3.3,7.3,7.3,7.3h81.6c4,0,7.3-3.3,7.3-7.3V16.1c0-4-3.3-7.3-7.3-7.3H9.2
		C5.2,8.8,1.9,12.1,1.9,16.1z M90.7,85.8H9.2c-1.3,0-2.4-1.1-2.4-2.4V31.9h86.4v51.4C93.2,84.7,92.1,85.8,90.7,85.8z M93.2,16.1v11
		H6.7v-11c0-1.3,1.1-2.4,2.4-2.4h81.6C92.1,13.7,93.2,14.8,93.2,16.1z"/>
	<path class="st0" d="M13.5,22.8c0.6,0,1.3-0.3,1.7-0.7c0.5-0.5,0.7-1.1,0.7-1.7s-0.3-1.3-0.7-1.7c-0.9-0.9-2.5-0.9-3.4,0
		c-0.5,0.5-0.7,1.1-0.7,1.7s0.3,1.3,0.7,1.7C12.2,22.5,12.8,22.8,13.5,22.8z"/>
	<path class="st0" d="M22.6,22.8c0.6,0,1.3-0.3,1.7-0.7c0.5-0.5,0.7-1.1,0.7-1.7s-0.3-1.3-0.7-1.7c-0.9-0.9-2.5-0.9-3.4,0
		c-0.5,0.5-0.7,1.1-0.7,1.7s0.3,1.3,0.7,1.7C21.3,22.5,21.9,22.8,22.6,22.8z"/>
	<path class="st0" d="M31.7,22.8c0.6,0,1.3-0.3,1.7-0.7c0.5-0.5,0.7-1.1,0.7-1.7s-0.3-1.3-0.7-1.7c-0.9-0.9-2.5-0.9-3.4,0
		c-0.5,0.5-0.7,1.1-0.7,1.7s0.3,1.3,0.7,1.7C30.4,22.5,31.1,22.8,31.7,22.8z"/>
	<rect x="14" y="39.5" class="st1" width="18" height="39"/>
	<rect x="40.3" y="39.6" class="st1" width="18" height="39"/>
	<rect x="66.8" y="39.6" class="st1" width="18" height="39"/>
</g>
</svg>
