<?xml version="1.0" encoding="utf-8"?>
<!-- Generator: Adobe Illustrator 24.1.1, SVG Export Plug-In . SVG Version: 6.00 Build 0)  -->
<svg version="1.1" id="Layer_1" xmlns="http://www.w3.org/2000/svg" xmlns:xlink="http://www.w3.org/1999/xlink" x="0px" y="0px"
	 viewBox="0 0 100 100" style="enable-background:new 0 0 100 100;" xml:space="preserve">
<style type="text/css">
	.st0{fill:#008AFC;}
	.st1{fill:#FFFFFF;}
</style>
<path class="st0" d="M84.6,94H15.4c-6.6,0-12-5.4-12-12V18c0-6.6,5.4-12,12-12h69.2c6.6,0,12,5.4,12,12v64
	C96.6,88.6,91.2,94,84.6,94z"/>
<g>
	<g>
		<g>
			<path class="st1" d="M77,16.2H23c-4.9,0-9,4.1-9,9v49.6c0,4.9,4.1,9,9,9h53.9c4.9,0,9-4.1,9-9V25.2C86,20.3,81.9,16.2,77,16.2z
				 M80,74.8c0,1.6-1.3,3-3,3H23c-1.6,0-3-1.3-3-3V25.2c0-1.6,1.3-3,3-3h53.9c1.6,0,3,1.3,3,3L80,74.8L80,74.8z"/>
		</g>
	</g>
	<g>
		<g>
			<path class="st1" d="M78.5,32H20.3c-3,0-5.3,2-5.3,4.3c0,2.4,2.4,4.3,5.3,4.3h58.3c3,0,5.3-2,5.3-4.3C83.8,34,81.5,32,78.5,32z"
				/>
		</g>
	</g>
	<g>
		<g>
			<path class="st1" d="M65.9,49.2h-33c-1.6,0-3,1.3-3,3c0,1.6,1.3,3,3,3h33c1.6,0,3-1.3,3-3C68.9,50.7,67.6,49.2,65.9,49.2z"/>
		</g>
	</g>
	<g>
		<g>
			<path class="st1" d="M66,62.7H32.9c-1.6,0-3,1.3-3,3c0,1.6,1.3,3,3,3h33c1.6,0,3-1.3,3-3C69,64,67.7,62.7,66,62.7z"/>
		</g>
	</g>
</g>
</svg>
