<?xml version="1.0" encoding="utf-8"?>
<!-- Generator: Adobe Illustrator 24.1.1, SVG Export Plug-In . SVG Version: 6.00 Build 0)  -->
<svg version="1.1" id="Layer_1" xmlns="http://www.w3.org/2000/svg" xmlns:xlink="http://www.w3.org/1999/xlink" x="0px" y="0px"
	 viewBox="0 0 100 100" style="enable-background:new 0 0 100 100;" xml:space="preserve">
<style type="text/css">
	.st0{fill:#5A5A5A;stroke:#5A5A5A;stroke-miterlimit:10;}
</style>
<g>
	<path class="st0" d="M84.1,8.7c0-3.6-2.9-6.6-6.6-6.6h-55c-3.6,0-6.6,2.9-6.6,6.6c0,62.9,0,71,0,71.5c0.4,5.1,4.9,9.1,10.2,9.1h3.6
		v6.6c0,0.8,0.5,1.6,1.3,1.9c0.2,0.1,0.5,0.1,0.7,0.1c0.6,0,1.1-0.2,1.5-0.7l4.6-5.2l5.1,5.3c0.6,0.6,1.4,0.8,2.2,0.5
		c0.8-0.3,1.3-1,1.3-1.9v-6.6h31.1c3.6,0,6.6-2.9,6.6-6.6v-11c0,0,0,0,0,0c0,0,0,0,0,0C84.1,71.7,84.1,8.7,84.1,8.7z M80.1,8.7v61
		H31.5V6.1h46C78.9,6.1,80.1,7.3,80.1,8.7z M19.9,8.7c0-1.4,1.1-2.5,2.5-2.5h5v63.6h-1.8c-2.1,0-4.3,0.8-5.8,1.9V8.7z M42.4,90.9
		l-3.1-3.2c-0.4-0.4-0.9-0.6-1.5-0.6c0,0,0,0,0,0c-0.6,0-1.1,0.3-1.5,0.7l-2.6,2.9v-3.4v-5.8h8.6v5.8L42.4,90.9z M80.1,82.7
		c0,1.4-1.1,2.5-2.5,2.5H46.4v-5.8c0-1.1-0.9-2-2-2H31.8c-1.1,0-2,0.9-2,2v5.8h-3.6c-3.2,0-5.9-2.3-6.2-5.4c0-0.1,0-0.2,0-0.4
		c0-3.1,2.5-5.7,5.8-5.7h54.4V82.7z"/>
	<path class="st0" d="M49,24.6h13.7c1.1,0,2-0.9,2-2s-0.9-2-2-2H49c-1.1,0-2,0.9-2,2S47.8,24.6,49,24.6z"/>
	<path class="st0" d="M41.3,35.2h29c1.1,0,2-0.9,2-2s-0.9-2-2-2h-29c-1.1,0-2,0.9-2,2S40.2,35.2,41.3,35.2z"/>
</g>
</svg>
