<?xml version="1.0" encoding="utf-8"?>
<!-- Generator: Adobe Illustrator 24.1.1, SVG Export Plug-In . SVG Version: 6.00 Build 0)  -->
<svg version="1.1" id="Layer_1" xmlns="http://www.w3.org/2000/svg" xmlns:xlink="http://www.w3.org/1999/xlink" x="0px" y="0px"
	 viewBox="0 0 100 100" style="enable-background:new 0 0 100 100;" xml:space="preserve">
<style type="text/css">
	.st0{fill:#FFFFFF;}
</style>
<g>
	<path class="st0" d="M70.5,39.6l-16-16v45.6c0,2.5-2,4.5-4.5,4.5s-4.5-2-4.5-4.5V23.6l-16,16c-1.8,1.8-4.6,1.8-6.4,0
		c-1.8-1.8-1.8-4.6,0-6.4L46.7,9.5c1-0.9,2.1-1.2,3.3-1.2s2.3,0.5,3.2,1.4l23.7,23.7c1.8,1.8,1.8,4.6,0,6.4
		C75.1,41.4,72.3,41.4,70.5,39.6z"/>
	<path class="st0" d="M25.2,91.7h49.6c2.5,0,4.5-2,4.5-4.5c0-2.5-2-4.5-4.5-4.5H25.2c-2.5,0-4.5,2-4.5,4.5
		C20.7,89.7,22.7,91.7,25.2,91.7z"/>
</g>
</svg>
