<?xml version="1.0" encoding="utf-8"?>
<!-- Generator: Adobe Illustrator 24.1.1, SVG Export Plug-In . SVG Version: 6.00 Build 0)  -->
<svg version="1.1" id="Layer_1" xmlns="http://www.w3.org/2000/svg" xmlns:xlink="http://www.w3.org/1999/xlink" x="0px" y="0px"
	 viewBox="0 0 100 100" style="enable-background:new 0 0 100 100;" xml:space="preserve">
<style type="text/css">
	.st0{fill:#008AFC;stroke:#008AFC;stroke-width:2;stroke-miterlimit:10;}
</style>
<path class="st0" d="M57.5,86.5h33.6c2.9,0,5.2-2.3,5.2-5.2V18.7c0-2.9-2.3-5.2-5.2-5.2H57.5c-2.9,0-5.2,2.3-5.2,5.2v3.1H28.1
	c-2.9,0-5.2,2.3-5.2,5.2v3.1h-14c-2.9,0-5.2,2.3-5.2,5.2l0,0v29.4c0,2.9,2.3,5.2,5.2,5.2h14V73c0,2.9,2.3,5.2,5.2,5.2h24.2v3.1
	C52.3,84.2,54.7,86.5,57.5,86.5z M56.5,18.7c0-0.6,0.5-1,1-1h33.6c0.6,0,1,0.5,1,1v62.6c0,0.6-0.5,1-1,1H57.5c-0.6,0-1-0.5-1-1V18.7
	z M8.9,65.7c-0.6,0-1-0.5-1-1V35.3c0-0.6,0.5-1,1-1h14v31.5H8.9z M28.1,74c-0.6,0-1-0.5-1-1V27c0-0.6,0.5-1,1-1h24.2V74H28.1z"/>
</svg>
