<?xml version="1.0" encoding="utf-8"?>
<!-- Generator: Adobe Illustrator 24.1.1, SVG Export Plug-In . SVG Version: 6.00 Build 0)  -->
<svg version="1.1" id="Layer_1" xmlns="http://www.w3.org/2000/svg" xmlns:xlink="http://www.w3.org/1999/xlink" x="0px" y="0px"
	 viewBox="0 0 100 100" style="enable-background:new 0 0 100 100;" xml:space="preserve">
<style type="text/css">
	.st0{fill:#008AFC;stroke:#008AFC;stroke-miterlimit:10;}
</style>
<path class="st0" d="M92.5,28.7c-1.9-1.1-4.1-1.1-6,0L71.1,39.5V26.5c0-3.3-2.8-5.9-6.1-5.9H10.4c-3.3,0-6,2.6-6,5.9v47
	c0,3.3,2.7,5.9,6,5.9H65c3.3,0,6.1-2.6,6.1-5.9V60.5l15.4,10.8c1,0.6,2,0.8,3,0.8s2.1-0.3,3-0.8c1.9-1.1,3-3,3-5.2V34
	C95.6,31.8,94.4,29.8,92.5,28.7z M64.1,72.4H11.5V27.6h52.6V72.4z M88.5,64.3l-17.4-12v-4.6l17.4-12V64.3z"/>
</svg>
