<?xml version="1.0" encoding="utf-8"?>
<!-- Generator: Adobe Illustrator 24.1.1, SVG Export Plug-In . SVG Version: 6.00 Build 0)  -->
<svg version="1.1" id="Layer_1" xmlns="http://www.w3.org/2000/svg" xmlns:xlink="http://www.w3.org/1999/xlink" x="0px" y="0px"
	 viewBox="0 0 100 100" style="enable-background:new 0 0 100 100;" xml:space="preserve">
<style type="text/css">
	.st0{fill:#00AA08;stroke:#00AA08;stroke-miterlimit:10;}
</style>
<g>
	<path class="st0" d="M77.5,42.7h-55c-2,0-3.6,1.6-3.6,3.6v30.9c0,2,1.6,3.6,3.6,3.6h55c2,0,3.6-1.6,3.6-3.6V46.3
		C81.1,44.3,79.5,42.7,77.5,42.7z M73.9,58.1H53.6V50h20.2V58.1z M46.4,50v8.2H26.1V50H46.4z M26.1,65.4h20.2v8.2H26.1V65.4z
		 M53.6,73.6v-8.2h20.2v8.2H53.6z M93.6,32c0-0.1-0.1-0.1-0.1-0.1c-0.1-0.2-0.2-0.3-0.3-0.5l-0.2-0.2l-0.3-0.3l0,0L66.2,5.7L66,5.5
		l-0.3-0.2l-0.3-0.2L65.1,5l-0.4-0.1l-0.3-0.1c-0.2,0-0.5,0-0.7,0h-43c-8,0-14.5,6.5-14.5,14.5v61.3c0,8,6.5,14.5,14.5,14.5h58.6
		c8,0,14.5-6.5,14.5-14.5V33.5C93.9,33,93.8,32.5,93.6,32z M67.3,16.8l13.7,13H67.3V16.8z M79.3,87.9H20.7c-4,0-7.3-3.3-7.3-7.3
		V19.3c0-4,3.3-7.3,7.3-7.3h39.4v21.4c0,2,1.6,3.6,3.6,3.6h22.9v43.6C86.6,84.7,83.3,87.9,79.3,87.9z"/>
</g>
</svg>
